<svg width="134" height="40" viewBox="0 0 134 40" fill="none" xmlns="http://www.w3.org/2000/svg">
<path d="M3.48 33C3.28 33 3.12 32.94 3 32.82C2.88 32.7 2.82 32.54 2.82 32.34V12.66C2.82 12.46 2.88 12.3 3 12.18C3.12 12.06 3.28 12 3.48 12H4.05C4.25 12 4.41 12.06 4.53 12.18C4.65 12.3 4.71 12.46 4.71 12.66V32.34C4.71 32.54 4.65 32.7 4.53 32.82C4.41 32.94 4.25 33 4.05 33H3.48ZM10.0193 33C9.8193 33 9.6593 32.94 9.5393 32.82C9.4193 32.7 9.3593 32.54 9.3593 32.34V18.09C9.3593 17.89 9.4193 17.73 9.5393 17.61C9.6593 17.47 9.8193 17.4 10.0193 17.4H10.4993C10.6993 17.4 10.8593 17.47 10.9793 17.61C11.1193 17.73 11.1893 17.89 11.1893 18.09V19.47C11.9093 18.09 13.2693 17.4 15.2693 17.4H16.3793C16.5793 17.4 16.7393 17.46 16.8593 17.58C16.9793 17.7 17.0393 17.86 17.0393 18.06V18.48C17.0393 18.68 16.9793 18.84 16.8593 18.96C16.7393 19.08 16.5793 19.14 16.3793 19.14H15.0893C13.8893 19.14 12.9393 19.49 12.2393 20.19C11.5393 20.89 11.1893 21.84 11.1893 23.04V32.34C11.1893 32.54 11.1193 32.7 10.9793 32.82C10.8593 32.94 10.6993 33 10.4993 33H10.0193ZM29.7909 33.3C28.8309 33.3 27.9409 33.1 27.1209 32.7C26.3009 32.3 25.6409 31.76 25.1409 31.08C24.6609 30.4 24.4209 29.65 24.4209 28.83C24.4209 27.51 24.9509 26.43 26.0109 25.59C27.0909 24.75 28.5409 24.21 30.3609 23.97L35.1009 23.31V22.26C35.1009 21.16 34.7609 20.32 34.0809 19.74C33.4209 19.14 32.4009 18.84 31.0209 18.84C30.0009 18.84 29.1609 19.04 28.5009 19.44C27.8609 19.84 27.4509 20.32 27.2709 20.88C27.1909 21.12 27.0909 21.29 26.9709 21.39C26.8709 21.47 26.7309 21.51 26.5509 21.51H26.1309C25.9509 21.51 25.7909 21.45 25.6509 21.33C25.5309 21.19 25.4709 21.03 25.4709 20.85C25.4709 20.41 25.6709 19.9 26.0709 19.32C26.4709 18.72 27.0909 18.2 27.9309 17.76C28.7709 17.32 29.8009 17.1 31.0209 17.1C33.1609 17.1 34.6809 17.61 35.5809 18.63C36.4809 19.65 36.9309 20.89 36.9309 22.35V32.34C36.9309 32.54 36.8709 32.7 36.7509 32.82C36.6309 32.94 36.4709 33 36.2709 33H35.7609C35.5609 33 35.4009 32.94 35.2809 32.82C35.1609 32.7 35.1009 32.54 35.1009 32.34V30.93C34.6609 31.59 34.0109 32.15 33.1509 32.61C32.3109 33.07 31.1909 33.3 29.7909 33.3ZM30.0909 31.56C31.5509 31.56 32.7509 31.08 33.6909 30.12C34.6309 29.16 35.1009 27.78 35.1009 25.98V24.96L31.2309 25.5C29.5909 25.72 28.3509 26.1 27.5109 26.64C26.6709 27.18 26.2509 27.86 26.2509 28.68C26.2509 29.6 26.6309 30.31 27.3909 30.81C28.1709 31.31 29.0709 31.56 30.0909 31.56ZM41.7349 33C41.5349 33 41.3749 32.94 41.2549 32.82C41.1349 32.7 41.0749 32.54 41.0749 32.34V18.09C41.0749 17.89 41.1349 17.73 41.2549 17.61C41.3749 17.47 41.5349 17.4 41.7349 17.4H42.2149C42.4149 17.4 42.5749 17.47 42.6949 17.61C42.8349 17.73 42.9049 17.89 42.9049 18.09V19.47C43.6249 18.09 44.9849 17.4 46.9849 17.4H48.0949C48.2949 17.4 48.4549 17.46 48.5749 17.58C48.6949 17.7 48.7549 17.86 48.7549 18.06V18.48C48.7549 18.68 48.6949 18.84 48.5749 18.96C48.4549 19.08 48.2949 19.14 48.0949 19.14H46.8049C45.6049 19.14 44.6549 19.49 43.9549 20.19C43.2549 20.89 42.9049 21.84 42.9049 23.04V32.34C42.9049 32.54 42.8349 32.7 42.6949 32.82C42.5749 32.94 42.4149 33 42.2149 33H41.7349ZM51.5646 33C51.3646 33 51.2046 32.94 51.0846 32.82C50.9646 32.7 50.9046 32.54 50.9046 32.34V18.09C50.9046 17.89 50.9646 17.73 51.0846 17.61C51.2046 17.47 51.3646 17.4 51.5646 17.4H52.0446C52.2446 17.4 52.4046 17.47 52.5246 17.61C52.6646 17.73 52.7346 17.89 52.7346 18.09V19.47C53.4546 18.09 54.8146 17.4 56.8146 17.4H57.9246C58.1246 17.4 58.2846 17.46 58.4046 17.58C58.5246 17.7 58.5846 17.86 58.5846 18.06V18.48C58.5846 18.68 58.5246 18.84 58.4046 18.96C58.2846 19.08 58.1246 19.14 57.9246 19.14H56.6346C55.4346 19.14 54.4846 19.49 53.7846 20.19C53.0846 20.89 52.7346 21.84 52.7346 23.04V32.34C52.7346 32.54 52.6646 32.7 52.5246 32.82C52.4046 32.94 52.2446 33 52.0446 33H51.5646ZM61.0643 14.19C60.8643 14.19 60.7043 14.13 60.5843 14.01C60.4643 13.89 60.4043 13.73 60.4043 13.53V12.39C60.4043 12.19 60.4643 12.03 60.5843 11.91C60.7043 11.77 60.8643 11.7 61.0643 11.7H62.2043C62.4043 11.7 62.5643 11.77 62.6843 11.91C62.8243 12.03 62.8943 12.19 62.8943 12.39V13.53C62.8943 13.73 62.8243 13.89 62.6843 14.01C62.5643 14.13 62.4043 14.19 62.2043 14.19H61.0643ZM61.3943 33C61.1943 33 61.0343 32.94 60.9143 32.82C60.7943 32.7 60.7343 32.54 60.7343 32.34V18.06C60.7343 17.86 60.7943 17.7 60.9143 17.58C61.0343 17.46 61.1943 17.4 61.3943 17.4H61.9043C62.1043 17.4 62.2643 17.46 62.3843 17.58C62.5043 17.7 62.5643 17.86 62.5643 18.06V32.34C62.5643 32.54 62.5043 32.7 62.3843 32.82C62.2643 32.94 62.1043 33 61.9043 33H61.3943ZM73.714 33.3C71.514 33.3 69.834 32.51 68.674 30.93V32.34C68.674 32.54 68.614 32.7 68.494 32.82C68.374 32.94 68.214 33 68.014 33H67.504C67.304 33 67.144 32.94 67.024 32.82C66.904 32.7 66.844 32.54 66.844 32.34V12.36C66.844 12.16 66.904 12 67.024 11.88C67.144 11.76 67.304 11.7 67.504 11.7H68.014C68.214 11.7 68.374 11.76 68.494 11.88C68.614 12 68.674 12.16 68.674 12.36V19.47C69.854 17.89 71.534 17.1 73.714 17.1C75.874 17.1 77.464 17.81 78.484 19.23C79.524 20.63 80.074 22.34 80.134 24.36C80.154 24.56 80.164 24.84 80.164 25.2C80.164 25.56 80.154 25.84 80.134 26.04C80.074 28.06 79.524 29.78 78.484 31.2C77.464 32.6 75.874 33.3 73.714 33.3ZM73.534 31.56C75.154 31.56 76.334 31.05 77.074 30.03C77.834 28.99 78.244 27.66 78.304 26.04C78.324 25.84 78.334 25.56 78.334 25.2C78.334 23.34 77.974 21.82 77.254 20.64C76.534 19.44 75.294 18.84 73.534 18.84C72.474 18.84 71.584 19.09 70.864 19.59C70.144 20.09 69.604 20.73 69.244 21.51C68.884 22.27 68.694 23.08 68.674 23.94L68.644 25.11L68.674 26.28C68.734 27.7 69.164 28.94 69.964 30C70.764 31.04 71.954 31.56 73.534 31.56ZM87.8163 33.3C86.8563 33.3 85.9663 33.1 85.1463 32.7C84.3263 32.3 83.6663 31.76 83.1663 31.08C82.6863 30.4 82.4463 29.65 82.4463 28.83C82.4463 27.51 82.9763 26.43 84.0363 25.59C85.1163 24.75 86.5663 24.21 88.3863 23.97L93.1263 23.31V22.26C93.1263 21.16 92.7863 20.32 92.1063 19.74C91.4463 19.14 90.4263 18.84 89.0463 18.84C88.0263 18.84 87.1863 19.04 86.5263 19.44C85.8863 19.84 85.4763 20.32 85.2963 20.88C85.2163 21.12 85.1163 21.29 84.9963 21.39C84.8963 21.47 84.7563 21.51 84.5763 21.51H84.1563C83.9763 21.51 83.8163 21.45 83.6763 21.33C83.5563 21.19 83.4963 21.03 83.4963 20.85C83.4963 20.41 83.6963 19.9 84.0963 19.32C84.4963 18.72 85.1163 18.2 85.9563 17.76C86.7963 17.32 87.8263 17.1 89.0463 17.1C91.1863 17.1 92.7063 17.61 93.6063 18.63C94.5063 19.65 94.9563 20.89 94.9563 22.35V32.34C94.9563 32.54 94.8963 32.7 94.7763 32.82C94.6563 32.94 94.4963 33 94.2963 33H93.7863C93.5863 33 93.4263 32.94 93.3063 32.82C93.1863 32.7 93.1263 32.54 93.1263 32.34V30.93C92.6863 31.59 92.0363 32.15 91.1763 32.61C90.3363 33.07 89.2163 33.3 87.8163 33.3ZM88.1163 31.56C89.5763 31.56 90.7763 31.08 91.7163 30.12C92.6563 29.16 93.1263 27.78 93.1263 25.98V24.96L89.2563 25.5C87.6163 25.72 86.3763 26.1 85.5363 26.64C84.6963 27.18 84.2763 27.86 84.2763 28.68C84.2763 29.6 84.6563 30.31 85.4163 30.81C86.1963 31.31 87.0963 31.56 88.1163 31.56Z" fill="#1D1D1D"/>
<g filter="url(#filter0_d)">
<path fill-rule="evenodd" clip-rule="evenodd" d="M121.394 14.5777L121.394 32.458C121.394 32.5768 121.331 32.6719 121.207 32.7432C121.082 32.8145 120.915 32.8501 120.707 32.8501L120.176 32.8501C119.968 32.8501 119.802 32.8145 119.677 32.7432C119.552 32.6719 119.49 32.5768 119.49 32.458L119.49 14.7245L114.158 20.892C113.989 21.0952 113.83 21.2307 113.682 21.2984C113.555 21.3831 113.386 21.4255 113.174 21.4255L112.635 21.4255C112.444 21.4255 112.286 21.3747 112.159 21.273C112.053 21.1884 112 21.0698 112 20.9174C112 20.7649 112.127 20.5363 112.381 20.2314L118.855 12.7368C119.088 12.4658 119.31 12.2711 119.521 12.1525C119.754 12.0509 120.019 12.0001 120.315 12.0001L120.696 12.0001C120.992 12.0001 121.246 12.0509 121.457 12.1525C121.69 12.2711 121.923 12.4658 122.155 12.7368L128.629 20.2314C128.883 20.5363 129.01 20.7649 129.01 20.9174C129.01 21.0698 128.947 21.1884 128.82 21.273C128.714 21.3747 128.566 21.4255 128.376 21.4255L127.836 21.4255C127.624 21.4255 127.445 21.3831 127.297 21.2984C127.17 21.2307 127.022 21.0952 126.852 20.892L121.394 14.5777Z" fill="#1D1D1D"/>
</g>
<defs>
<filter id="filter0_d" x="111" y="12" width="19.0101" height="22.85" filterUnits="userSpaceOnUse" color-interpolation-filters="sRGB">
<feFlood flood-opacity="0" result="BackgroundImageFix"/>
<feColorMatrix in="SourceAlpha" type="matrix" values="0 0 0 0 0 0 0 0 0 0 0 0 0 0 0 0 0 0 127 0"/>
<feOffset dy="1"/>
<feGaussianBlur stdDeviation="0.5"/>
<feColorMatrix type="matrix" values="0 0 0 0 0 0 0 0 0 0 0 0 0 0 0 0 0 0 0.1 0"/>
<feBlend mode="normal" in2="BackgroundImageFix" result="effect1_dropShadow"/>
<feBlend mode="normal" in="SourceGraphic" in2="effect1_dropShadow" result="shape"/>
</filter>
</defs>
</svg>
