<svg width="823" height="542" viewBox="0 0 823 542" fill="none" xmlns="http://www.w3.org/2000/svg">
<path d="M645.922 275.788C645.377 276.504 645.377 277.496 645.922 278.212L761.409 429.9C762.569 431.423 765 430.603 765 428.688L765 125.312C765 123.397 762.569 122.577 761.409 124.1L645.922 275.788Z" fill="#EB935F"/>
<rect x="351" y="38" width="472" height="300" rx="2" fill="#EB935F"/>
<circle cx="189.5" cy="189.5" r="189.5" fill="#F8D65B"/>
<path d="M324.081 320.79C324.624 321.505 324.624 322.495 324.081 323.21L183.843 507.797C182.684 509.322 180.25 508.503 180.25 506.587L180.25 137.413C180.25 135.497 182.684 134.678 183.843 136.203L324.081 320.79Z" fill="#F8D65B"/>
<path fill-rule="evenodd" clip-rule="evenodd" d="M351 288.375C368.757 259.523 379 225.551 379 189.187C379 152.823 368.757 118.852 351 90L351 288.375Z" fill="#69AF6F"/>
<rect x="489" y="26" width="334" height="21" fill="#EB935F"/>
</svg>
