<svg width="82" height="64" viewBox="0 0 82 64" fill="none" xmlns="http://www.w3.org/2000/svg">
<g clip-path="url(#clip0)">
<path d="M41.7534 41.2978C40.944 42.4109 40.2444 43.5079 39.4076 44.4896C38.3078 45.7825 37.1167 46.9947 35.9392 48.2184C35.6648 48.5042 35.2967 48.7047 34.9675 48.9351C34.4325 49.3108 33.902 49.6864 33.6277 50.3202C33.6048 50.3732 33.5225 50.4239 33.4585 50.4354C31.9975 50.705 30.6943 51.3641 29.4254 52.1039C28.129 52.8598 26.8784 53.7056 25.5386 54.3739C24.0364 55.1229 22.8704 56.259 21.6838 57.3929C21.3545 57.7086 20.9727 57.9713 20.6183 58.2617C20.5566 58.3124 20.4857 58.37 20.4583 58.4392C20.328 58.7802 20.065 58.983 19.7587 59.1466C19.3403 59.3702 18.9287 59.5845 18.6064 59.9694C18.46 60.1422 18.1422 60.1906 17.8907 60.2459C17.7192 60.2851 17.5272 60.2413 17.3443 60.2344C17.1477 60.2275 17.0311 60.1468 16.9305 59.9532C16.7933 59.6859 16.5852 59.4578 16.4046 59.2158C16.1782 58.9116 15.9999 58.6005 16.1851 58.1995C16.2171 58.128 16.1897 58.0151 16.16 57.9321C15.9062 57.2131 15.6478 56.4964 15.3895 55.7797C15.1517 55.1183 14.9436 54.4523 14.9825 53.7355C14.9871 53.6341 14.9916 53.5327 15.0008 53.4313C15.0488 52.9151 15.2911 52.5648 15.7736 52.3321C16.7338 51.8688 17.7513 51.6983 18.7938 51.6107C20.0033 51.5093 21.2242 51.4978 22.4063 51.1706C22.8018 51.0599 23.1996 50.9585 23.5929 50.8341C24.1462 50.6589 24.608 50.3432 24.9898 49.8984C25.0722 49.8017 25.2048 49.7279 25.3259 49.6887C26.572 49.2993 27.8181 48.9029 29.071 48.5411C29.7135 48.3544 30.2645 48.0133 30.7469 47.5801C31.5471 46.8656 32.3062 46.1051 33.0835 45.3654C33.1704 45.2824 33.2504 45.1925 33.3442 45.1211C34.1215 44.5403 34.6863 43.7499 35.3356 43.0424C35.5482 42.8119 35.7197 42.5261 35.8523 42.2381C36.8286 40.1156 37.7134 37.9562 38.2873 35.6816C38.3101 35.594 38.333 35.5041 38.3673 35.3705C38.1821 35.412 38.0243 35.435 37.8734 35.4834C37.5762 35.5756 37.279 35.6678 36.9909 35.783C36.3393 36.0434 35.6557 36.1241 34.9652 36.1978C34.5788 36.2393 34.2016 36.373 33.8266 36.4905C32.9578 36.767 32.0684 37.0067 31.2339 37.3685C30.6943 37.6013 30.1707 37.788 29.59 37.8225C29.1167 37.8502 28.6434 37.8963 28.1679 37.9193C27.3082 37.9608 26.5011 38.2143 25.6872 38.4632C24.8595 38.7167 24.0204 38.9356 23.1882 39.1799C23.051 39.2191 22.9138 39.2859 22.7949 39.3689C21.9833 39.9496 21.1739 40.535 20.3668 41.125C19.6535 41.6435 18.9287 42.1413 18.0691 42.3879C17.8061 42.4639 17.5341 42.51 17.2643 42.5446C16.8664 42.5953 16.6035 42.3717 16.5944 41.9638C16.5898 41.7864 16.6287 41.5951 16.695 41.4269C16.8299 41.0881 17.0493 40.777 17.1294 40.429C17.1911 40.1594 17.3969 40.0441 17.5135 39.8436C17.9136 39.1638 18.3046 38.4793 18.7161 37.8064C19.0179 37.3132 19.3448 36.8385 19.6581 36.3545C19.7152 36.2647 19.7632 36.1633 19.7975 36.0619C19.9096 35.7323 20.0147 35.3981 20.1199 35.0663C20.4171 34.1329 21.0893 33.725 22.0244 33.7043C22.5892 33.6928 23.1585 33.7296 23.7209 33.6928C25.4608 33.5752 27.203 33.4577 28.9384 33.2895C29.9192 33.195 30.8886 33.0014 31.8626 32.8493C31.9244 32.8401 31.9952 32.8286 32.0455 32.794C32.7886 32.257 33.6757 32.1856 34.5239 31.9782C34.9995 31.8629 35.4522 31.6578 35.9186 31.5034C36.0261 31.4689 36.1472 31.4527 36.2593 31.4596C37.0458 31.5034 37.8071 31.4089 38.5319 31.0725C39.0738 30.8213 39.4419 30.4572 39.371 29.805C39.3344 29.4685 39.3116 29.1182 39.1927 28.8094C39.1035 28.5789 38.8977 28.3738 38.7011 28.2102C38.0769 27.6871 37.3887 27.2377 36.8103 26.6708C36.0901 25.9633 35.8134 25.0599 35.9918 24.0389C36.0947 23.4536 36.4079 22.9881 36.8674 22.6516C37.3019 22.3336 37.782 22.0847 38.2438 21.8058C38.6897 21.5362 39.1332 21.2643 39.5813 21.0015C39.9952 20.7596 40.457 20.748 40.8846 20.8817C41.5796 21.1029 42.2495 21.3956 42.9309 21.6583C42.9469 21.6653 42.9697 21.6722 42.9766 21.6883C43.2189 22.17 43.7128 22.3612 44.0923 22.6839C44.3004 22.8613 44.4078 23.0872 44.4558 23.3706C44.5153 23.7117 44.6593 24.0366 44.7439 24.3731C44.8422 24.7626 44.952 25.1544 44.984 25.5507C45.0091 25.8803 44.8537 26.1154 44.5016 26.2859C44.0237 26.5187 43.603 26.8736 43.1663 27.1893C43.1069 27.2331 43.0749 27.346 43.0726 27.429C43.0657 27.6779 43.0932 27.9267 43.0817 28.1733C43.0635 28.5835 43.0223 28.9915 42.988 29.457C43.3698 29.8303 43.7699 30.3281 44.2729 30.6761C44.6868 30.9642 45.2081 31.1301 45.7065 31.2453C46.397 31.4043 47.1103 31.4712 47.8168 31.5703C48.5941 31.6786 49.3692 31.8261 50.1489 31.8675C51.3698 31.9321 52.5953 31.9551 53.8185 31.9367C55.5721 31.909 57.3303 31.7477 59.0611 32.1487C59.907 32.3446 60.7347 32.1856 61.5669 32.1118C63.1994 31.9666 64.8021 31.6486 66.3797 31.2015C66.6083 31.137 66.8072 31.2522 66.9147 31.5103C67.1868 32.1602 67.2325 32.7848 66.7203 33.3609C66.5443 33.5591 66.3957 33.7826 66.2516 34.0062C66.0207 34.3634 65.9338 34.7459 66.1053 35.1608C66.1282 35.2161 66.1419 35.2875 66.1328 35.3474C66.039 35.972 66.2013 36.5527 66.4094 37.1289C66.5351 37.4745 66.6609 37.8179 66.7912 38.1774C66.2928 38.5116 65.7669 38.5231 65.2274 38.4171C64.9233 38.3572 64.6306 38.2397 64.3265 38.1774C63.7641 38.0645 63.1902 38.0046 62.6346 37.8663C61.432 37.569 60.2866 37.115 59.2257 36.4628C59.1594 36.4214 59.0748 36.4075 58.997 36.3891C58.5558 36.2854 58.1122 36.1955 57.6755 36.0757C57.2983 35.9743 56.9302 35.7415 56.5575 35.7392C55.755 35.7346 55.0051 35.4419 54.214 35.3958C53.1165 35.3313 52.0465 35.4857 50.9788 35.7069C49.7991 35.9512 48.6216 36.2163 47.4327 36.4144C46.8794 36.5066 46.3032 36.4582 45.7385 36.4813C45.5121 36.4905 45.2789 36.4882 45.0617 36.5435C44.4147 36.7048 44.1586 37.1081 44.3392 37.7511C44.4856 38.2719 44.7073 38.7697 44.8971 39.2767C45.0251 39.6201 45.1692 39.9589 45.2766 40.3092C45.3315 40.4866 45.4115 40.6111 45.5693 40.7102C47.1583 41.6988 48.6467 42.8211 50.094 44.0126C51.2006 44.9229 52.4329 45.6811 53.6241 46.4854C54.8999 47.3473 56.0774 48.3037 57.0216 49.5458C58.1328 51.0069 59.6006 52.0463 61.2194 52.8552C62.5112 53.5005 63.835 54.0812 65.1633 54.6458C65.504 54.791 65.9133 54.7726 66.2928 54.8141C66.654 54.8533 66.997 54.9224 67.2714 55.1874C67.3079 55.222 67.3651 55.2519 67.4131 55.2542C68.3437 55.3211 69.041 55.8557 69.736 56.4042C70.2596 56.819 70.7878 57.2316 71.3045 57.6556C71.3891 57.7247 71.4394 57.8446 71.4851 57.9506C71.6337 58.294 71.7206 58.3608 72.0864 58.3101C73.6526 58.0981 75.2027 58.2894 76.7551 58.4922C77.832 58.6327 78.9157 58.718 79.9995 58.8033C80.5231 58.8448 80.866 59.3425 80.69 59.8357C80.5231 60.3012 80.3904 60.7829 80.2235 61.2484C80.1252 61.5227 80.0132 61.8015 79.8623 62.0504C79.5079 62.6288 79.0232 62.94 78.3007 62.9123C76.8763 62.8593 75.4496 62.834 74.0252 62.857C72.818 62.8754 71.6223 63.0552 70.4585 63.4009C70.3374 63.4377 70.207 63.5184 70.1316 63.6152C69.8618 63.9632 69.5166 64.083 69.1119 63.9678C68.7438 63.8641 68.3985 63.6728 68.0281 63.5852C67.189 63.387 66.5123 62.88 65.7921 62.4537C65.3371 62.1841 64.969 61.8176 64.7198 61.336C64.6558 61.2115 64.5392 61.1009 64.4226 61.018C63.7046 60.5109 62.9753 60.0224 62.2574 59.5131C61.7635 59.1651 61.2857 58.7941 60.801 58.4345C60.7415 58.3908 60.6821 58.3516 60.6204 58.3124C60.3254 58.1303 60.0168 57.9667 59.7355 57.7639C58.4552 56.8352 57.3326 55.7267 56.242 54.5836C54.9022 53.1824 53.535 51.8089 51.8659 50.7949C51.4132 50.5207 50.9239 50.311 50.4552 50.0621C50.1283 49.8869 49.7922 49.7187 49.4881 49.5067C48.3907 48.7439 47.2978 47.9695 46.2163 47.1837C45.9603 46.997 45.7271 46.7688 45.5259 46.5223C44.7211 45.5451 43.9048 44.5726 43.1481 43.5563C42.7571 43.0308 42.4942 42.4109 42.1558 41.844C42.046 41.6343 41.8768 41.4591 41.7534 41.2978Z" fill="black"/>
<path d="M36.2736 0C36.5251 0.191279 36.7857 0.354903 37.0052 0.564618C38.2787 1.77912 39.5065 3.04433 40.9903 4.01224C42.0032 4.67365 43.032 5.31202 44.006 6.02643C44.8154 6.62331 45.6636 7.11188 46.5987 7.47369C48.8416 8.34251 50.7873 9.70221 52.6027 11.2716C53.9219 12.4101 55.2914 13.4909 56.7867 14.3897C57.9802 15.1064 59.2354 15.6549 60.6118 15.9153C60.9159 15.9729 61.1902 16.1757 61.4829 16.3025C63.1634 17.0445 64.8484 17.7797 66.5243 18.5287C66.9907 18.7384 67.4365 18.9919 67.8915 19.227C67.9647 19.2638 68.0356 19.3168 68.1133 19.3353C68.957 19.545 69.6566 20.0474 70.4042 20.4553C70.8432 20.695 71.3096 20.8793 71.7578 21.1052C71.8812 21.1674 71.9727 21.2942 72.087 21.3817C73.1707 22.2091 74.4031 22.7368 75.6766 23.1816C77.0301 23.654 78.3973 24.0919 79.7257 24.6289C80.439 24.9169 81.0815 25.3801 81.7537 25.7673C81.8383 25.8157 81.9114 25.8894 81.996 25.9586C81.932 26.0761 81.8794 26.1821 81.8154 26.2812C81.301 27.1109 80.8551 27.9682 80.5511 28.9038C80.3659 29.4684 80.0801 30.0008 79.8194 30.5377C79.7714 30.6368 79.6479 30.7359 79.5405 30.7636C78.6968 30.9756 77.8692 30.9226 77.0872 30.5262C76.6688 30.3142 76.4173 29.9293 76.2344 29.5122C76.0744 29.1527 75.9486 28.7771 75.816 28.4037C75.592 27.7654 75.1804 27.3091 74.6408 26.8942C73.6166 26.1038 72.4254 26.0162 71.2296 25.8779C70.1962 25.7581 69.1673 25.6083 68.1362 25.4769C67.5234 25.3986 66.9038 25.3525 66.2957 25.2534C65.9961 25.205 65.7104 25.0621 65.4177 24.9676C65.0313 24.8432 64.6426 24.7233 64.2562 24.5966C64.1899 24.5758 64.1145 24.5459 64.0733 24.4952C63.8996 24.2716 63.6595 24.1864 63.3988 24.1126C62.3608 23.8223 61.3937 23.3844 60.5203 22.7345C58.4146 21.1697 56.2883 19.6303 54.1871 18.0585C52.653 16.9109 51.1577 15.7102 49.6213 14.5694C48.0186 13.3826 46.1735 12.6958 44.3101 12.0575C43.9031 11.9192 43.5007 11.774 43.0915 11.6403C42.5267 11.456 42.0146 11.2117 41.5528 10.7969C41.02 10.3175 40.373 9.96492 39.7603 9.5455C39.3624 9.87044 38.9783 10.1954 38.5828 10.5019C36.6028 12.0459 34.6183 13.5854 32.636 15.1294C32.165 15.4959 31.7512 15.9015 31.4082 16.4085C30.672 17.4893 29.5951 18.153 28.436 18.6923C27.5237 19.1163 26.6 19.515 25.7015 19.9621C24.5309 20.5452 23.6049 21.4002 22.8916 22.5225C21.9542 23.9951 20.7675 25.2672 19.5146 26.4725C17.6238 28.2908 15.7033 30.0791 13.8125 31.8974C13.3163 32.3722 12.8728 32.9045 12.4155 33.4161C11.2586 34.7067 10.1314 36.0249 8.94253 37.2855C8.48297 37.7718 7.89538 38.1359 7.3558 38.5438C7.2895 38.5945 7.16146 38.6198 7.08373 38.5968C5.99542 38.2534 4.90483 37.9123 3.82567 37.5482C2.95229 37.2532 2.13606 36.843 1.50503 36.1378C1.37699 35.995 1.24896 35.8452 1.15293 35.6792C0.841986 35.1423 0.535615 34.603 0.249821 34.0545C0.014327 33.6005 -0.0428318 33.0935 0.0326178 32.6003C0.0966357 32.1855 0.412152 31.8951 0.734528 31.6439C1.25353 31.2429 1.86856 31.1047 2.49959 31.0309C3.26095 30.9387 4.02916 30.888 4.78594 30.7659C5.91769 30.5815 6.69733 29.9501 7.05629 28.8209C7.09287 28.7033 7.21176 28.595 7.31693 28.5213C8.11487 27.952 8.92424 27.3989 9.72218 26.8297C10.8859 25.9955 11.8393 24.9861 12.4475 23.6494C12.9985 22.4395 14.0205 21.679 15.1797 21.119C16.1491 20.6489 17.1437 20.2271 18.1268 19.787C19.1488 19.3284 20.0222 18.6577 20.8567 17.9157C22.1759 16.7426 23.566 15.648 25.2259 15.0027C27.2745 14.2076 29.0304 12.9839 30.6034 11.4629C30.7383 11.3315 30.9121 11.237 31.0767 11.1356C32.3182 10.3659 33.5162 9.53858 34.4879 8.42778C34.7897 8.0844 35.0458 7.69954 35.3042 7.32159C35.3682 7.22941 35.4002 7.0704 35.3682 6.96669C35.1898 6.38825 35.0024 5.81211 34.7874 5.24749C34.5657 4.66213 34.3279 4.08599 34.3576 3.43841C34.3759 3.01206 34.4971 2.6249 34.7394 2.27691C35.1075 1.74916 35.4848 1.22833 35.8506 0.698282C35.9855 0.495481 36.1044 0.278852 36.2736 0Z" fill="black"/>
</g>
<defs>
<clipPath id="clip0">
<rect width="82" height="64" fill="white"/>
</clipPath>
</defs>
</svg>
