<svg width="908" height="509" viewBox="0 0 908 509" fill="none" xmlns="http://www.w3.org/2000/svg">
<path fill-rule="evenodd" clip-rule="evenodd" d="M908 0H675.744V13H0V41V481V509H632.697V481H867.956V468H908V322H807.333V187C847.386 187 883.351 204.629 908 232.52V0ZM70.7662 172.278C70.7662 135.121 100.887 105 138.044 105C175.2 105 205.322 135.121 205.322 172.278V173.722C205.322 210.879 175.2 241 138.044 241C100.887 241 70.7662 210.879 70.7662 173.722V172.278ZM408.294 240.357L302.002 131V347H517.291L408.294 240.357Z" fill="#EB935F"/>
<path d="M308.946 164.48L308.392 165.874L308.399 165.877L308.946 164.48ZM300.146 158.32L298.949 159.224L298.953 159.23L298.958 159.236L300.146 158.32ZM297.026 149.76H295.526V149.786L295.527 149.812L297.026 149.76ZM297.506 148.56L298.567 149.621L297.506 148.56ZM315.746 148.32L315.075 149.662L315.17 149.709L315.272 149.743L315.746 148.32ZM317.426 149.36L316.466 150.512L316.48 150.524L316.494 150.535L317.426 149.36ZM327.666 150.64L328.161 152.056L328.181 152.049L328.2 152.042L327.666 150.64ZM327.186 146.8L326.665 148.207L326.688 148.215L326.712 148.223L327.186 146.8ZM319.026 145.2L319.224 143.713L319.222 143.713L319.026 145.2ZM301.426 118.08L300.218 117.191L300.215 117.195L301.426 118.08ZM310.066 111.52L309.485 110.137L310.066 111.52ZM335.986 111.76L335.37 113.128L335.986 111.76ZM344.706 118.24L343.521 119.159L343.525 119.165L343.53 119.171L344.706 118.24ZM347.906 125.76H349.406V125.727L349.405 125.695L347.906 125.76ZM347.346 127.04L346.285 125.979V125.979L347.346 127.04ZM328.466 127.28L327.795 128.622L327.866 128.657L327.939 128.684L328.466 127.28ZM327.026 126.24L328.029 125.125L328.016 125.113L328.002 125.101L327.026 126.24ZM320.786 129.04L320.188 130.416L320.198 130.42L320.209 130.425L320.786 129.04ZM327.826 130.48L328.019 128.992L328.012 128.992L327.826 130.48ZM340.626 133.6L340.03 134.976L340.038 134.98L340.626 133.6ZM347.666 139.2L346.387 139.985L346.398 140.002L346.409 140.019L347.666 139.2ZM346.466 157.92L347.631 158.865L347.639 158.854L346.466 157.92ZM336.946 164.48L336.411 163.079L336.405 163.081L336.946 164.48ZM323.346 165.3C317.821 165.3 313.218 164.543 309.493 163.083L308.399 165.877C312.567 167.51 317.564 168.3 323.346 168.3V165.3ZM309.5 163.086C305.784 161.61 303.101 159.696 301.334 157.404L298.958 159.236C301.138 162.064 304.321 164.257 308.392 165.874L309.5 163.086ZM301.343 157.416C299.544 155.034 298.62 152.475 298.525 149.708L295.527 149.812C295.645 153.232 296.801 156.379 298.949 159.224L301.343 157.416ZM298.526 149.76C298.526 149.689 298.537 149.661 298.539 149.657C298.54 149.654 298.541 149.651 298.544 149.647C298.547 149.643 298.553 149.634 298.567 149.621L296.445 147.499C295.826 148.119 295.526 148.909 295.526 149.76H298.526ZM298.567 149.621C298.69 149.498 298.745 149.5 298.786 149.5V146.5C297.866 146.5 297.069 146.876 296.445 147.499L298.567 149.621ZM298.786 149.5H313.986V146.5H298.786V149.5ZM313.986 149.5C314.618 149.5 314.942 149.595 315.075 149.662L316.417 146.978C315.697 146.618 314.847 146.5 313.986 146.5V149.5ZM315.272 149.743C315.496 149.818 315.889 150.031 316.466 150.512L318.386 148.208C317.683 147.622 316.956 147.142 316.22 146.897L315.272 149.743ZM316.494 150.535C318.359 152.015 320.683 152.7 323.346 152.7V149.7C321.209 149.7 319.586 149.159 318.358 148.185L316.494 150.535ZM323.346 152.7C325.239 152.7 326.869 152.508 328.161 152.056L327.17 149.224C326.33 149.518 325.08 149.7 323.346 149.7V152.7ZM328.2 152.042C329.436 151.571 330.846 150.657 330.846 148.96H327.846C327.846 148.925 327.854 148.881 327.871 148.843C327.887 148.809 327.895 148.809 327.865 148.839C327.792 148.913 327.586 149.065 327.132 149.238L328.2 152.042ZM330.846 148.96C330.846 147.004 329.296 145.922 327.66 145.377L326.712 148.223C327.31 148.423 327.611 148.626 327.745 148.761C327.843 148.858 327.846 148.904 327.846 148.96H330.846ZM327.707 145.393C326.089 144.794 323.212 144.245 319.224 143.713L318.828 146.687C322.84 147.222 325.402 147.739 326.665 148.207L327.707 145.393ZM319.222 143.713C312.487 142.825 307.65 140.969 304.519 138.299C301.448 135.68 299.886 132.169 299.886 127.6H296.886C296.886 132.951 298.763 137.333 302.573 140.581C306.321 143.778 311.805 145.761 318.83 146.687L319.222 143.713ZM299.886 127.6C299.886 124.331 300.806 121.471 302.637 118.965L300.215 117.195C297.993 120.236 296.886 123.722 296.886 127.6H299.886ZM302.634 118.969C304.532 116.389 307.182 114.359 310.647 112.903L309.485 110.137C305.59 111.774 302.479 114.117 300.218 117.191L302.634 118.969ZM310.647 112.903C314.11 111.447 318.146 110.7 322.786 110.7V107.7C317.826 107.7 313.382 108.499 309.485 110.137L310.647 112.903ZM322.786 110.7C327.63 110.7 331.812 111.524 335.37 113.128L336.602 110.392C332.586 108.582 327.969 107.7 322.786 107.7V110.7ZM335.37 113.128C338.989 114.759 341.678 116.783 343.521 119.159L345.891 117.321C343.681 114.47 340.556 112.175 336.602 110.392L335.37 113.128ZM343.53 119.171C345.425 121.564 346.318 123.777 346.407 125.825L349.405 125.695C349.28 122.837 348.041 120.036 345.882 117.309L343.53 119.171ZM346.406 125.76C346.406 125.801 346.408 125.856 346.285 125.979L348.407 128.101C349.03 127.477 349.406 126.679 349.406 125.76H346.406ZM346.285 125.979C346.264 126 346.25 126.012 346.242 126.017C346.235 126.022 346.233 126.022 346.235 126.021C346.238 126.02 346.24 126.019 346.242 126.019C346.243 126.019 346.238 126.02 346.226 126.02V129.02C347.076 129.02 347.824 128.683 348.407 128.101L346.285 125.979ZM346.226 126.02H330.226V129.02H346.226V126.02ZM330.226 126.02C329.559 126.02 329.178 125.945 328.993 125.876L327.939 128.684C328.608 128.935 329.399 129.02 330.226 129.02V126.02ZM329.137 125.938C328.875 125.807 328.508 125.555 328.029 125.125L326.022 127.355C326.611 127.885 327.204 128.326 327.795 128.622L329.137 125.938ZM328.002 125.101C326.568 123.872 324.791 123.3 322.786 123.3V126.3C324.194 126.3 325.244 126.688 326.05 127.379L328.002 125.101ZM322.786 123.3C321.409 123.3 320.131 123.492 319.15 124.064C318.045 124.709 317.446 125.765 317.446 127.04H320.446C320.446 126.886 320.477 126.824 320.488 126.804C320.499 126.785 320.535 126.73 320.662 126.656C320.961 126.481 321.603 126.3 322.786 126.3V123.3ZM317.446 127.04C317.446 128.778 318.815 129.819 320.188 130.416L321.384 127.664C320.879 127.445 320.624 127.248 320.51 127.124C320.458 127.068 320.446 127.038 320.445 127.036C320.444 127.035 320.445 127.036 320.446 127.04C320.446 127.043 320.446 127.044 320.446 127.04H317.446ZM320.209 130.425C321.699 131.045 324.232 131.542 327.64 131.968L328.012 128.992C324.593 128.564 322.433 128.101 321.363 127.655L320.209 130.425ZM327.633 131.967C332.894 132.651 337.008 133.667 340.03 134.976L341.222 132.224C337.844 130.76 333.425 129.695 328.019 128.993L327.633 131.967ZM340.038 134.98C343.086 136.279 345.151 137.97 346.387 139.985L348.944 138.415C347.301 135.737 344.672 133.694 341.214 132.22L340.038 134.98ZM346.409 140.019C347.704 142.007 348.406 144.608 348.406 147.92H351.406C351.406 144.192 350.615 140.979 348.923 138.381L346.409 140.019ZM348.406 147.92C348.406 151.378 347.368 154.379 345.293 156.986L347.639 158.854C350.151 155.701 351.406 152.036 351.406 147.92H348.406ZM345.301 156.975C343.203 159.561 340.265 161.608 336.411 163.079L337.481 165.881C341.733 164.259 345.142 161.933 347.631 158.865L345.301 156.975ZM336.405 163.081C332.606 164.55 328.26 165.3 323.346 165.3V168.3C328.565 168.3 333.286 167.503 337.487 165.879L336.405 163.081ZM365.927 161.28L365.008 162.465L365.927 161.28ZM358.327 145.2L356.828 145.256L356.829 145.268L358.327 145.2ZM358.327 131.12L359.826 131.174L359.826 131.172L358.327 131.12ZM361.927 119.28L360.695 118.425L360.69 118.432L360.685 118.439L361.927 119.28ZM371.287 111.76L371.883 113.137L371.287 111.76ZM398.807 111.76L399.403 110.383L398.807 111.76ZM408.087 119.28L406.845 120.121L406.85 120.128L406.855 120.135L408.087 119.28ZM411.767 131.12L410.268 131.172L410.268 131.174L411.767 131.12ZM411.767 145.2L413.266 145.268L413.266 145.256L411.767 145.2ZM404.167 161.28L403.248 160.095H403.248L404.167 161.28ZM389.287 149.6L388.227 148.539L388.213 148.553L388.2 148.567L389.287 149.6ZM390.967 144.72L389.468 144.668L389.468 144.676L389.468 144.683L390.967 144.72ZM390.967 131.28L389.468 131.317L389.468 131.326L389.468 131.336L390.967 131.28ZM389.287 126.4L388.227 127.461L389.287 126.4ZM380.807 126.4L381.868 127.461L380.807 126.4ZM379.127 131.28L380.626 131.336L380.627 131.326L380.627 131.317L379.127 131.28ZM379.127 144.72L380.627 144.683L380.627 144.676L380.626 144.668L379.127 144.72ZM380.727 149.6L379.64 150.633L379.653 150.647L379.667 150.661L380.727 149.6ZM385.047 165.3C377.27 165.3 371.254 163.512 366.846 160.095L365.008 162.465C370.093 166.408 376.825 168.3 385.047 168.3V165.3ZM366.846 160.095C362.509 156.732 360.129 151.817 359.826 145.132L356.829 145.268C357.165 152.663 359.852 158.468 365.008 162.465L366.846 160.095ZM359.826 145.144C359.774 143.734 359.747 141.438 359.747 138.24H356.747C356.747 141.442 356.774 143.786 356.828 145.256L359.826 145.144ZM359.747 138.24C359.747 134.989 359.774 132.638 359.826 131.174L356.828 131.066C356.774 132.588 356.747 134.984 356.747 138.24H359.747ZM359.826 131.172C359.978 126.825 361.11 123.161 363.169 120.121L360.685 118.439C358.265 122.012 356.996 126.242 356.828 131.068L359.826 131.172ZM363.16 120.135C365.283 117.074 368.174 114.74 371.883 113.137L370.692 110.383C366.507 112.193 363.159 114.873 360.695 118.425L363.16 120.135ZM371.883 113.137C375.605 111.527 379.982 110.7 385.047 110.7V107.7C379.659 107.7 374.862 108.58 370.692 110.383L371.883 113.137ZM385.047 110.7C390.112 110.7 394.489 111.527 398.212 113.137L399.403 110.383C395.232 108.58 390.436 107.7 385.047 107.7V110.7ZM398.212 113.137C401.917 114.739 404.778 117.069 406.845 120.121L409.329 118.439C406.917 114.877 403.59 112.194 399.403 110.383L398.212 113.137ZM406.855 120.135C408.962 123.173 410.117 126.832 410.268 131.172L413.266 131.068C413.098 126.235 411.799 122 409.32 118.425L406.855 120.135ZM410.268 131.174C410.375 134.153 410.427 136.506 410.427 138.24H413.427C413.427 136.454 413.373 134.061 413.266 131.066L410.268 131.174ZM410.427 138.24C410.427 139.974 410.375 142.273 410.268 145.144L413.266 145.256C413.373 142.367 413.427 140.026 413.427 138.24H410.427ZM410.269 145.132C409.965 151.817 407.586 156.732 403.248 160.095L405.086 162.465C410.242 158.468 412.93 152.663 413.266 145.268L410.269 145.132ZM403.248 160.095C398.84 163.512 392.825 165.3 385.047 165.3V168.3C393.27 168.3 400.001 166.408 405.086 162.465L403.248 160.095ZM385.047 152.7C387.169 152.7 389.015 152.065 390.375 150.633L388.2 148.567C387.533 149.269 386.552 149.7 385.047 149.7V152.7ZM390.348 150.661C391.788 149.22 392.408 147.156 392.467 144.757L389.468 144.683C389.419 146.657 388.919 147.846 388.227 148.539L390.348 150.661ZM392.466 144.772C392.573 141.676 392.627 139.388 392.627 137.92H389.627C389.627 139.332 389.575 141.577 389.468 144.668L392.466 144.772ZM392.627 137.92C392.627 136.345 392.573 134.11 392.466 131.224L389.468 131.336C389.575 134.21 389.627 136.401 389.627 137.92H392.627ZM392.467 131.243C392.408 128.844 391.788 126.78 390.348 125.339L388.227 127.461C388.919 128.154 389.419 129.343 389.468 131.317L392.467 131.243ZM390.348 125.339C388.953 123.944 387.133 123.3 385.047 123.3V126.3C386.481 126.3 387.488 126.722 388.227 127.461L390.348 125.339ZM385.047 123.3C382.961 123.3 381.141 123.944 379.747 125.339L381.868 127.461C382.606 126.722 383.613 126.3 385.047 126.3V123.3ZM379.747 125.339C378.306 126.78 377.686 128.844 377.628 131.243L380.627 131.317C380.675 129.343 381.175 128.154 381.868 127.461L379.747 125.339ZM377.628 131.224C377.574 132.694 377.547 134.93 377.547 137.92H380.547C380.547 134.937 380.574 132.746 380.626 131.336L377.628 131.224ZM377.547 137.92C377.547 140.911 377.574 143.199 377.628 144.772L380.626 144.668C380.574 143.148 380.547 140.902 380.547 137.92H377.547ZM377.628 144.757C377.686 147.138 378.27 149.191 379.64 150.633L381.815 148.567C381.158 147.875 380.675 146.675 380.627 144.683L377.628 144.757ZM379.667 150.661C381.07 152.064 382.922 152.7 385.047 152.7V149.7C383.546 149.7 382.518 149.269 381.788 148.539L379.667 150.661ZM423.782 165.36L422.722 166.421L423.782 165.36ZM423.782 110.64L422.722 109.579L423.782 110.64ZM441.382 112.16L440.071 112.888L440.084 112.912L440.098 112.936L441.382 112.16ZM452.982 131.36L451.698 132.136L452.982 134.261L454.266 132.136L452.982 131.36ZM464.582 112.16L465.866 112.936L465.88 112.912L465.893 112.888L464.582 112.16ZM464.662 165.36L463.602 166.421V166.421L464.662 165.36ZM464.022 141.92H465.522V136.589L462.742 141.138L464.022 141.92ZM458.742 150.56L460.008 151.365L460.015 151.354L460.022 151.342L458.742 150.56ZM457.462 152L456.541 150.816L456.507 150.843L456.474 150.871L457.462 152ZM448.422 152L447.434 153.129L447.467 153.157L447.501 153.184L448.422 152ZM447.222 150.56L445.942 151.342L445.949 151.354L445.957 151.365L447.222 150.56ZM441.942 141.92L443.222 141.138L440.442 136.589V141.92H441.942ZM441.302 165.36L440.242 164.299L441.302 165.36ZM425.302 164.5C425.126 164.5 424.997 164.454 424.843 164.299L422.722 166.421C423.421 167.12 424.305 167.5 425.302 167.5V164.5ZM424.843 164.299C424.689 164.145 424.642 164.016 424.642 163.84H421.642C421.642 164.837 422.023 165.722 422.722 166.421L424.843 164.299ZM424.642 163.84V112.16H421.642V163.84H424.642ZM424.642 112.16C424.642 111.984 424.689 111.855 424.843 111.701L422.722 109.579C422.023 110.278 421.642 111.163 421.642 112.16H424.642ZM424.843 111.701C424.997 111.546 425.126 111.5 425.302 111.5V108.5C424.305 108.5 423.421 108.88 422.722 109.579L424.843 111.701ZM425.302 111.5H437.942V108.5H425.302V111.5ZM437.942 111.5C438.826 111.5 439.502 111.865 440.071 112.888L442.693 111.432C441.662 109.575 440.046 108.5 437.942 108.5V111.5ZM440.098 112.936L451.698 132.136L454.266 130.584L442.666 111.384L440.098 112.936ZM454.266 132.136L465.866 112.936L463.298 111.384L451.698 130.584L454.266 132.136ZM465.893 112.888C466.462 111.865 467.139 111.5 468.022 111.5V108.5C465.919 108.5 464.302 109.575 463.271 111.432L465.893 112.888ZM468.022 111.5H480.662V108.5H468.022V111.5ZM480.662 111.5C480.839 111.5 480.967 111.546 481.122 111.701L483.243 109.579C482.544 108.88 481.659 108.5 480.662 108.5V111.5ZM481.122 111.701C481.276 111.855 481.322 111.984 481.322 112.16H484.322C484.322 111.163 483.942 110.278 483.243 109.579L481.122 111.701ZM481.322 112.16V163.84H484.322V112.16H481.322ZM481.322 163.84C481.322 164.016 481.276 164.145 481.122 164.299L483.243 166.421C483.942 165.722 484.322 164.837 484.322 163.84H481.322ZM481.122 164.299C480.967 164.454 480.839 164.5 480.662 164.5V167.5C481.659 167.5 482.544 167.12 483.243 166.421L481.122 164.299ZM480.662 164.5H466.182V167.5H480.662V164.5ZM466.182 164.5C466.006 164.5 465.877 164.454 465.723 164.299L463.602 166.421C464.301 167.12 465.185 167.5 466.182 167.5V164.5ZM465.723 164.299C465.569 164.145 465.522 164.016 465.522 163.84H462.522C462.522 164.837 462.903 165.722 463.602 166.421L465.723 164.299ZM465.522 163.84V141.92H462.522V163.84H465.522ZM462.742 141.138L457.462 149.778L460.022 151.342L465.302 142.702L462.742 141.138ZM457.477 149.755C457.183 150.217 456.868 150.562 456.541 150.816L458.383 153.184C459.017 152.691 459.555 152.077 460.008 151.365L457.477 149.755ZM456.474 150.871C456.379 150.955 456.197 151.06 455.782 151.06V154.06C456.754 154.06 457.692 153.792 458.45 153.129L456.474 150.871ZM455.782 151.06H450.182V154.06H455.782V151.06ZM450.182 151.06C449.773 151.06 449.524 150.956 449.343 150.816L447.501 153.184C448.281 153.79 449.204 154.06 450.182 154.06V151.06ZM449.41 150.871C449.112 150.61 448.801 150.247 448.488 149.755L445.957 151.365C446.39 152.046 446.879 152.643 447.434 153.129L449.41 150.871ZM448.502 149.778L443.222 141.138L440.662 142.702L445.942 151.342L448.502 149.778ZM440.442 141.92V163.84H443.442V141.92H440.442ZM440.442 163.84C440.442 164.016 440.396 164.145 440.242 164.299L442.363 166.421C443.062 165.722 443.442 164.837 443.442 163.84H440.442ZM440.242 164.299C440.087 164.454 439.959 164.5 439.782 164.5V167.5C440.779 167.5 441.664 167.12 442.363 166.421L440.242 164.299ZM439.782 164.5H425.302V167.5H439.782V164.5ZM501.818 161.28L500.899 162.465L501.818 161.28ZM494.218 145.2L492.719 145.256L492.719 145.268L494.218 145.2ZM494.218 131.12L495.717 131.174L495.717 131.172L494.218 131.12ZM497.818 119.28L496.585 118.425L496.581 118.432L496.576 118.439L497.818 119.28ZM507.178 111.76L507.773 113.137L507.178 111.76ZM534.698 111.76L535.293 110.383L534.698 111.76ZM543.978 119.28L542.736 120.121L542.741 120.128L542.745 120.135L543.978 119.28ZM547.658 131.12L546.159 131.172V131.174L547.658 131.12ZM547.658 145.2L549.156 145.268L549.157 145.256L547.658 145.2ZM540.058 161.28L539.139 160.095H539.139L540.058 161.28ZM525.178 149.6L524.117 148.539L524.104 148.553L524.09 148.567L525.178 149.6ZM526.858 144.72L525.359 144.668L525.358 144.676L525.358 144.683L526.858 144.72ZM526.858 131.28L525.358 131.317L525.358 131.326L525.359 131.336L526.858 131.28ZM525.178 126.4L524.117 127.461L525.178 126.4ZM516.698 126.4L517.758 127.461L516.698 126.4ZM515.018 131.28L516.517 131.336L516.517 131.326L516.517 131.317L515.018 131.28ZM515.018 144.72L516.517 144.683L516.517 144.676L516.517 144.668L515.018 144.72ZM516.618 149.6L515.53 150.633L515.544 150.647L515.557 150.661L516.618 149.6ZM520.938 165.3C513.16 165.3 507.145 163.512 502.737 160.095L500.899 162.465C505.984 166.408 512.715 168.3 520.938 168.3V165.3ZM502.737 160.095C498.399 156.732 496.02 151.817 495.716 145.132L492.719 145.268C493.056 152.663 495.743 158.468 500.899 162.465L502.737 160.095ZM495.717 145.144C495.665 143.734 495.638 141.438 495.638 138.24H492.638C492.638 141.442 492.664 143.786 492.719 145.256L495.717 145.144ZM495.638 138.24C495.638 134.989 495.665 132.638 495.717 131.174L492.719 131.066C492.664 132.588 492.638 134.984 492.638 138.24H495.638ZM495.717 131.172C495.869 126.825 497 123.161 499.06 120.121L496.576 118.439C494.155 122.012 492.887 126.242 492.719 131.068L495.717 131.172ZM499.05 120.135C501.173 117.074 504.065 114.74 507.773 113.137L506.582 110.383C502.397 112.193 499.049 114.873 496.585 118.425L499.05 120.135ZM507.773 113.137C511.496 111.527 515.873 110.7 520.938 110.7V107.7C515.549 107.7 510.753 108.58 506.582 110.383L507.773 113.137ZM520.938 110.7C526.003 110.7 530.38 111.527 534.102 113.137L535.293 110.383C531.123 108.58 526.326 107.7 520.938 107.7V110.7ZM534.102 113.137C537.808 114.739 540.668 117.069 542.736 120.121L545.22 118.439C542.807 114.877 539.481 112.194 535.293 110.383L534.102 113.137ZM542.745 120.135C544.852 123.173 546.007 126.832 546.159 131.172L549.157 131.068C548.988 126.235 547.69 122 545.21 118.425L542.745 120.135ZM546.159 131.174C546.265 134.153 546.318 136.506 546.318 138.24H549.318C549.318 136.454 549.264 134.061 549.157 131.066L546.159 131.174ZM546.318 138.24C546.318 139.974 546.265 142.273 546.159 145.144L549.157 145.256C549.264 142.367 549.318 140.026 549.318 138.24H546.318ZM546.159 145.132C545.856 151.817 543.476 156.732 539.139 160.095L540.977 162.465C546.133 158.468 548.82 152.663 549.156 145.268L546.159 145.132ZM539.139 160.095C534.731 163.512 528.715 165.3 520.938 165.3V168.3C529.16 168.3 535.892 166.408 540.977 162.465L539.139 160.095ZM520.938 152.7C523.06 152.7 524.905 152.065 526.265 150.633L524.09 148.567C523.424 149.269 522.442 149.7 520.938 149.7V152.7ZM526.238 150.661C527.679 149.22 528.299 147.156 528.357 144.757L525.358 144.683C525.31 146.657 524.81 147.846 524.117 148.539L526.238 150.661ZM528.357 144.772C528.464 141.676 528.518 139.388 528.518 137.92H525.518C525.518 139.332 525.465 141.577 525.359 144.668L528.357 144.772ZM528.518 137.92C528.518 136.345 528.464 134.11 528.357 131.224L525.359 131.336C525.465 134.21 525.518 136.401 525.518 137.92H528.518ZM528.357 131.243C528.299 128.844 527.679 126.78 526.238 125.339L524.117 127.461C524.81 128.154 525.31 129.343 525.358 131.317L528.357 131.243ZM526.238 125.339C524.844 123.944 523.024 123.3 520.938 123.3V126.3C522.372 126.3 523.379 126.722 524.117 127.461L526.238 125.339ZM520.938 123.3C518.852 123.3 517.032 123.944 515.637 125.339L517.758 127.461C518.497 126.722 519.504 126.3 520.938 126.3V123.3ZM515.637 125.339C514.197 126.78 513.577 128.844 513.518 131.243L516.517 131.317C516.566 129.343 517.066 128.154 517.758 127.461L515.637 125.339ZM513.519 131.224C513.464 132.694 513.438 134.93 513.438 137.92H516.438C516.438 134.937 516.465 132.746 516.517 131.336L513.519 131.224ZM513.438 137.92C513.438 140.911 513.464 143.199 513.519 144.772L516.517 144.668C516.465 143.148 516.438 140.902 516.438 137.92H513.438ZM513.518 144.757C513.576 147.138 514.161 149.191 515.53 150.633L517.705 148.567C517.048 147.875 516.566 146.675 516.517 144.683L513.518 144.757ZM515.557 150.661C516.961 152.064 518.813 152.7 520.938 152.7V149.7C519.436 149.7 518.408 149.269 517.678 148.539L515.557 150.661ZM567.993 164.48L567.439 165.874L567.445 165.877L567.993 164.48ZM559.193 158.32L557.996 159.224L558 159.23L558.005 159.236L559.193 158.32ZM556.073 149.76H554.573V149.786L554.574 149.812L556.073 149.76ZM556.553 148.56L557.613 149.621L556.553 148.56ZM574.793 148.32L574.122 149.662L574.217 149.709L574.318 149.743L574.793 148.32ZM576.473 149.36L575.513 150.512L575.526 150.524L575.541 150.535L576.473 149.36ZM586.713 150.64L587.208 152.056L587.228 152.049L587.247 152.042L586.713 150.64ZM586.233 146.8L585.712 148.207L585.735 148.215L585.758 148.223L586.233 146.8ZM578.073 145.2L578.271 143.713L578.269 143.713L578.073 145.2ZM560.473 118.08L559.265 117.191L559.262 117.195L560.473 118.08ZM569.113 111.52L568.532 110.137L569.113 111.52ZM595.033 111.76L594.416 113.128L595.033 111.76ZM603.753 118.24L602.568 119.159L602.572 119.165L602.577 119.171L603.753 118.24ZM606.953 125.76H608.453V125.727L608.451 125.695L606.953 125.76ZM606.393 127.04L605.332 125.979V125.979L606.393 127.04ZM587.513 127.28L586.842 128.622L586.912 128.657L586.986 128.684L587.513 127.28ZM586.073 126.24L587.076 125.125L587.063 125.113L587.049 125.101L586.073 126.24ZM579.833 129.04L579.235 130.416L579.245 130.42L579.256 130.425L579.833 129.04ZM586.873 130.48L587.066 128.992L587.059 128.992L586.873 130.48ZM599.673 133.6L599.076 134.976L599.085 134.98L599.673 133.6ZM606.713 139.2L605.434 139.985L605.445 140.002L605.456 140.019L606.713 139.2ZM605.513 157.92L606.678 158.865L606.686 158.854L605.513 157.92ZM595.993 164.48L595.458 163.079L595.452 163.081L595.993 164.48ZM582.393 165.3C576.868 165.3 572.265 164.543 568.54 163.083L567.445 165.877C571.614 167.51 576.611 168.3 582.393 168.3V165.3ZM568.547 163.086C564.831 161.61 562.148 159.696 560.381 157.404L558.005 159.236C560.185 162.064 563.368 164.257 567.439 165.874L568.547 163.086ZM560.39 157.416C558.591 155.034 557.667 152.475 557.572 149.708L554.574 149.812C554.692 153.232 555.848 156.379 557.996 159.224L560.39 157.416ZM557.573 149.76C557.573 149.689 557.584 149.661 557.586 149.657C557.587 149.654 557.588 149.651 557.591 149.647C557.594 149.643 557.6 149.634 557.613 149.621L555.492 147.499C554.872 148.119 554.573 148.909 554.573 149.76H557.573ZM557.613 149.621C557.736 149.498 557.792 149.5 557.833 149.5V146.5C556.913 146.5 556.116 146.876 555.492 147.499L557.613 149.621ZM557.833 149.5H573.033V146.5H557.833V149.5ZM573.033 149.5C573.665 149.5 573.989 149.595 574.122 149.662L575.464 146.978C574.744 146.618 573.894 146.5 573.033 146.5V149.5ZM574.318 149.743C574.543 149.818 574.935 150.031 575.513 150.512L577.433 148.208C576.73 147.622 576.003 147.142 575.267 146.897L574.318 149.743ZM575.541 150.535C577.406 152.015 579.73 152.7 582.393 152.7V149.7C580.256 149.7 578.633 149.159 577.405 148.185L575.541 150.535ZM582.393 152.7C584.286 152.7 585.916 152.508 587.208 152.056L586.217 149.224C585.377 149.518 584.127 149.7 582.393 149.7V152.7ZM587.247 152.042C588.483 151.571 589.893 150.657 589.893 148.96H586.893C586.893 148.925 586.901 148.881 586.918 148.843C586.934 148.809 586.942 148.809 586.912 148.839C586.838 148.913 586.633 149.065 586.179 149.238L587.247 152.042ZM589.893 148.96C589.893 147.004 588.343 145.922 586.707 145.377L585.758 148.223C586.357 148.423 586.658 148.626 586.792 148.761C586.89 148.858 586.893 148.904 586.893 148.96H589.893ZM586.754 145.393C585.136 144.794 582.259 144.245 578.271 143.713L577.875 146.687C581.886 147.222 584.449 147.739 585.712 148.207L586.754 145.393ZM578.269 143.713C571.533 142.825 566.697 140.969 563.566 138.299C560.495 135.68 558.933 132.169 558.933 127.6H555.933C555.933 132.951 557.81 137.333 561.62 140.581C565.368 143.778 570.852 145.761 577.877 146.687L578.269 143.713ZM558.933 127.6C558.933 124.331 559.853 121.471 561.684 118.965L559.262 117.195C557.039 120.236 555.933 123.722 555.933 127.6H558.933ZM561.681 118.969C563.579 116.389 566.229 114.359 569.694 112.903L568.532 110.137C564.637 111.774 561.526 114.117 559.265 117.191L561.681 118.969ZM569.694 112.903C573.157 111.447 577.193 110.7 581.833 110.7V107.7C576.873 107.7 572.429 108.499 568.532 110.137L569.694 112.903ZM581.833 110.7C586.677 110.7 590.859 111.524 594.416 113.128L595.649 110.392C591.633 108.582 587.016 107.7 581.833 107.7V110.7ZM594.416 113.128C598.036 114.759 600.725 116.783 602.568 119.159L604.938 117.321C602.728 114.47 599.603 112.175 595.649 110.392L594.416 113.128ZM602.577 119.171C604.471 121.564 605.365 123.777 605.454 125.825L608.451 125.695C608.327 122.837 607.088 120.036 604.929 117.309L602.577 119.171ZM605.453 125.76C605.453 125.801 605.455 125.856 605.332 125.979L607.453 128.101C608.077 127.477 608.453 126.679 608.453 125.76H605.453ZM605.332 125.979C605.311 126 605.297 126.012 605.289 126.017C605.282 126.022 605.28 126.022 605.282 126.021C605.284 126.02 605.287 126.019 605.289 126.019C605.29 126.019 605.285 126.02 605.273 126.02V129.02C606.123 129.02 606.871 128.683 607.453 128.101L605.332 125.979ZM605.273 126.02H589.273V129.02H605.273V126.02ZM589.273 126.02C588.606 126.02 588.224 125.945 588.039 125.876L586.986 128.684C587.655 128.935 588.446 129.02 589.273 129.02V126.02ZM588.184 125.938C587.922 125.807 587.554 125.555 587.076 125.125L585.069 127.355C585.658 127.885 586.251 128.326 586.842 128.622L588.184 125.938ZM587.049 125.101C585.615 123.872 583.838 123.3 581.833 123.3V126.3C583.241 126.3 584.29 126.688 585.097 127.379L587.049 125.101ZM581.833 123.3C580.456 123.3 579.178 123.492 578.197 124.064C577.092 124.709 576.493 125.765 576.493 127.04H579.493C579.493 126.886 579.524 126.824 579.535 126.804C579.546 126.785 579.582 126.73 579.709 126.656C580.008 126.481 580.65 126.3 581.833 126.3V123.3ZM576.493 127.04C576.493 128.778 577.862 129.819 579.235 130.416L580.431 127.664C579.926 127.445 579.671 127.248 579.557 127.124C579.505 127.068 579.492 127.038 579.492 127.036C579.491 127.035 579.492 127.036 579.492 127.04C579.493 127.043 579.493 127.044 579.493 127.04H576.493ZM579.256 130.425C580.746 131.045 583.279 131.542 586.687 131.968L587.059 128.992C583.64 128.564 581.48 128.101 580.41 127.655L579.256 130.425ZM586.679 131.967C591.94 132.651 596.055 133.667 599.076 134.976L600.269 132.224C596.891 130.76 592.472 129.695 587.066 128.993L586.679 131.967ZM599.085 134.98C602.133 136.279 604.198 137.97 605.434 139.985L607.991 138.415C606.348 135.737 603.719 133.694 600.261 132.22L599.085 134.98ZM605.456 140.019C606.751 142.007 607.453 144.608 607.453 147.92H610.453C610.453 144.192 609.661 140.979 607.97 138.381L605.456 140.019ZM607.453 147.92C607.453 151.378 606.415 154.379 604.339 156.986L606.686 158.854C609.197 155.701 610.453 152.036 610.453 147.92H607.453ZM604.348 156.975C602.25 159.561 599.312 161.608 595.458 163.079L596.528 165.881C600.78 164.259 604.189 161.933 606.678 158.865L604.348 156.975ZM595.452 163.081C591.653 164.55 587.307 165.3 582.393 165.3V168.3C587.612 168.3 592.333 167.503 596.534 165.879L595.452 163.081ZM81.3937 215.2H82.8937V213.7H81.3937V215.2ZM116.514 198.64L117.574 197.579L116.514 198.64ZM116.514 214.56L117.574 215.621V215.621L116.514 214.56ZM101.714 215.2V213.7H100.214V215.2H101.714ZM101.074 253.36L102.134 254.421L101.074 253.36ZM83.5538 252.5C83.3774 252.5 83.2487 252.454 83.0944 252.299L80.9731 254.421C81.6721 255.12 82.5567 255.5 83.5538 255.5V252.5ZM83.0944 252.299C82.9401 252.145 82.8937 252.016 82.8937 251.84H79.8937C79.8937 252.837 80.2741 253.722 80.9731 254.421L83.0944 252.299ZM82.8937 251.84V215.2H79.8937V251.84H82.8937ZM81.3937 213.7H68.1138V216.7H81.3937V213.7ZM68.1138 213.7C67.9374 213.7 67.8088 213.654 67.6544 213.499L65.5331 215.621C66.2321 216.32 67.1167 216.7 68.1138 216.7V213.7ZM67.6544 213.499C67.5001 213.345 67.4538 213.216 67.4538 213.04H64.4538C64.4538 214.037 64.8341 214.922 65.5331 215.621L67.6544 213.499ZM67.4538 213.04V200.16H64.4538V213.04H67.4538ZM67.4538 200.16C67.4538 199.984 67.5001 199.855 67.6544 199.701L65.5331 197.579C64.8341 198.278 64.4538 199.163 64.4538 200.16H67.4538ZM67.6544 199.701C67.8088 199.546 67.9374 199.5 68.1138 199.5V196.5C67.1167 196.5 66.2321 196.88 65.5331 197.579L67.6544 199.701ZM68.1138 199.5H114.994V196.5H68.1138V199.5ZM114.994 199.5C115.17 199.5 115.299 199.546 115.453 199.701L117.574 197.579C116.875 196.88 115.991 196.5 114.994 196.5V199.5ZM115.453 199.701C115.607 199.855 115.654 199.984 115.654 200.16H118.654C118.654 199.163 118.273 198.278 117.574 197.579L115.453 199.701ZM115.654 200.16V213.04H118.654V200.16H115.654ZM115.654 213.04C115.654 213.216 115.607 213.345 115.453 213.499L117.574 215.621C118.273 214.922 118.654 214.037 118.654 213.04H115.654ZM115.453 213.499C115.299 213.654 115.17 213.7 114.994 213.7V216.7C115.991 216.7 116.875 216.32 117.574 215.621L115.453 213.499ZM114.994 213.7H101.714V216.7H114.994V213.7ZM100.214 215.2V251.84H103.214V215.2H100.214ZM100.214 251.84C100.214 252.016 100.167 252.145 100.013 252.299L102.134 254.421C102.833 253.722 103.214 252.837 103.214 251.84H100.214ZM100.013 252.299C99.8588 252.454 99.7301 252.5 99.5537 252.5V255.5C100.551 255.5 101.435 255.12 102.134 254.421L100.013 252.299ZM99.5537 252.5H83.5538V255.5H99.5537V252.5ZM127.54 253.36L126.479 254.421L127.54 253.36ZM127.54 198.64L126.479 197.579L127.54 198.64ZM170.74 203.2L169.801 204.37L169.81 204.377L170.74 203.2ZM174.9 226.64L176.191 227.404L176.198 227.393L174.9 226.64ZM168.58 233.12L167.771 231.857L166.599 232.607L167.26 233.832L168.58 233.12ZM178.42 251.36L179.762 250.689L179.751 250.668L179.74 250.648L178.42 251.36ZM178.1 253.52L179.161 254.581L178.1 253.52ZM158.18 253.36L157.177 254.475L157.235 254.527L157.298 254.573L158.18 253.36ZM157.06 251.84L158.453 251.283L158.441 251.253L158.428 251.224L157.06 251.84ZM150.18 236.56L151.548 235.944L151.15 235.06H150.18V236.56ZM146.9 236.56V235.06H145.4V236.56H146.9ZM146.26 253.36L147.321 254.421L146.26 253.36ZM155.46 220.24L156.599 221.216L156.615 221.197L156.631 221.177L155.46 220.24ZM155.46 214.24L154.201 215.055L154.229 215.098L154.26 215.14L155.46 214.24ZM146.9 212.88V211.38H145.4V212.88H146.9ZM146.9 221.36H145.4V222.86H146.9V221.36ZM129.06 252.5C128.884 252.5 128.755 252.454 128.601 252.299L126.479 254.421C127.178 255.12 128.063 255.5 129.06 255.5V252.5ZM128.601 252.299C128.446 252.145 128.4 252.016 128.4 251.84H125.4C125.4 252.837 125.78 253.722 126.479 254.421L128.601 252.299ZM128.4 251.84V200.16H125.4V251.84H128.4ZM128.4 200.16C128.4 199.984 128.446 199.855 128.601 199.701L126.479 197.579C125.78 198.278 125.4 199.163 125.4 200.16H128.4ZM128.601 199.701C128.755 199.546 128.884 199.5 129.06 199.5V196.5C128.063 196.5 127.178 196.88 126.479 197.579L128.601 199.701ZM129.06 199.5H152.74V196.5H129.06V199.5ZM152.74 199.5C160.209 199.5 165.834 201.186 169.801 204.37L171.679 202.03C167.006 198.28 160.631 196.5 152.74 196.5V199.5ZM169.81 204.377C173.729 207.474 175.72 211.764 175.72 217.44H178.72C178.72 210.956 176.391 205.753 171.67 202.023L169.81 204.377ZM175.72 217.44C175.72 220.676 175.001 223.477 173.602 225.887L176.198 227.393C177.893 224.47 178.72 221.137 178.72 217.44H175.72ZM173.609 225.876C172.187 228.279 170.249 230.271 167.771 231.857L169.389 234.383C172.244 232.556 174.52 230.228 176.191 227.404L173.609 225.876ZM167.26 233.832L177.1 252.072L179.74 250.648L169.9 232.408L167.26 233.832ZM177.078 252.031C177.168 252.21 177.16 252.272 177.16 252.24H180.16C180.16 251.675 179.992 251.15 179.762 250.689L177.078 252.031ZM177.16 252.24C177.16 252.281 177.162 252.336 177.039 252.459L179.161 254.581C179.784 253.957 180.16 253.159 180.16 252.24H177.16ZM177.039 252.459C177.026 252.473 177.017 252.479 177.013 252.482C177.009 252.485 177.006 252.486 177.003 252.487C176.999 252.489 176.971 252.5 176.9 252.5V255.5C177.751 255.5 178.541 255.2 179.161 254.581L177.039 252.459ZM176.9 252.5H160.5V255.5H176.9V252.5ZM160.5 252.5C159.755 252.5 159.321 252.335 159.062 252.147L157.298 254.573C158.212 255.238 159.325 255.5 160.5 255.5V252.5ZM159.183 252.245C158.779 251.881 158.562 251.557 158.453 251.283L155.667 252.397C155.985 253.19 156.514 253.879 157.177 254.475L159.183 252.245ZM158.428 251.224L151.548 235.944L148.812 237.176L155.692 252.456L158.428 251.224ZM150.18 235.06H146.9V238.06H150.18V235.06ZM145.4 236.56V251.84H148.4V236.56H145.4ZM145.4 251.84C145.4 252.016 145.354 252.145 145.199 252.299L147.321 254.421C148.02 253.722 148.4 252.837 148.4 251.84H145.4ZM145.199 252.299C145.045 252.454 144.916 252.5 144.74 252.5V255.5C145.737 255.5 146.622 255.12 147.321 254.421L145.199 252.299ZM144.74 252.5H129.06V255.5H144.74V252.5ZM152.74 222.86C154.258 222.86 155.618 222.36 156.599 221.216L154.321 219.264C154.022 219.613 153.568 219.86 152.74 219.86V222.86ZM156.631 221.177C157.514 220.073 157.92 218.742 157.92 217.28H154.92C154.92 218.165 154.686 218.807 154.289 219.303L156.631 221.177ZM157.92 217.28C157.92 215.816 157.514 214.479 156.66 213.34L154.26 215.14C154.686 215.708 154.92 216.397 154.92 217.28H157.92ZM156.719 213.425C155.815 212.027 154.394 211.38 152.74 211.38V214.38C153.539 214.38 153.932 214.639 154.201 215.055L156.719 213.425ZM152.74 211.38H146.9V214.38H152.74V211.38ZM145.4 212.88V221.36H148.4V212.88H145.4ZM146.9 222.86H152.74V219.86H146.9V222.86ZM184.714 253.52L183.575 254.496L183.651 254.584L183.738 254.659L184.714 253.52ZM184.314 251.68L182.898 251.185L182.895 251.195L182.891 251.206L184.314 251.68ZM202.154 200.64L203.57 201.135L203.58 201.108L203.588 201.081L202.154 200.64ZM203.354 198.8L202.345 197.69L203.354 198.8ZM225.514 198.8L226.523 197.69L225.514 198.8ZM226.714 200.64L225.281 201.081L225.289 201.108L225.298 201.135L226.714 200.64ZM244.554 251.68L245.977 251.206L245.974 251.195L245.97 251.185L244.554 251.68ZM244.074 253.52L243.014 252.459L244.074 253.52ZM224.954 252L226.366 251.492L226.364 251.487L224.954 252ZM223.034 246.72L224.444 246.207L224.085 245.22H223.034V246.72ZM205.834 246.72V245.22H204.784L204.425 246.207L205.834 246.72ZM203.914 252L202.505 251.487L202.503 251.492L203.914 252ZM218.954 231.12V232.62H220.983L220.389 230.68L218.954 231.12ZM214.394 216.24L215.829 215.8L214.382 211.079L212.958 215.808L214.394 216.24ZM209.914 231.12L208.478 230.688L207.896 232.62H209.914V231.12ZM185.994 252.5C185.882 252.5 185.799 252.474 185.691 252.381L183.738 254.659C184.376 255.206 185.147 255.5 185.994 255.5V252.5ZM185.853 252.544C185.76 252.435 185.734 252.352 185.734 252.24H182.734C182.734 253.088 183.029 253.858 183.575 254.496L185.853 252.544ZM185.734 252.24C185.734 252.195 185.737 252.167 185.739 252.152C185.741 252.138 185.742 252.14 185.737 252.154L182.891 251.206C182.776 251.553 182.734 251.906 182.734 252.24H185.734ZM185.73 252.175L203.57 201.135L200.738 200.145L182.898 251.185L185.73 252.175ZM203.588 201.081C203.715 200.668 203.957 200.28 204.363 199.91L202.345 197.69C201.579 198.387 201.02 199.225 200.721 200.199L203.588 201.081ZM204.363 199.91C204.604 199.691 205.007 199.5 205.754 199.5V196.5C204.475 196.5 203.278 196.842 202.345 197.69L204.363 199.91ZM205.754 199.5H223.114V196.5H205.754V199.5ZM223.114 199.5C223.862 199.5 224.265 199.691 224.505 199.91L226.523 197.69C225.59 196.842 224.394 196.5 223.114 196.5V199.5ZM224.505 199.91C224.912 200.28 225.154 200.668 225.281 201.081L228.148 200.199C227.848 199.225 227.29 198.387 226.523 197.69L224.505 199.91ZM225.298 201.135L243.138 252.175L245.97 251.185L228.13 200.145L225.298 201.135ZM243.131 252.154C243.126 252.14 243.127 252.138 243.129 252.152C243.132 252.167 243.134 252.195 243.134 252.24H246.134C246.134 251.906 246.093 251.553 245.977 251.206L243.131 252.154ZM243.134 252.24C243.134 252.281 243.137 252.336 243.014 252.459L245.135 254.581C245.759 253.957 246.134 253.159 246.134 252.24H243.134ZM243.014 252.459C243 252.473 242.991 252.479 242.987 252.482C242.983 252.485 242.98 252.486 242.977 252.487C242.974 252.489 242.945 252.5 242.874 252.5V255.5C243.725 255.5 244.515 255.2 245.135 254.581L243.014 252.459ZM242.874 252.5H228.074V255.5H242.874V252.5ZM228.074 252.5C227.478 252.5 227.12 252.376 226.904 252.237C226.702 252.108 226.511 251.895 226.366 251.492L223.543 252.508C223.878 253.438 224.447 254.225 225.285 254.763C226.108 255.291 227.071 255.5 228.074 255.5V252.5ZM226.364 251.487L224.444 246.207L221.625 247.233L223.545 252.513L226.364 251.487ZM223.034 245.22H205.834V248.22H223.034V245.22ZM204.425 246.207L202.505 251.487L205.324 252.513L207.244 247.233L204.425 246.207ZM202.503 251.492C202.358 251.895 202.167 252.108 201.965 252.237C201.748 252.376 201.391 252.5 200.794 252.5V255.5C201.798 255.5 202.76 255.291 203.584 254.763C204.422 254.225 204.991 253.438 205.326 252.508L202.503 251.492ZM200.794 252.5H185.994V255.5H200.794V252.5ZM220.389 230.68L215.829 215.8L212.96 216.679L217.52 231.56L220.389 230.68ZM212.958 215.808L208.478 230.688L211.351 231.552L215.831 216.672L212.958 215.808ZM209.914 232.62H218.954V229.62H209.914V232.62ZM253.665 253.36L252.604 254.421L253.665 253.36ZM253.665 198.64L252.604 197.579L253.665 198.64ZM271.105 199.84L269.799 200.578L269.811 200.6L269.825 200.621L271.105 199.84ZM284.625 222L283.345 222.781L286.125 227.339V222H284.625ZM285.265 198.64L286.326 199.701V199.701L285.265 198.64ZM286.545 253.44L287.466 252.256L286.545 253.44ZM285.345 252.16L284.095 252.989L284.097 252.992L285.345 252.16ZM271.825 231.76L273.075 230.931L270.325 226.781V231.76H271.825ZM271.185 253.36L270.124 252.299V252.299L271.185 253.36ZM255.185 252.5C255.009 252.5 254.88 252.454 254.726 252.299L252.604 254.421C253.303 255.12 254.188 255.5 255.185 255.5V252.5ZM254.726 252.299C254.571 252.145 254.525 252.016 254.525 251.84H251.525C251.525 252.837 251.905 253.722 252.604 254.421L254.726 252.299ZM254.525 251.84V200.16H251.525V251.84H254.525ZM254.525 200.16C254.525 199.984 254.571 199.855 254.726 199.701L252.604 197.579C251.905 198.278 251.525 199.163 251.525 200.16H254.525ZM254.726 199.701C254.88 199.546 255.009 199.5 255.185 199.5V196.5C254.188 196.5 253.303 196.88 252.604 197.579L254.726 199.701ZM255.185 199.5H267.825V196.5H255.185V199.5ZM267.825 199.5C268.817 199.5 269.391 199.856 269.799 200.578L272.411 199.102C271.432 197.371 269.819 196.5 267.825 196.5V199.5ZM269.825 200.621L283.345 222.781L285.906 221.219L272.385 199.059L269.825 200.621ZM286.125 222V200.16H283.125V222H286.125ZM286.125 200.16C286.125 199.984 286.171 199.855 286.326 199.701L284.204 197.579C283.505 198.278 283.125 199.163 283.125 200.16H286.125ZM286.326 199.701C286.48 199.546 286.609 199.5 286.785 199.5V196.5C285.788 196.5 284.903 196.88 284.204 197.579L286.326 199.701ZM286.785 199.5H301.265V196.5H286.785V199.5ZM301.265 199.5C301.441 199.5 301.57 199.546 301.724 199.701L303.846 197.579C303.147 196.88 302.262 196.5 301.265 196.5V199.5ZM301.724 199.701C301.879 199.855 301.925 199.984 301.925 200.16H304.925C304.925 199.163 304.545 198.278 303.846 197.579L301.724 199.701ZM301.925 200.16V251.84H304.925V200.16H301.925ZM301.925 251.84C301.925 252.016 301.879 252.145 301.724 252.299L303.846 254.421C304.545 253.722 304.925 252.837 304.925 251.84H301.925ZM301.724 252.299C301.57 252.454 301.441 252.5 301.265 252.5V255.5C302.262 255.5 303.147 255.12 303.846 254.421L301.724 252.299ZM301.265 252.5H288.625V255.5H301.265V252.5ZM288.625 252.5C287.895 252.5 287.581 252.346 287.466 252.256L285.624 254.624C286.469 255.281 287.541 255.5 288.625 255.5V252.5ZM287.466 252.256C287.106 251.976 286.819 251.667 286.593 251.328L284.097 252.992C284.511 253.613 285.024 254.157 285.624 254.624L287.466 252.256ZM286.595 251.331L273.075 230.931L270.575 232.589L284.095 252.989L286.595 251.331ZM270.325 231.76V251.84H273.325V231.76H270.325ZM270.325 251.84C270.325 252.016 270.279 252.145 270.124 252.299L272.246 254.421C272.945 253.722 273.325 252.837 273.325 251.84H270.325ZM270.124 252.299C269.97 252.454 269.841 252.5 269.665 252.5V255.5C270.662 255.5 271.547 255.12 272.246 254.421L270.124 252.299ZM269.665 252.5H255.185V255.5H269.665V252.5ZM325.204 252.48L324.65 253.874L324.656 253.877L325.204 252.48ZM316.404 246.32L315.207 247.224L315.211 247.23L315.216 247.236L316.404 246.32ZM313.284 237.76H311.784V237.786L311.785 237.812L313.284 237.76ZM313.764 236.56L314.824 237.621L313.764 236.56ZM332.004 236.32L331.333 237.662L331.428 237.709L331.529 237.743L332.004 236.32ZM333.684 237.36L332.723 238.512L332.737 238.524L332.752 238.535L333.684 237.36ZM343.924 238.64L344.419 240.056L344.439 240.049L344.458 240.042L343.924 238.64ZM343.444 234.8L342.923 236.207L342.946 236.215L342.969 236.223L343.444 234.8ZM335.284 233.2L335.482 231.713L335.48 231.713L335.284 233.2ZM317.684 206.08L316.476 205.191L316.473 205.195L317.684 206.08ZM326.324 199.52L325.743 198.137L326.324 199.52ZM352.244 199.76L351.627 201.128L352.244 199.76ZM360.964 206.24L359.778 207.159L359.783 207.165L359.788 207.171L360.964 206.24ZM364.164 213.76H365.664V213.727L365.662 213.695L364.164 213.76ZM363.604 215.04L362.543 213.979L363.604 215.04ZM344.724 215.28L344.053 216.622L344.123 216.657L344.197 216.684L344.724 215.28ZM343.284 214.24L344.287 213.125L344.274 213.113L344.26 213.101L343.284 214.24ZM337.044 217.04L336.446 218.416L336.456 218.42L336.467 218.425L337.044 217.04ZM344.084 218.48L344.277 216.992L344.27 216.992L344.084 218.48ZM356.884 221.6L356.287 222.976L356.296 222.98L356.884 221.6ZM363.924 227.2L362.645 227.985L362.656 228.002L362.667 228.019L363.924 227.2ZM362.724 245.92L363.889 246.865L363.897 246.854L362.724 245.92ZM353.204 252.48L352.669 251.079L352.663 251.081L353.204 252.48ZM339.604 253.3C334.079 253.3 329.476 252.543 325.751 251.083L324.656 253.877C328.825 255.51 333.822 256.3 339.604 256.3V253.3ZM325.758 251.086C322.042 249.61 319.359 247.696 317.592 245.404L315.216 247.236C317.396 250.064 320.579 252.257 324.65 253.874L325.758 251.086ZM317.601 245.416C315.802 243.034 314.878 240.475 314.783 237.708L311.785 237.812C311.903 241.232 313.059 244.379 315.207 247.224L317.601 245.416ZM314.784 237.76C314.784 237.689 314.795 237.661 314.796 237.657C314.798 237.654 314.799 237.651 314.802 237.647C314.805 237.643 314.811 237.634 314.824 237.621L312.703 235.499C312.083 236.119 311.784 236.909 311.784 237.76H314.784ZM314.824 237.621C314.947 237.498 315.003 237.5 315.044 237.5V234.5C314.124 234.5 313.327 234.876 312.703 235.499L314.824 237.621ZM315.044 237.5H330.244V234.5H315.044V237.5ZM330.244 237.5C330.876 237.5 331.2 237.595 331.333 237.662L332.675 234.978C331.955 234.618 331.105 234.5 330.244 234.5V237.5ZM331.529 237.743C331.754 237.818 332.146 238.031 332.723 238.512L334.644 236.208C333.941 235.622 333.214 235.142 332.478 234.897L331.529 237.743ZM332.752 238.535C334.617 240.015 336.941 240.7 339.604 240.7V237.7C337.467 237.7 335.844 237.159 334.616 236.185L332.752 238.535ZM339.604 240.7C341.497 240.7 343.127 240.508 344.419 240.056L343.428 237.224C342.588 237.518 341.338 237.7 339.604 237.7V240.7ZM344.458 240.042C345.694 239.571 347.104 238.657 347.104 236.96H344.104C344.104 236.925 344.112 236.881 344.129 236.843C344.145 236.809 344.153 236.809 344.123 236.839C344.049 236.913 343.844 237.065 343.39 237.238L344.458 240.042ZM347.104 236.96C347.104 235.004 345.554 233.922 343.918 233.377L342.969 236.223C343.568 236.423 343.869 236.626 344.003 236.761C344.101 236.858 344.104 236.904 344.104 236.96H347.104ZM343.965 233.393C342.347 232.794 339.47 232.245 335.482 231.713L335.086 234.687C339.097 235.222 341.66 235.739 342.923 236.207L343.965 233.393ZM335.48 231.713C328.744 230.825 323.908 228.969 320.777 226.299C317.706 223.68 316.144 220.169 316.144 215.6H313.144C313.144 220.951 315.021 225.333 318.83 228.581C322.579 231.778 328.063 233.761 335.088 234.687L335.48 231.713ZM316.144 215.6C316.144 212.331 317.064 209.471 318.895 206.965L316.473 205.195C314.25 208.236 313.144 211.722 313.144 215.6H316.144ZM318.892 206.969C320.79 204.389 323.44 202.359 326.905 200.903L325.743 198.137C321.848 199.774 318.737 202.117 316.476 205.191L318.892 206.969ZM326.905 200.903C330.368 199.447 334.404 198.7 339.044 198.7V195.7C334.084 195.7 329.64 196.499 325.743 198.137L326.905 200.903ZM339.044 198.7C343.888 198.7 348.07 199.524 351.627 201.128L352.86 198.392C348.844 196.582 344.226 195.7 339.044 195.7V198.7ZM351.627 201.128C355.247 202.759 357.936 204.783 359.778 207.159L362.149 205.321C359.939 202.47 356.814 200.175 352.86 198.392L351.627 201.128ZM359.788 207.171C361.682 209.564 362.576 211.777 362.665 213.825L365.662 213.695C365.538 210.837 364.298 208.036 362.14 205.309L359.788 207.171ZM362.664 213.76C362.664 213.801 362.666 213.856 362.543 213.979L364.664 216.101C365.288 215.477 365.664 214.679 365.664 213.76H362.664ZM362.543 213.979C362.522 214 362.507 214.012 362.5 214.017C362.493 214.022 362.49 214.022 362.493 214.021C362.495 214.02 362.498 214.019 362.5 214.019C362.501 214.019 362.496 214.02 362.484 214.02V217.02C363.334 217.02 364.082 216.683 364.664 216.101L362.543 213.979ZM362.484 214.02H346.484V217.02H362.484V214.02ZM346.484 214.02C345.817 214.02 345.435 213.945 345.25 213.876L344.197 216.684C344.866 216.935 345.657 217.02 346.484 217.02V214.02ZM345.395 213.938C345.133 213.807 344.765 213.555 344.287 213.125L342.28 215.355C342.869 215.885 343.461 216.326 344.053 216.622L345.395 213.938ZM344.26 213.101C342.826 211.872 341.049 211.3 339.044 211.3V214.3C340.452 214.3 341.501 214.688 342.308 215.379L344.26 213.101ZM339.044 211.3C337.667 211.3 336.389 211.492 335.408 212.064C334.303 212.709 333.704 213.765 333.704 215.04H336.704C336.704 214.886 336.735 214.824 336.746 214.804C336.757 214.785 336.793 214.73 336.92 214.656C337.219 214.481 337.86 214.3 339.044 214.3V211.3ZM333.704 215.04C333.704 216.778 335.073 217.819 336.446 218.416L337.642 215.664C337.137 215.445 336.882 215.248 336.768 215.124C336.716 215.068 336.703 215.038 336.703 215.036C336.702 215.035 336.703 215.036 336.703 215.04C336.704 215.043 336.704 215.044 336.704 215.04H333.704ZM336.467 218.425C337.957 219.045 340.49 219.542 343.898 219.968L344.27 216.992C340.851 216.564 338.691 216.101 337.621 215.655L336.467 218.425ZM343.89 219.967C349.151 220.651 353.266 221.667 356.287 222.976L357.48 220.224C354.102 218.76 349.683 217.695 344.277 216.993L343.89 219.967ZM356.296 222.98C359.344 224.279 361.409 225.97 362.645 227.985L365.202 226.415C363.559 223.737 360.93 221.694 357.472 220.22L356.296 222.98ZM362.667 228.019C363.962 230.007 364.664 232.608 364.664 235.92H367.664C367.664 232.192 366.872 228.979 365.181 226.381L362.667 228.019ZM364.664 235.92C364.664 239.378 363.626 242.379 361.55 244.986L363.897 246.854C366.408 243.701 367.664 240.036 367.664 235.92H364.664ZM361.559 244.975C359.461 247.561 356.523 249.608 352.669 251.079L353.739 253.881C357.991 252.259 361.4 249.933 363.889 246.865L361.559 244.975ZM352.663 251.081C348.864 252.55 344.518 253.3 339.604 253.3V256.3C344.823 256.3 349.544 255.503 353.745 253.879L352.663 251.081ZM376.665 253.36L375.604 254.421L376.665 253.36ZM376.665 198.64L375.604 197.579L376.665 198.64ZM420.025 202.96L419.106 204.146L419.113 204.151L420.025 202.96ZM420.105 231.92L420.985 233.134L420.995 233.127L420.105 231.92ZM396.825 236.56V235.06H395.325V236.56H396.825ZM396.185 253.36L395.124 252.299V252.299L396.185 253.36ZM404.585 220.72L405.606 221.819L405.626 221.8L405.646 221.781L404.585 220.72ZM404.825 214.24L406.084 213.425L404.825 214.24ZM396.425 212.88V211.38H394.925V212.88H396.425ZM396.425 221.76H394.925V223.26H396.425V221.76ZM378.185 252.5C378.009 252.5 377.88 252.454 377.726 252.299L375.604 254.421C376.303 255.12 377.188 255.5 378.185 255.5V252.5ZM377.726 252.299C377.571 252.145 377.525 252.016 377.525 251.84H374.525C374.525 252.837 374.905 253.722 375.604 254.421L377.726 252.299ZM377.525 251.84V200.16H374.525V251.84H377.525ZM377.525 200.16C377.525 199.984 377.571 199.855 377.726 199.701L375.604 197.579C374.905 198.278 374.525 199.163 374.525 200.16H377.525ZM377.726 199.701C377.88 199.546 378.009 199.5 378.185 199.5V196.5C377.188 196.5 376.303 196.88 375.604 197.579L377.726 199.701ZM378.185 199.5H402.425V196.5H378.185V199.5ZM402.425 199.5C409.684 199.5 415.187 201.108 419.106 204.146L420.944 201.774C416.33 198.199 410.099 196.5 402.425 196.5V199.5ZM419.113 204.151C422.991 207.119 425.005 211.516 425.005 217.6H428.005C428.005 210.777 425.699 205.414 420.937 201.769L419.113 204.151ZM425.005 217.6C425.005 223.635 423.017 227.909 419.215 230.713L420.995 233.127C425.727 229.638 428.005 224.365 428.005 217.6H425.005ZM419.225 230.706C415.302 233.549 409.759 235.06 402.425 235.06V238.06C410.131 238.06 416.374 236.478 420.985 233.134L419.225 230.706ZM402.425 235.06H396.825V238.06H402.425V235.06ZM395.325 236.56V251.84H398.325V236.56H395.325ZM395.325 251.84C395.325 252.016 395.279 252.145 395.124 252.299L397.246 254.421C397.945 253.722 398.325 252.837 398.325 251.84H395.325ZM395.124 252.299C394.97 252.454 394.841 252.5 394.665 252.5V255.5C395.662 255.5 396.547 255.12 397.246 254.421L395.124 252.299ZM394.665 252.5H378.185V255.5H394.665V252.5ZM402.025 223.26C403.388 223.26 404.6 222.753 405.606 221.819L403.564 219.621C403.076 220.074 402.582 220.26 402.025 220.26V223.26ZM405.646 221.781C406.764 220.663 407.205 219.13 407.205 217.44H404.205C404.205 218.63 403.9 219.284 403.524 219.659L405.646 221.781ZM407.205 217.44C407.205 215.965 406.849 214.606 406.084 213.425L403.566 215.055C403.975 215.687 404.205 216.462 404.205 217.44H407.205ZM406.084 213.425C405.167 212.007 403.704 211.38 402.025 211.38V214.38C402.906 214.38 403.31 214.66 403.566 215.055L406.084 213.425ZM402.025 211.38H396.425V214.38H402.025V211.38ZM394.925 212.88V221.76H397.925V212.88H394.925ZM396.425 223.26H402.025V220.26H396.425V223.26ZM428.136 253.52L426.997 254.496L427.072 254.584L427.16 254.659L428.136 253.52ZM427.736 251.68L426.32 251.185L426.317 251.195L426.313 251.206L427.736 251.68ZM445.576 200.64L446.992 201.135L447.002 201.108L447.01 201.081L445.576 200.64ZM446.776 198.8L445.767 197.69L446.776 198.8ZM468.936 198.8L469.945 197.69L468.936 198.8ZM470.136 200.64L468.703 201.081L468.711 201.108L468.72 201.135L470.136 200.64ZM487.976 251.68L489.399 251.206L489.396 251.195L489.392 251.185L487.976 251.68ZM487.496 253.52L486.436 252.459H486.436L487.496 253.52ZM468.376 252L469.788 251.492L469.786 251.487L468.376 252ZM466.456 246.72L467.866 246.207L467.507 245.22H466.456V246.72ZM449.256 246.72V245.22H448.206L447.847 246.207L449.256 246.72ZM447.336 252L445.927 251.487L445.925 251.492L447.336 252ZM462.376 231.12V232.62H464.405L463.81 230.68L462.376 231.12ZM457.816 216.24L459.25 215.8L457.804 211.079L456.38 215.808L457.816 216.24ZM453.336 231.12L451.9 230.688L451.318 232.62H453.336V231.12ZM429.416 252.5C429.304 252.5 429.221 252.474 429.112 252.381L427.16 254.659C427.798 255.206 428.569 255.5 429.416 255.5V252.5ZM429.275 252.544C429.182 252.435 429.156 252.352 429.156 252.24H426.156C426.156 253.088 426.451 253.858 426.997 254.496L429.275 252.544ZM429.156 252.24C429.156 252.195 429.159 252.167 429.161 252.152C429.163 252.138 429.164 252.14 429.159 252.154L426.313 251.206C426.197 251.553 426.156 251.906 426.156 252.24H429.156ZM429.152 252.175L446.992 201.135L444.16 200.145L426.32 251.185L429.152 252.175ZM447.01 201.081C447.137 200.668 447.378 200.28 447.785 199.91L445.767 197.69C445.001 198.387 444.442 199.225 444.143 200.199L447.01 201.081ZM447.785 199.91C448.026 199.691 448.429 199.5 449.176 199.5V196.5C447.897 196.5 446.7 196.842 445.767 197.69L447.785 199.91ZM449.176 199.5H466.536V196.5H449.176V199.5ZM466.536 199.5C467.284 199.5 467.687 199.691 467.927 199.91L469.945 197.69C469.012 196.842 467.815 196.5 466.536 196.5V199.5ZM467.927 199.91C468.334 200.28 468.576 200.668 468.703 201.081L471.57 200.199C471.27 199.225 470.712 198.387 469.945 197.69L467.927 199.91ZM468.72 201.135L486.56 252.175L489.392 251.185L471.552 200.145L468.72 201.135ZM486.553 252.154C486.548 252.14 486.549 252.138 486.551 252.152C486.553 252.167 486.556 252.195 486.556 252.24H489.556C489.556 251.906 489.515 251.553 489.399 251.206L486.553 252.154ZM486.556 252.24C486.556 252.281 486.559 252.336 486.436 252.459L488.557 254.581C489.181 253.957 489.556 253.159 489.556 252.24H486.556ZM486.436 252.459C486.422 252.473 486.413 252.479 486.409 252.482C486.405 252.485 486.402 252.486 486.399 252.487C486.395 252.489 486.367 252.5 486.296 252.5V255.5C487.147 255.5 487.937 255.2 488.557 254.581L486.436 252.459ZM486.296 252.5H471.496V255.5H486.296V252.5ZM471.496 252.5C470.9 252.5 470.542 252.376 470.326 252.237C470.124 252.108 469.933 251.895 469.788 251.492L466.965 252.508C467.3 253.438 467.868 254.225 468.707 254.763C469.53 255.291 470.493 255.5 471.496 255.5V252.5ZM469.786 251.487L467.866 246.207L465.047 247.233L466.967 252.513L469.786 251.487ZM466.456 245.22H449.256V248.22H466.456V245.22ZM447.847 246.207L445.927 251.487L448.746 252.513L450.666 247.233L447.847 246.207ZM445.925 251.492C445.78 251.895 445.588 252.108 445.387 252.237C445.17 252.376 444.813 252.5 444.216 252.5V255.5C445.22 255.5 446.182 255.291 447.006 254.763C447.844 254.225 448.413 253.438 448.748 252.508L445.925 251.492ZM444.216 252.5H429.416V255.5H444.216V252.5ZM463.81 230.68L459.25 215.8L456.382 216.679L460.942 231.56L463.81 230.68ZM456.38 215.808L451.9 230.688L454.773 231.552L459.253 216.672L456.38 215.808ZM453.336 232.62H462.376V229.62H453.336V232.62ZM497.087 253.36L496.026 254.421L497.087 253.36ZM497.087 198.64L496.026 197.579L497.087 198.64ZM540.287 203.2L539.348 204.37L539.357 204.377L540.287 203.2ZM544.447 226.64L545.738 227.404L545.744 227.393L544.447 226.64ZM538.127 233.12L537.318 231.857L536.146 232.607L536.807 233.832L538.127 233.12ZM547.967 251.36L549.309 250.689L549.298 250.668L549.287 250.648L547.967 251.36ZM547.647 253.52L548.708 254.581L547.647 253.52ZM527.727 253.36L526.723 254.475L526.781 254.527L526.845 254.573L527.727 253.36ZM526.607 251.84L528 251.283L527.988 251.253L527.975 251.224L526.607 251.84ZM519.727 236.56L521.095 235.944L520.697 235.06H519.727V236.56ZM516.447 236.56V235.06H514.947V236.56H516.447ZM515.807 253.36L516.868 254.421L515.807 253.36ZM525.007 220.24L526.146 221.216L526.162 221.197L526.178 221.177L525.007 220.24ZM525.007 214.24L523.748 215.055L523.776 215.098L523.807 215.14L525.007 214.24ZM516.447 212.88V211.38H514.947V212.88H516.447ZM516.447 221.36H514.947V222.86H516.447V221.36ZM498.607 252.5C498.431 252.5 498.302 252.454 498.148 252.299L496.026 254.421C496.725 255.12 497.61 255.5 498.607 255.5V252.5ZM498.148 252.299C497.993 252.145 497.947 252.016 497.947 251.84H494.947C494.947 252.837 495.327 253.722 496.026 254.421L498.148 252.299ZM497.947 251.84V200.16H494.947V251.84H497.947ZM497.947 200.16C497.947 199.984 497.993 199.855 498.148 199.701L496.026 197.579C495.327 198.278 494.947 199.163 494.947 200.16H497.947ZM498.148 199.701C498.302 199.546 498.431 199.5 498.607 199.5V196.5C497.61 196.5 496.725 196.88 496.026 197.579L498.148 199.701ZM498.607 199.5H522.287V196.5H498.607V199.5ZM522.287 199.5C529.756 199.5 535.381 201.186 539.348 204.37L541.226 202.03C536.553 198.28 530.178 196.5 522.287 196.5V199.5ZM539.357 204.377C543.276 207.474 545.267 211.764 545.267 217.44H548.267C548.267 210.956 545.938 205.753 541.217 202.023L539.357 204.377ZM545.267 217.44C545.267 220.676 544.547 223.477 543.149 225.887L545.744 227.393C547.44 224.47 548.267 221.137 548.267 217.44H545.267ZM543.156 225.876C541.734 228.279 539.796 230.271 537.318 231.857L538.935 234.383C541.791 232.556 544.066 230.228 545.738 227.404L543.156 225.876ZM536.807 233.832L546.647 252.072L549.287 250.648L539.447 232.408L536.807 233.832ZM546.625 252.031C546.715 252.21 546.707 252.272 546.707 252.24H549.707C549.707 251.675 549.539 251.15 549.309 250.689L546.625 252.031ZM546.707 252.24C546.707 252.281 546.709 252.336 546.586 252.459L548.708 254.581C549.331 253.957 549.707 253.159 549.707 252.24H546.707ZM546.586 252.459C546.573 252.473 546.564 252.479 546.56 252.482C546.556 252.485 546.553 252.486 546.55 252.487C546.546 252.489 546.518 252.5 546.447 252.5V255.5C547.298 255.5 548.088 255.2 548.708 254.581L546.586 252.459ZM546.447 252.5H530.047V255.5H546.447V252.5ZM530.047 252.5C529.302 252.5 528.868 252.335 528.609 252.147L526.845 254.573C527.759 255.238 528.872 255.5 530.047 255.5V252.5ZM528.73 252.245C528.326 251.881 528.109 251.557 528 251.283L525.214 252.397C525.531 253.19 526.061 253.879 526.723 254.475L528.73 252.245ZM527.975 251.224L521.095 235.944L518.359 237.176L525.239 252.456L527.975 251.224ZM519.727 235.06H516.447V238.06H519.727V235.06ZM514.947 236.56V251.84H517.947V236.56H514.947ZM514.947 251.84C514.947 252.016 514.901 252.145 514.746 252.299L516.868 254.421C517.567 253.722 517.947 252.837 517.947 251.84H514.947ZM514.746 252.299C514.592 252.454 514.463 252.5 514.287 252.5V255.5C515.284 255.5 516.169 255.12 516.868 254.421L514.746 252.299ZM514.287 252.5H498.607V255.5H514.287V252.5ZM522.287 222.86C523.805 222.86 525.165 222.36 526.146 221.216L523.868 219.264C523.568 219.613 523.115 219.86 522.287 219.86V222.86ZM526.178 221.177C527.061 220.073 527.467 218.742 527.467 217.28H524.467C524.467 218.165 524.232 218.807 523.836 219.303L526.178 221.177ZM527.467 217.28C527.467 215.816 527.061 214.479 526.207 213.34L523.807 215.14C524.233 215.708 524.467 216.397 524.467 217.28H527.467ZM526.266 213.425C525.362 212.027 523.941 211.38 522.287 211.38V214.38C523.086 214.38 523.479 214.639 523.748 215.055L526.266 213.425ZM522.287 211.38H516.447V214.38H522.287V211.38ZM514.947 212.88V221.36H517.947V212.88H514.947ZM516.447 222.86H522.287V219.86H516.447V222.86ZM558.821 253.36L557.761 254.421L558.821 253.36ZM558.821 198.64L557.761 197.579L558.821 198.64ZM577.381 213.6V212.1H575.881V213.6H577.381ZM577.381 218.64H575.881V220.14H577.381V218.64ZM601.141 219.28L600.081 220.341V220.341L601.141 219.28ZM601.141 232.72L600.081 231.659V231.659L601.141 232.72ZM577.381 233.36V231.86H575.881V233.36H577.381ZM577.381 238.4H575.881V239.9H577.381V238.4ZM560.341 252.5C560.165 252.5 560.036 252.454 559.882 252.299L557.761 254.421C558.46 255.12 559.344 255.5 560.341 255.5V252.5ZM559.882 252.299C559.728 252.145 559.681 252.016 559.681 251.84H556.681C556.681 252.837 557.062 253.722 557.761 254.421L559.882 252.299ZM559.681 251.84V200.16H556.681V251.84H559.681ZM559.681 200.16C559.681 199.984 559.728 199.855 559.882 199.701L557.761 197.579C557.062 198.278 556.681 199.163 556.681 200.16H559.681ZM559.882 199.701C560.036 199.546 560.165 199.5 560.341 199.5V196.5C559.344 196.5 558.46 196.88 557.761 197.579L559.882 199.701ZM560.341 199.5H601.381V196.5H560.341V199.5ZM601.381 199.5C601.558 199.5 601.686 199.546 601.841 199.701L603.962 197.579C603.263 196.88 602.378 196.5 601.381 196.5V199.5ZM601.841 199.701C601.995 199.855 602.041 199.984 602.041 200.16H605.041C605.041 199.163 604.661 198.278 603.962 197.579L601.841 199.701ZM602.041 200.16V211.44H605.041V200.16H602.041ZM602.041 211.44C602.041 211.616 601.995 211.745 601.841 211.899L603.962 214.021C604.661 213.322 605.041 212.437 605.041 211.44H602.041ZM601.841 211.899C601.686 212.054 601.558 212.1 601.381 212.1V215.1C602.378 215.1 603.263 214.72 603.962 214.021L601.841 211.899ZM601.381 212.1H577.381V215.1H601.381V212.1ZM575.881 213.6V218.64H578.881V213.6H575.881ZM577.381 220.14H599.621V217.14H577.381V220.14ZM599.621 220.14C599.798 220.14 599.926 220.186 600.081 220.341L602.202 218.219C601.503 217.52 600.618 217.14 599.621 217.14V220.14ZM600.081 220.341C600.235 220.495 600.281 220.624 600.281 220.8H603.281C603.281 219.803 602.901 218.918 602.202 218.219L600.081 220.341ZM600.281 220.8V231.2H603.281V220.8H600.281ZM600.281 231.2C600.281 231.376 600.235 231.505 600.081 231.659L602.202 233.781C602.901 233.082 603.281 232.197 603.281 231.2H600.281ZM600.081 231.659C599.926 231.814 599.798 231.86 599.621 231.86V234.86C600.618 234.86 601.503 234.48 602.202 233.781L600.081 231.659ZM599.621 231.86H577.381V234.86H599.621V231.86ZM575.881 233.36V238.4H578.881V233.36H575.881ZM577.381 239.9H602.021V236.9H577.381V239.9ZM602.021 239.9C602.198 239.9 602.326 239.946 602.481 240.101L604.602 237.979C603.903 237.28 603.018 236.9 602.021 236.9V239.9ZM602.481 240.101C602.635 240.255 602.681 240.384 602.681 240.56H605.681C605.681 239.563 605.301 238.678 604.602 237.979L602.481 240.101ZM602.681 240.56V251.84H605.681V240.56H602.681ZM602.681 251.84C602.681 252.016 602.635 252.145 602.481 252.299L604.602 254.421C605.301 253.722 605.681 252.837 605.681 251.84H602.681ZM602.481 252.299C602.326 252.454 602.198 252.5 602.021 252.5V255.5C603.018 255.5 603.903 255.12 604.602 254.421L602.481 252.299ZM602.021 252.5H560.341V255.5H602.021V252.5ZM616.181 253.36L615.12 254.421L616.181 253.36ZM616.181 198.64L615.12 197.579L616.181 198.64ZM633.621 199.84L632.315 200.578L632.327 200.6L632.34 200.621L633.621 199.84ZM647.141 222L645.86 222.781L648.641 227.339V222H647.141ZM647.781 198.64L648.841 199.701V199.701L647.781 198.64ZM649.061 253.44L649.982 252.256L649.061 253.44ZM647.861 252.16L646.61 252.989L646.613 252.992L647.861 252.16ZM634.341 231.76L635.591 230.931L632.841 226.781V231.76H634.341ZM633.701 253.36L632.64 252.299V252.299L633.701 253.36ZM617.701 252.5C617.524 252.5 617.396 252.454 617.241 252.299L615.12 254.421C615.819 255.12 616.704 255.5 617.701 255.5V252.5ZM617.241 252.299C617.087 252.145 617.041 252.016 617.041 251.84H614.041C614.041 252.837 614.421 253.722 615.12 254.421L617.241 252.299ZM617.041 251.84V200.16H614.041V251.84H617.041ZM617.041 200.16C617.041 199.984 617.087 199.855 617.241 199.701L615.12 197.579C614.421 198.278 614.041 199.163 614.041 200.16H617.041ZM617.241 199.701C617.396 199.546 617.524 199.5 617.701 199.5V196.5C616.704 196.5 615.819 196.88 615.12 197.579L617.241 199.701ZM617.701 199.5H630.341V196.5H617.701V199.5ZM630.341 199.5C631.333 199.5 631.907 199.856 632.315 200.578L634.926 199.102C633.948 197.371 632.335 196.5 630.341 196.5V199.5ZM632.34 200.621L645.86 222.781L648.421 221.219L634.901 199.059L632.34 200.621ZM648.641 222V200.16H645.641V222H648.641ZM648.641 200.16C648.641 199.984 648.687 199.855 648.841 199.701L646.72 197.579C646.021 198.278 645.641 199.163 645.641 200.16H648.641ZM648.841 199.701C648.996 199.546 649.124 199.5 649.301 199.5V196.5C648.304 196.5 647.419 196.88 646.72 197.579L648.841 199.701ZM649.301 199.5H663.781V196.5H649.301V199.5ZM663.781 199.5C663.957 199.5 664.086 199.546 664.24 199.701L666.361 197.579C665.662 196.88 664.778 196.5 663.781 196.5V199.5ZM664.24 199.701C664.394 199.855 664.441 199.984 664.441 200.16H667.441C667.441 199.163 667.06 198.278 666.361 197.579L664.24 199.701ZM664.441 200.16V251.84H667.441V200.16H664.441ZM664.441 251.84C664.441 252.016 664.394 252.145 664.24 252.299L666.361 254.421C667.06 253.722 667.441 252.837 667.441 251.84H664.441ZM664.24 252.299C664.086 252.454 663.957 252.5 663.781 252.5V255.5C664.778 255.5 665.662 255.12 666.361 254.421L664.24 252.299ZM663.781 252.5H651.141V255.5H663.781V252.5ZM651.141 252.5C650.411 252.5 650.097 252.346 649.982 252.256L648.14 254.624C648.985 255.281 650.057 255.5 651.141 255.5V252.5ZM649.982 252.256C649.622 251.976 649.335 251.667 649.109 251.328L646.613 252.992C647.027 253.613 647.539 254.157 648.14 254.624L649.982 252.256ZM649.111 251.331L635.591 230.931L633.09 232.589L646.61 252.989L649.111 251.331ZM632.841 231.76V251.84H635.841V231.76H632.841ZM632.841 251.84C632.841 252.016 632.794 252.145 632.64 252.299L634.761 254.421C635.46 253.722 635.841 252.837 635.841 251.84H632.841ZM632.64 252.299C632.486 252.454 632.357 252.5 632.181 252.5V255.5C633.178 255.5 634.062 255.12 634.761 254.421L632.64 252.299ZM632.181 252.5H617.701V255.5H632.181V252.5ZM691.159 215.2H692.659V213.7H691.159V215.2ZM726.279 198.64L727.34 197.579L726.279 198.64ZM726.279 214.56L727.34 215.621V215.621L726.279 214.56ZM711.479 215.2V213.7H709.979V215.2H711.479ZM710.839 253.36L711.9 254.421L710.839 253.36ZM693.319 252.5C693.143 252.5 693.014 252.454 692.86 252.299L690.739 254.421C691.438 255.12 692.322 255.5 693.319 255.5V252.5ZM692.86 252.299C692.706 252.145 692.659 252.016 692.659 251.84H689.659C689.659 252.837 690.04 253.722 690.739 254.421L692.86 252.299ZM692.659 251.84V215.2H689.659V251.84H692.659ZM691.159 213.7H677.879V216.7H691.159V213.7ZM677.879 213.7C677.703 213.7 677.574 213.654 677.42 213.499L675.299 215.621C675.998 216.32 676.882 216.7 677.879 216.7V213.7ZM677.42 213.499C677.266 213.345 677.219 213.216 677.219 213.04H674.219C674.219 214.037 674.6 214.922 675.299 215.621L677.42 213.499ZM677.219 213.04V200.16H674.219V213.04H677.219ZM677.219 200.16C677.219 199.984 677.266 199.855 677.42 199.701L675.299 197.579C674.6 198.278 674.219 199.163 674.219 200.16H677.219ZM677.42 199.701C677.574 199.546 677.703 199.5 677.879 199.5V196.5C676.882 196.5 675.998 196.88 675.299 197.579L677.42 199.701ZM677.879 199.5H724.759V196.5H677.879V199.5ZM724.759 199.5C724.936 199.5 725.064 199.546 725.219 199.701L727.34 197.579C726.641 196.88 725.756 196.5 724.759 196.5V199.5ZM725.219 199.701C725.373 199.855 725.419 199.984 725.419 200.16H728.419C728.419 199.163 728.039 198.278 727.34 197.579L725.219 199.701ZM725.419 200.16V213.04H728.419V200.16H725.419ZM725.419 213.04C725.419 213.216 725.373 213.345 725.219 213.499L727.34 215.621C728.039 214.922 728.419 214.037 728.419 213.04H725.419ZM725.219 213.499C725.064 213.654 724.936 213.7 724.759 213.7V216.7C725.756 216.7 726.641 216.32 727.34 215.621L725.219 213.499ZM724.759 213.7H711.479V216.7H724.759V213.7ZM709.979 215.2V251.84H712.979V215.2H709.979ZM709.979 251.84C709.979 252.016 709.933 252.145 709.779 252.299L711.9 254.421C712.599 253.722 712.979 252.837 712.979 251.84H709.979ZM709.779 252.299C709.624 252.454 709.496 252.5 709.319 252.5V255.5C710.316 255.5 711.201 255.12 711.9 254.421L709.779 252.299ZM709.319 252.5H693.319V255.5H709.319V252.5ZM737.306 253.36L736.245 254.421L737.306 253.36ZM737.306 198.64L736.245 197.579L737.306 198.64ZM755.866 213.6V212.1H754.366V213.6H755.866ZM755.866 218.64H754.366V220.14H755.866V218.64ZM779.626 219.28L778.565 220.341V220.341L779.626 219.28ZM779.626 232.72L778.565 231.659V231.659L779.626 232.72ZM755.866 233.36V231.86H754.366V233.36H755.866ZM755.866 238.4H754.366V239.9H755.866V238.4ZM738.826 252.5C738.649 252.5 738.521 252.454 738.366 252.299L736.245 254.421C736.944 255.12 737.829 255.5 738.826 255.5V252.5ZM738.366 252.299C738.212 252.145 738.166 252.016 738.166 251.84H735.166C735.166 252.837 735.546 253.722 736.245 254.421L738.366 252.299ZM738.166 251.84V200.16H735.166V251.84H738.166ZM738.166 200.16C738.166 199.984 738.212 199.855 738.366 199.701L736.245 197.579C735.546 198.278 735.166 199.163 735.166 200.16H738.166ZM738.366 199.701C738.521 199.546 738.649 199.5 738.826 199.5V196.5C737.829 196.5 736.944 196.88 736.245 197.579L738.366 199.701ZM738.826 199.5H779.866V196.5H738.826V199.5ZM779.866 199.5C780.042 199.5 780.171 199.546 780.325 199.701L782.446 197.579C781.747 196.88 780.863 196.5 779.866 196.5V199.5ZM780.325 199.701C780.479 199.855 780.526 199.984 780.526 200.16H783.526C783.526 199.163 783.145 198.278 782.446 197.579L780.325 199.701ZM780.526 200.16V211.44H783.526V200.16H780.526ZM780.526 211.44C780.526 211.616 780.479 211.745 780.325 211.899L782.446 214.021C783.145 213.322 783.526 212.437 783.526 211.44H780.526ZM780.325 211.899C780.171 212.054 780.042 212.1 779.866 212.1V215.1C780.863 215.1 781.747 214.72 782.446 214.021L780.325 211.899ZM779.866 212.1H755.866V215.1H779.866V212.1ZM754.366 213.6V218.64H757.366V213.6H754.366ZM755.866 220.14H778.106V217.14H755.866V220.14ZM778.106 220.14C778.282 220.14 778.411 220.186 778.565 220.341L780.686 218.219C779.987 217.52 779.103 217.14 778.106 217.14V220.14ZM778.565 220.341C778.719 220.495 778.766 220.624 778.766 220.8H781.766C781.766 219.803 781.385 218.918 780.686 218.219L778.565 220.341ZM778.766 220.8V231.2H781.766V220.8H778.766ZM778.766 231.2C778.766 231.376 778.719 231.505 778.565 231.659L780.686 233.781C781.385 233.082 781.766 232.197 781.766 231.2H778.766ZM778.565 231.659C778.411 231.814 778.282 231.86 778.106 231.86V234.86C779.103 234.86 779.987 234.48 780.686 233.781L778.565 231.659ZM778.106 231.86H755.866V234.86H778.106V231.86ZM754.366 233.36V238.4H757.366V233.36H754.366ZM755.866 239.9H780.506V236.9H755.866V239.9ZM780.506 239.9C780.682 239.9 780.811 239.946 780.965 240.101L783.086 237.979C782.387 237.28 781.503 236.9 780.506 236.9V239.9ZM780.965 240.101C781.119 240.255 781.166 240.384 781.166 240.56H784.166C784.166 239.563 783.785 238.678 783.086 237.979L780.965 240.101ZM781.166 240.56V251.84H784.166V240.56H781.166ZM781.166 251.84C781.166 252.016 781.119 252.145 780.965 252.299L783.086 254.421C783.785 253.722 784.166 252.837 784.166 251.84H781.166ZM780.965 252.299C780.811 252.454 780.682 252.5 780.506 252.5V255.5C781.503 255.5 782.387 255.12 783.086 254.421L780.965 252.299ZM780.506 252.5H738.826V255.5H780.506V252.5ZM802.985 252.48L802.431 253.874L802.438 253.877L802.985 252.48ZM794.185 246.32L792.988 247.224L792.992 247.23L792.997 247.236L794.185 246.32ZM791.065 237.76H789.565V237.786L789.566 237.812L791.065 237.76ZM791.545 236.56L792.606 237.621L791.545 236.56ZM809.785 236.32L809.114 237.662L809.21 237.709L809.311 237.743L809.785 236.32ZM811.465 237.36L810.505 238.512L810.519 238.524L810.533 238.535L811.465 237.36ZM821.705 238.64L822.201 240.056L822.22 240.049L822.239 240.042L821.705 238.64ZM821.225 234.8L820.704 236.207L820.727 236.215L820.751 236.223L821.225 234.8ZM813.065 233.2L813.263 231.713L813.261 231.713L813.065 233.2ZM795.465 206.08L794.257 205.191L794.254 205.195L795.465 206.08ZM804.105 199.52L803.524 198.137L804.105 199.52ZM830.025 199.76L829.409 201.128L830.025 199.76ZM838.745 206.24L837.56 207.159L837.564 207.165L837.569 207.171L838.745 206.24ZM841.945 213.76H843.445V213.727L843.444 213.695L841.945 213.76ZM841.385 215.04L840.324 213.979L841.385 215.04ZM822.505 215.28L821.834 216.622L821.905 216.657L821.978 216.684L822.505 215.28ZM821.065 214.24L822.068 213.125L822.055 213.113L822.041 213.101L821.065 214.24ZM814.825 217.04L814.227 218.416L814.237 218.42L814.248 218.425L814.825 217.04ZM821.865 218.48L822.058 216.992L822.051 216.992L821.865 218.48ZM834.665 221.6L834.069 222.976L834.077 222.98L834.665 221.6ZM841.705 227.2L840.427 227.985L840.437 228.002L840.448 228.019L841.705 227.2ZM840.505 245.92L841.67 246.865L841.678 246.854L840.505 245.92ZM830.985 252.48L830.45 251.079L830.444 251.081L830.985 252.48ZM817.385 253.3C811.86 253.3 807.257 252.543 803.532 251.083L802.438 253.877C806.606 255.51 811.603 256.3 817.385 256.3V253.3ZM803.539 251.086C799.823 249.61 797.14 247.696 795.373 245.404L792.997 247.236C795.177 250.064 798.36 252.257 802.431 253.874L803.539 251.086ZM795.382 245.416C793.583 243.034 792.659 240.475 792.564 237.708L789.566 237.812C789.684 241.232 790.84 244.379 792.988 247.224L795.382 245.416ZM792.565 237.76C792.565 237.689 792.576 237.661 792.578 237.657C792.579 237.654 792.58 237.651 792.583 237.647C792.586 237.643 792.592 237.634 792.606 237.621L790.484 235.499C789.865 236.119 789.565 236.909 789.565 237.76H792.565ZM792.606 237.621C792.729 237.498 792.784 237.5 792.825 237.5V234.5C791.906 234.5 791.108 234.876 790.484 235.499L792.606 237.621ZM792.825 237.5H808.025V234.5H792.825V237.5ZM808.025 237.5C808.657 237.5 808.981 237.595 809.114 237.662L810.456 234.978C809.736 234.618 808.886 234.5 808.025 234.5V237.5ZM809.311 237.743C809.535 237.818 809.928 238.031 810.505 238.512L812.425 236.208C811.722 235.622 810.995 235.142 810.259 234.897L809.311 237.743ZM810.533 238.535C812.398 240.015 814.722 240.7 817.385 240.7V237.7C815.248 237.7 813.625 237.159 812.397 236.185L810.533 238.535ZM817.385 240.7C819.278 240.7 820.908 240.508 822.201 240.056L821.209 237.224C820.369 237.518 819.119 237.7 817.385 237.7V240.7ZM822.239 240.042C823.475 239.571 824.885 238.657 824.885 236.96H821.885C821.885 236.925 821.894 236.881 821.91 236.843C821.926 236.809 821.935 236.809 821.904 236.839C821.831 236.913 821.625 237.065 821.171 237.238L822.239 240.042ZM824.885 236.96C824.885 235.004 823.335 233.922 821.699 233.377L820.751 236.223C821.349 236.423 821.65 236.626 821.784 236.761C821.882 236.858 821.885 236.904 821.885 236.96H824.885ZM821.746 233.393C820.129 232.794 817.251 232.245 813.263 231.713L812.867 234.687C816.879 235.222 819.441 235.739 820.704 236.207L821.746 233.393ZM813.261 231.713C806.526 230.825 801.69 228.969 798.558 226.299C795.487 223.68 793.925 220.169 793.925 215.6H790.925C790.925 220.951 792.803 225.333 796.612 228.581C800.36 231.778 805.844 233.761 812.869 234.687L813.261 231.713ZM793.925 215.6C793.925 212.331 794.845 209.471 796.676 206.965L794.254 205.195C792.032 208.236 790.925 211.722 790.925 215.6H793.925ZM796.673 206.969C798.571 204.389 801.221 202.359 804.686 200.903L803.524 198.137C799.629 199.774 796.518 202.117 794.257 205.191L796.673 206.969ZM804.686 200.903C808.149 199.447 812.185 198.7 816.825 198.7V195.7C811.865 195.7 807.421 196.499 803.524 198.137L804.686 200.903ZM816.825 198.7C821.669 198.7 825.852 199.524 829.409 201.128L830.641 198.392C826.625 196.582 822.008 195.7 816.825 195.7V198.7ZM829.409 201.128C833.028 202.759 835.717 204.783 837.56 207.159L839.93 205.321C837.72 202.47 834.595 200.175 830.641 198.392L829.409 201.128ZM837.569 207.171C839.464 209.564 840.357 211.777 840.446 213.825L843.444 213.695C843.319 210.837 842.08 208.036 839.921 205.309L837.569 207.171ZM840.445 213.76C840.445 213.801 840.447 213.856 840.324 213.979L842.446 216.101C843.069 215.477 843.445 214.679 843.445 213.76H840.445ZM840.324 213.979C840.303 214 840.289 214.012 840.281 214.017C840.274 214.022 840.272 214.022 840.274 214.021C840.277 214.02 840.279 214.019 840.281 214.019C840.282 214.019 840.277 214.02 840.265 214.02V217.02C841.115 217.02 841.863 216.683 842.446 216.101L840.324 213.979ZM840.265 214.02H824.265V217.02H840.265V214.02ZM824.265 214.02C823.598 214.02 823.217 213.945 823.032 213.876L821.978 216.684C822.647 216.935 823.438 217.02 824.265 217.02V214.02ZM823.176 213.938C822.914 213.807 822.547 213.555 822.068 213.125L820.062 215.355C820.65 215.885 821.243 216.326 821.834 216.622L823.176 213.938ZM822.041 213.101C820.607 211.872 818.83 211.3 816.825 211.3V214.3C818.233 214.3 819.283 214.688 820.089 215.379L822.041 213.101ZM816.825 211.3C815.448 211.3 814.17 211.492 813.189 212.064C812.084 212.709 811.485 213.765 811.485 215.04H814.485C814.485 214.886 814.516 214.824 814.527 214.804C814.538 214.785 814.574 214.73 814.701 214.656C815 214.481 815.642 214.3 816.825 214.3V211.3ZM811.485 215.04C811.485 216.778 812.854 217.819 814.227 218.416L815.423 215.664C814.918 215.445 814.663 215.248 814.549 215.124C814.497 215.068 814.485 215.038 814.484 215.036C814.483 215.035 814.484 215.036 814.485 215.04C814.485 215.043 814.485 215.044 814.485 215.04H811.485ZM814.248 218.425C815.738 219.045 818.272 219.542 821.679 219.968L822.051 216.992C818.632 216.564 816.472 216.101 815.402 215.655L814.248 218.425ZM821.672 219.967C826.933 220.651 831.047 221.667 834.069 222.976L835.261 220.224C831.883 218.76 827.464 217.695 822.058 216.993L821.672 219.967ZM834.077 222.98C837.125 224.279 839.19 225.97 840.427 227.985L842.983 226.415C841.34 223.737 838.711 221.694 835.253 220.22L834.077 222.98ZM840.448 228.019C841.743 230.007 842.445 232.608 842.445 235.92H845.445C845.445 232.192 844.654 228.979 842.962 226.381L840.448 228.019ZM842.445 235.92C842.445 239.378 841.407 242.379 839.332 244.986L841.678 246.854C844.19 243.701 845.445 240.036 845.445 235.92H842.445ZM839.34 244.975C837.242 247.561 834.305 249.608 830.45 251.079L831.52 253.881C835.772 252.259 839.181 249.933 841.67 246.865L839.34 244.975ZM830.444 251.081C826.645 252.55 822.3 253.3 817.385 253.3V256.3C822.604 256.3 827.325 255.503 831.526 253.879L830.444 251.081Z" fill="#1D1D1D"/>
</svg>
