<svg width="908" height="509" viewBox="0 0 908 509" fill="none" xmlns="http://www.w3.org/2000/svg">
<path fill-rule="evenodd" clip-rule="evenodd" d="M908 0H675.744V13H0V41V481V509H632.697V481H867.956V468H908V322H807.333V187C847.386 187 883.351 204.629 908 232.52V0ZM70.7662 172.278C70.7662 135.121 100.887 105 138.044 105C175.2 105 205.322 135.121 205.322 172.278V173.722C205.322 210.879 175.2 241 138.044 241C100.887 241 70.7662 210.879 70.7662 173.722V172.278ZM408.294 240.357L302.002 131V347H517.291L408.294 240.357Z" fill="#EB935F"/>
</svg>
