<svg width="782" height="150" viewBox="0 0 782 150" fill="none" xmlns="http://www.w3.org/2000/svg">
<path d="M244.946 57.48L244.392 58.874L244.399 58.8766L244.946 57.48ZM236.146 51.32L234.949 52.2239L234.953 52.2299L234.958 52.2358L236.146 51.32ZM233.026 42.76H231.526V42.7859L231.527 42.8117L233.026 42.76ZM233.506 41.56L234.567 42.6207L233.506 41.56ZM251.746 41.32L251.075 42.6616L251.17 42.7093L251.272 42.743L251.746 41.32ZM253.426 42.36L252.466 43.5123L252.48 43.524L252.494 43.5352L253.426 42.36ZM263.666 43.64L264.161 45.0558L264.181 45.049L264.2 45.0417L263.666 43.64ZM263.186 39.8L262.665 41.2066L262.688 41.2152L262.712 41.223L263.186 39.8ZM255.026 38.2L255.224 36.7132L255.222 36.7129L255.026 38.2ZM237.426 11.08L236.218 10.191L236.215 10.195L237.426 11.08ZM246.066 4.52L245.485 3.13717L246.066 4.52ZM271.986 4.76L271.37 6.12752L271.986 4.76ZM280.706 11.24L279.521 12.1592L279.525 12.1652L279.53 12.1711L280.706 11.24ZM283.906 18.76H285.406V18.7274L285.405 18.6948L283.906 18.76ZM283.346 20.04L282.285 18.9793V18.9793L283.346 20.04ZM264.466 20.28L263.795 21.6216L263.866 21.6568L263.939 21.6845L264.466 20.28ZM263.026 19.24L264.029 18.1251L264.016 18.1129L264.002 18.1011L263.026 19.24ZM256.786 22.04L256.188 23.4156L256.198 23.4202L256.209 23.4246L256.786 22.04ZM263.826 23.48L264.019 21.9925L264.012 21.9916L263.826 23.48ZM276.626 26.6L276.03 27.9764L276.038 27.9799L276.626 26.6ZM283.666 32.2L282.387 32.9845L282.398 33.0017L282.409 33.0185L283.666 32.2ZM282.466 50.92L283.631 51.8651L283.639 51.8544L282.466 50.92ZM272.946 57.48L272.411 56.0785L272.405 56.0809L272.946 57.48ZM259.346 58.3C253.821 58.3 249.218 57.5431 245.493 56.0834L244.399 58.8766C248.567 60.5102 253.564 61.3 259.346 61.3V58.3ZM245.5 56.086C241.784 54.61 239.101 52.6963 237.334 50.4042L234.958 52.2358C237.138 55.0637 240.321 57.2567 244.392 58.874L245.5 56.086ZM237.343 50.4161C235.544 48.0339 234.62 45.4749 234.525 42.7083L231.527 42.8117C231.645 46.2318 232.801 49.3794 234.949 52.2239L237.343 50.4161ZM234.526 42.76C234.526 42.6891 234.537 42.6608 234.539 42.6571C234.54 42.6539 234.541 42.651 234.544 42.647C234.547 42.6429 234.553 42.634 234.567 42.6207L232.445 40.4993C231.826 41.119 231.526 41.909 231.526 42.76H234.526ZM234.567 42.6207C234.69 42.4977 234.745 42.5 234.786 42.5V39.5C233.866 39.5 233.069 39.8756 232.445 40.4993L234.567 42.6207ZM234.786 42.5H249.986V39.5H234.786V42.5ZM249.986 42.5C250.618 42.5 250.942 42.5949 251.075 42.6616L252.417 39.9784C251.697 39.6184 250.847 39.5 249.986 39.5V42.5ZM251.272 42.743C251.496 42.8179 251.889 43.0314 252.466 43.5123L254.386 41.2077C253.683 40.6219 252.956 40.1421 252.22 39.897L251.272 42.743ZM252.494 43.5352C254.359 45.0147 256.683 45.7 259.346 45.7V42.7C257.209 42.7 255.586 42.1587 254.358 41.1848L252.494 43.5352ZM259.346 45.7C261.239 45.7 262.869 45.5082 264.161 45.0558L263.17 42.2242C262.33 42.5185 261.08 42.7 259.346 42.7V45.7ZM264.2 45.0417C265.436 44.5707 266.846 43.6571 266.846 41.96H263.846C263.846 41.9247 263.854 41.881 263.871 41.8431C263.887 41.809 263.895 41.8092 263.865 41.8393C263.792 41.9131 263.586 42.0652 263.132 42.2383L264.2 45.0417ZM266.846 41.96C266.846 40.0036 265.296 38.9223 263.66 38.377L262.712 41.223C263.31 41.4226 263.611 41.6262 263.745 41.7607C263.843 41.8583 263.846 41.9038 263.846 41.96H266.846ZM263.707 38.3934C262.089 37.7943 259.212 37.2449 255.224 36.7132L254.828 39.6868C258.84 40.2218 261.402 40.739 262.665 41.2066L263.707 38.3934ZM255.222 36.7129C248.487 35.8253 243.65 33.9687 240.519 31.2986C237.448 28.6801 235.886 25.1689 235.886 20.6H232.886C232.886 25.9511 234.763 30.3332 238.573 33.5814C242.321 36.778 247.805 38.7614 254.83 39.6871L255.222 36.7129ZM235.886 20.6C235.886 17.3312 236.806 14.4706 238.637 11.965L236.215 10.195C233.993 13.236 232.886 16.7222 232.886 20.6H235.886ZM238.634 11.969C240.532 9.38925 243.182 7.35925 246.647 5.90283L245.485 3.13717C241.59 4.77408 238.479 7.11741 236.218 10.191L238.634 11.969ZM246.647 5.90283C250.11 4.44747 254.146 3.7 258.786 3.7V0.699997C253.826 0.699997 249.382 1.49919 245.485 3.13717L246.647 5.90283ZM258.786 3.7C263.63 3.7 267.812 4.52432 271.37 6.12752L272.602 3.39248C268.586 1.58234 263.969 0.699997 258.786 0.699997V3.7ZM271.37 6.12752C274.989 7.75873 277.678 9.78292 279.521 12.1592L281.891 10.3208C279.681 7.47042 276.556 5.17459 272.602 3.39248L271.37 6.12752ZM279.53 12.1711C281.425 14.5643 282.318 16.7765 282.407 18.8252L285.405 18.6948C285.28 15.8368 284.041 13.0357 281.882 10.3089L279.53 12.1711ZM282.406 18.76C282.406 18.8005 282.408 18.8564 282.285 18.9793L284.407 21.1007C285.03 20.4769 285.406 19.6795 285.406 18.76H282.406ZM282.285 18.9793C282.264 19.0003 282.25 19.0115 282.242 19.0167C282.235 19.0217 282.233 19.0223 282.235 19.0213C282.238 19.0202 282.24 19.0194 282.242 19.0191C282.243 19.0189 282.238 19.02 282.226 19.02V22.02C283.076 22.02 283.824 21.683 284.407 21.1007L282.285 18.9793ZM282.226 19.02H266.226V22.02H282.226V19.02ZM266.226 19.02C265.559 19.02 265.178 18.9448 264.993 18.8755L263.939 21.6845C264.608 21.9352 265.399 22.02 266.226 22.02V19.02ZM265.137 18.9384C264.875 18.8074 264.508 18.5554 264.029 18.1251L262.022 20.3549C262.611 20.8846 263.204 21.3259 263.795 21.6216L265.137 18.9384ZM264.002 18.1011C262.568 16.8721 260.791 16.3 258.786 16.3V19.3C260.194 19.3 261.244 19.6879 262.05 20.3789L264.002 18.1011ZM258.786 16.3C257.409 16.3 256.131 16.4921 255.15 17.0643C254.045 17.709 253.446 18.7649 253.446 20.04H256.446C256.446 19.8861 256.477 19.824 256.488 19.8042C256.499 19.785 256.535 19.7297 256.662 19.6557C256.961 19.4812 257.603 19.3 258.786 19.3V16.3ZM253.446 20.04C253.446 21.7777 254.815 22.8187 256.188 23.4156L257.384 20.6644C256.879 20.4448 256.624 20.2485 256.51 20.1244C256.458 20.0683 256.446 20.0381 256.445 20.0363C256.444 20.0348 256.445 20.0363 256.446 20.0396C256.446 20.0428 256.446 20.0435 256.446 20.04H253.446ZM256.209 23.4246C257.699 24.0454 260.232 24.5425 263.64 24.9684L264.012 21.9916C260.593 21.5642 258.433 21.1013 257.363 20.6554L256.209 23.4246ZM263.633 24.9675C268.894 25.6514 273.008 26.6669 276.03 27.9763L277.222 25.2237C273.844 23.7598 269.425 22.6953 264.019 21.9925L263.633 24.9675ZM276.038 27.9799C279.086 29.2792 281.151 30.9697 282.387 32.9845L284.944 31.4155C283.301 28.737 280.672 26.6941 277.214 25.2201L276.038 27.9799ZM282.409 33.0185C283.704 35.0074 284.406 37.6083 284.406 40.92H287.406C287.406 37.1917 286.615 33.9792 284.923 31.3815L282.409 33.0185ZM284.406 40.92C284.406 44.3777 283.368 47.3792 281.293 49.9856L283.639 51.8544C286.151 48.7008 287.406 45.0356 287.406 40.92H284.406ZM281.301 49.9749C279.203 52.5606 276.265 54.6078 272.411 56.0786L273.481 58.8814C277.733 57.2588 281.142 54.9328 283.631 51.8651L281.301 49.9749ZM272.405 56.0809C268.606 57.55 264.26 58.3 259.346 58.3V61.3C264.565 61.3 269.286 60.5034 273.487 58.8791L272.405 56.0809ZM301.927 54.28L301.008 55.4655L301.927 54.28ZM294.327 38.2L292.828 38.2555L292.829 38.2681L294.327 38.2ZM294.327 24.12L295.826 24.1735L295.826 24.1723L294.327 24.12ZM297.927 12.28L296.695 11.4251L296.69 11.4319L296.685 11.4387L297.927 12.28ZM307.287 4.76L307.883 6.13678L307.287 4.76ZM334.807 4.76L335.403 3.38321L334.807 4.76ZM344.087 12.28L342.845 13.1213L342.85 13.1281L342.855 13.1348L344.087 12.28ZM347.767 24.12L346.268 24.1723L346.268 24.1735L347.767 24.12ZM347.767 38.2L349.266 38.2681L349.266 38.2555L347.767 38.2ZM340.167 54.28L339.248 53.0945H339.248L340.167 54.28ZM325.287 42.6L324.227 41.5393L324.213 41.5529L324.2 41.5669L325.287 42.6ZM326.967 37.72L325.468 37.6683L325.468 37.6759L325.468 37.6834L326.967 37.72ZM326.967 24.28L325.468 24.3166L325.468 24.326L325.468 24.3355L326.967 24.28ZM325.287 19.4L324.227 20.4607L325.287 19.4ZM316.807 19.4L317.868 20.4607L316.807 19.4ZM315.127 24.28L316.626 24.3355L316.627 24.326L316.627 24.3166L315.127 24.28ZM315.127 37.72L316.627 37.6834L316.627 37.6759L316.626 37.6683L315.127 37.72ZM316.727 42.6L315.64 43.6331L315.653 43.6471L315.667 43.6607L316.727 42.6ZM321.047 58.3C313.27 58.3 307.254 56.5121 302.846 53.0945L301.008 55.4655C306.093 59.4079 312.825 61.3 321.047 61.3V58.3ZM302.846 53.0945C298.509 49.7318 296.129 44.8168 295.826 38.1319L292.829 38.2681C293.165 45.6632 295.852 51.4682 301.008 55.4655L302.846 53.0945ZM295.826 38.1445C295.774 36.7343 295.747 34.4382 295.747 31.24H292.747C292.747 34.4418 292.774 36.7857 292.828 38.2555L295.826 38.1445ZM295.747 31.24C295.747 27.9888 295.774 25.6383 295.826 24.1735L292.828 24.0665C292.774 25.5884 292.747 27.9845 292.747 31.24H295.747ZM295.826 24.1723C295.978 19.8246 297.11 16.1612 299.169 13.1213L296.685 11.4387C294.265 15.0122 292.996 19.2421 292.828 24.0677L295.826 24.1723ZM299.16 13.1348C301.283 10.0741 304.174 7.74028 307.883 6.13678L306.692 3.38321C302.507 5.19305 299.159 7.87255 296.695 11.4251L299.16 13.1348ZM307.883 6.13678C311.605 4.52692 315.982 3.7 321.047 3.7V0.699997C315.659 0.699997 310.862 1.57974 306.692 3.38321L307.883 6.13678ZM321.047 3.7C326.112 3.7 330.489 4.52692 334.212 6.13678L335.403 3.38321C331.232 1.57974 326.436 0.699997 321.047 0.699997V3.7ZM334.212 6.13678C337.917 7.73917 340.778 10.0692 342.845 13.1213L345.329 11.4387C342.917 7.87746 339.59 5.19416 335.403 3.38321L334.212 6.13678ZM342.855 13.1348C344.962 16.1732 346.117 19.8317 346.268 24.1723L349.266 24.0677C349.098 19.235 347.799 15.0002 345.32 11.4251L342.855 13.1348ZM346.268 24.1735C346.375 27.1528 346.427 29.5059 346.427 31.24H349.427C349.427 29.4541 349.373 27.0605 349.266 24.0665L346.268 24.1735ZM346.427 31.24C346.427 32.9736 346.375 35.273 346.268 38.1445L349.266 38.2555C349.373 35.367 349.427 33.0264 349.427 31.24H346.427ZM346.269 38.1319C345.965 44.8168 343.586 49.7318 339.248 53.0945L341.086 55.4655C346.242 51.4682 348.93 45.6632 349.266 38.2681L346.269 38.1319ZM339.248 53.0945C334.84 56.5121 328.825 58.3 321.047 58.3V61.3C329.27 61.3 336.001 59.4079 341.086 55.4655L339.248 53.0945ZM321.047 45.7C323.169 45.7 325.015 45.0647 326.375 43.6331L324.2 41.5669C323.533 42.2686 322.552 42.7 321.047 42.7V45.7ZM326.348 43.6607C327.788 42.2203 328.408 40.156 328.467 37.7566L325.468 37.6834C325.419 39.6573 324.919 40.8464 324.227 41.5393L326.348 43.6607ZM328.466 37.7717C328.573 34.676 328.627 32.3875 328.627 30.92H325.627C325.627 32.3325 325.575 34.5773 325.468 37.6683L328.466 37.7717ZM328.627 30.92C328.627 29.3453 328.573 27.1101 328.466 24.2245L325.468 24.3355C325.575 27.2099 325.627 29.4013 325.627 30.92H328.627ZM328.467 24.2434C328.408 21.844 327.788 19.7797 326.348 18.3393L324.227 20.4607C324.919 21.1536 325.419 22.3427 325.468 24.3166L328.467 24.2434ZM326.348 18.3393C324.953 16.9445 323.133 16.3 321.047 16.3V19.3C322.481 19.3 323.488 19.7222 324.227 20.4607L326.348 18.3393ZM321.047 16.3C318.961 16.3 317.141 16.9445 315.747 18.3393L317.868 20.4607C318.606 19.7222 319.613 19.3 321.047 19.3V16.3ZM315.747 18.3393C314.306 19.7797 313.686 21.844 313.628 24.2434L316.627 24.3166C316.675 22.3427 317.175 21.1536 317.868 20.4607L315.747 18.3393ZM313.628 24.2245C313.574 25.6936 313.547 27.93 313.547 30.92H316.547C316.547 27.9367 316.574 25.7464 316.626 24.3355L313.628 24.2245ZM313.547 30.92C313.547 33.9112 313.574 36.1986 313.628 37.7717L316.626 37.6683C316.574 36.1481 316.547 33.9021 316.547 30.92H313.547ZM313.628 37.7566C313.686 40.1382 314.27 42.1914 315.64 43.6331L317.815 41.5669C317.158 40.8752 316.675 39.6751 316.627 37.6834L313.628 37.7566ZM315.667 43.6607C317.07 45.0641 318.922 45.7 321.047 45.7V42.7C319.546 42.7 318.518 42.2692 317.788 41.5393L315.667 43.6607ZM359.782 58.36L358.722 59.4207L359.782 58.36ZM359.782 3.64L358.722 2.57934L359.782 3.64ZM377.382 5.16L376.071 5.88846L376.084 5.91232L376.098 5.93567L377.382 5.16ZM388.982 24.36L387.698 25.1357L388.982 27.2607L390.266 25.1357L388.982 24.36ZM400.582 5.16L401.866 5.93567L401.88 5.91231L401.893 5.88846L400.582 5.16ZM400.662 58.36L399.602 59.4207V59.4207L400.662 58.36ZM400.022 34.92H401.522V29.5889L398.742 34.1378L400.022 34.92ZM394.742 43.56L396.008 44.3653L396.015 44.3538L396.022 44.3422L394.742 43.56ZM393.462 45L392.541 43.816L392.507 43.8426L392.474 43.8711L393.462 45ZM384.422 45L383.434 46.1289L383.467 46.1574L383.501 46.184L384.422 45ZM383.222 43.56L381.942 44.3422L381.949 44.3538L381.957 44.3653L383.222 43.56ZM377.942 34.92L379.222 34.1378L376.442 29.5889V34.92H377.942ZM377.302 58.36L376.242 57.2993L377.302 58.36ZM361.302 57.5C361.126 57.5 360.997 57.4537 360.843 57.2993L358.722 59.4207C359.421 60.1197 360.305 60.5 361.302 60.5V57.5ZM360.843 57.2993C360.689 57.145 360.642 57.0163 360.642 56.84H357.642C357.642 57.837 358.023 58.7217 358.722 59.4207L360.843 57.2993ZM360.642 56.84V5.16H357.642V56.84H360.642ZM360.642 5.16C360.642 4.98368 360.689 4.855 360.843 4.70066L358.722 2.57934C358.023 3.27833 357.642 4.16299 357.642 5.16H360.642ZM360.843 4.70066C360.997 4.54632 361.126 4.5 361.302 4.5V1.5C360.305 1.5 359.421 1.88034 358.722 2.57934L360.843 4.70066ZM361.302 4.5H373.942V1.5H361.302V4.5ZM373.942 4.5C374.826 4.5 375.502 4.86473 376.071 5.88846L378.693 4.43153C377.662 2.57526 376.046 1.5 373.942 1.5V4.5ZM376.098 5.93567L387.698 25.1357L390.266 23.5843L378.666 4.38432L376.098 5.93567ZM390.266 25.1357L401.866 5.93567L399.298 4.38432L387.698 23.5843L390.266 25.1357ZM401.893 5.88846C402.462 4.86474 403.139 4.5 404.022 4.5V1.5C401.919 1.5 400.302 2.57526 399.271 4.43153L401.893 5.88846ZM404.022 4.5H416.662V1.5H404.022V4.5ZM416.662 4.5C416.839 4.5 416.967 4.54632 417.122 4.70066L419.243 2.57934C418.544 1.88034 417.659 1.5 416.662 1.5V4.5ZM417.122 4.70066C417.276 4.855 417.322 4.98368 417.322 5.16H420.322C420.322 4.16299 419.942 3.27833 419.243 2.57934L417.122 4.70066ZM417.322 5.16V56.84H420.322V5.16H417.322ZM417.322 56.84C417.322 57.0163 417.276 57.145 417.122 57.2993L419.243 59.4207C419.942 58.7217 420.322 57.837 420.322 56.84H417.322ZM417.122 57.2993C416.967 57.4537 416.839 57.5 416.662 57.5V60.5C417.659 60.5 418.544 60.1197 419.243 59.4207L417.122 57.2993ZM416.662 57.5H402.182V60.5H416.662V57.5ZM402.182 57.5C402.006 57.5 401.877 57.4537 401.723 57.2993L399.602 59.4207C400.301 60.1197 401.185 60.5 402.182 60.5V57.5ZM401.723 57.2993C401.569 57.145 401.522 57.0163 401.522 56.84H398.522C398.522 57.837 398.903 58.7217 399.602 59.4207L401.723 57.2993ZM401.522 56.84V34.92H398.522V56.84H401.522ZM398.742 34.1378L393.462 42.7778L396.022 44.3422L401.302 35.7022L398.742 34.1378ZM393.477 42.7547C393.183 43.2168 392.868 43.5622 392.541 43.816L394.383 46.184C395.017 45.6912 395.555 45.0765 396.008 44.3653L393.477 42.7547ZM392.474 43.8711C392.379 43.9549 392.197 44.06 391.782 44.06V47.06C392.754 47.06 393.692 46.7918 394.45 46.1289L392.474 43.8711ZM391.782 44.06H386.182V47.06H391.782V44.06ZM386.182 44.06C385.773 44.06 385.524 43.9563 385.343 43.816L383.501 46.184C384.281 46.7904 385.204 47.06 386.182 47.06V44.06ZM385.41 43.8711C385.112 43.6103 384.801 43.247 384.488 42.7547L381.957 44.3653C382.39 45.0463 382.879 45.643 383.434 46.1289L385.41 43.8711ZM384.502 42.7778L379.222 34.1378L376.662 35.7022L381.942 44.3422L384.502 42.7778ZM376.442 34.92V56.84H379.442V34.92H376.442ZM376.442 56.84C376.442 57.0163 376.396 57.145 376.242 57.2993L378.363 59.4207C379.062 58.7217 379.442 57.837 379.442 56.84H376.442ZM376.242 57.2993C376.087 57.4537 375.959 57.5 375.782 57.5V60.5C376.779 60.5 377.664 60.1197 378.363 59.4207L376.242 57.2993ZM375.782 57.5H361.302V60.5H375.782V57.5ZM437.818 54.28L436.899 55.4655L437.818 54.28ZM430.218 38.2L428.719 38.2555L428.719 38.2681L430.218 38.2ZM430.218 24.12L431.717 24.1735L431.717 24.1723L430.218 24.12ZM433.818 12.28L432.585 11.4251L432.581 11.4319L432.576 11.4387L433.818 12.28ZM443.178 4.76L443.773 6.13678L443.178 4.76ZM470.698 4.76L471.293 3.38321L470.698 4.76ZM479.978 12.28L478.736 13.1213L478.741 13.1281L478.745 13.1348L479.978 12.28ZM483.658 24.12L482.159 24.1723V24.1735L483.658 24.12ZM483.658 38.2L485.156 38.2681L485.157 38.2555L483.658 38.2ZM476.058 54.28L475.139 53.0945H475.139L476.058 54.28ZM461.178 42.6L460.117 41.5393L460.104 41.5529L460.09 41.5669L461.178 42.6ZM462.858 37.72L461.359 37.6683L461.358 37.6759L461.358 37.6834L462.858 37.72ZM462.858 24.28L461.358 24.3166L461.358 24.326L461.359 24.3355L462.858 24.28ZM461.178 19.4L460.117 20.4607L461.178 19.4ZM452.698 19.4L453.758 20.4607L452.698 19.4ZM451.018 24.28L452.517 24.3355L452.517 24.326L452.517 24.3166L451.018 24.28ZM451.018 37.72L452.517 37.6834L452.517 37.6759L452.517 37.6683L451.018 37.72ZM452.618 42.6L451.53 43.6331L451.544 43.6471L451.557 43.6607L452.618 42.6ZM456.938 58.3C449.16 58.3 443.145 56.5121 438.737 53.0945L436.899 55.4655C441.984 59.4079 448.715 61.3 456.938 61.3V58.3ZM438.737 53.0945C434.399 49.7318 432.02 44.8168 431.716 38.1319L428.719 38.2681C429.056 45.6632 431.743 51.4682 436.899 55.4655L438.737 53.0945ZM431.717 38.1445C431.665 36.7343 431.638 34.4382 431.638 31.24H428.638C428.638 34.4418 428.664 36.7857 428.719 38.2555L431.717 38.1445ZM431.638 31.24C431.638 27.9888 431.665 25.6383 431.717 24.1735L428.719 24.0665C428.664 25.5884 428.638 27.9845 428.638 31.24H431.638ZM431.717 24.1723C431.869 19.8246 433 16.1612 435.06 13.1213L432.576 11.4387C430.155 15.0122 428.887 19.2421 428.719 24.0677L431.717 24.1723ZM435.05 13.1348C437.173 10.0741 440.065 7.74028 443.773 6.13678L442.582 3.38321C438.397 5.19305 435.049 7.87255 432.585 11.4251L435.05 13.1348ZM443.773 6.13678C447.496 4.52692 451.873 3.7 456.938 3.7V0.699997C451.549 0.699997 446.753 1.57974 442.582 3.38321L443.773 6.13678ZM456.938 3.7C462.003 3.7 466.38 4.52692 470.102 6.13678L471.293 3.38321C467.123 1.57974 462.326 0.699997 456.938 0.699997V3.7ZM470.102 6.13678C473.808 7.73917 476.668 10.0692 478.736 13.1213L481.22 11.4387C478.807 7.87746 475.481 5.19416 471.293 3.38321L470.102 6.13678ZM478.745 13.1348C480.852 16.1732 482.007 19.8317 482.159 24.1723L485.157 24.0677C484.988 19.235 483.69 15.0002 481.21 11.4251L478.745 13.1348ZM482.159 24.1735C482.265 27.1528 482.318 29.5059 482.318 31.24H485.318C485.318 29.4541 485.264 27.0605 485.157 24.0665L482.159 24.1735ZM482.318 31.24C482.318 32.9736 482.265 35.273 482.159 38.1445L485.157 38.2555C485.264 35.367 485.318 33.0264 485.318 31.24H482.318ZM482.159 38.1319C481.856 44.8168 479.476 49.7318 475.139 53.0945L476.977 55.4655C482.133 51.4682 484.82 45.6632 485.156 38.2681L482.159 38.1319ZM475.139 53.0945C470.731 56.5121 464.715 58.3 456.938 58.3V61.3C465.16 61.3 471.892 59.4079 476.977 55.4655L475.139 53.0945ZM456.938 45.7C459.06 45.7 460.905 45.0647 462.265 43.6331L460.09 41.5669C459.424 42.2686 458.442 42.7 456.938 42.7V45.7ZM462.238 43.6607C463.679 42.2203 464.299 40.156 464.357 37.7566L461.358 37.6834C461.31 39.6573 460.81 40.8464 460.117 41.5393L462.238 43.6607ZM464.357 37.7717C464.464 34.676 464.518 32.3875 464.518 30.92H461.518C461.518 32.3325 461.465 34.5773 461.359 37.6683L464.357 37.7717ZM464.518 30.92C464.518 29.3453 464.464 27.1101 464.357 24.2245L461.359 24.3355C461.465 27.2099 461.518 29.4013 461.518 30.92H464.518ZM464.357 24.2434C464.299 21.844 463.679 19.7797 462.238 18.3393L460.117 20.4607C460.81 21.1536 461.31 22.3427 461.358 24.3166L464.357 24.2434ZM462.238 18.3393C460.844 16.9445 459.024 16.3 456.938 16.3V19.3C458.372 19.3 459.379 19.7222 460.117 20.4607L462.238 18.3393ZM456.938 16.3C454.852 16.3 453.032 16.9445 451.637 18.3393L453.758 20.4607C454.497 19.7222 455.504 19.3 456.938 19.3V16.3ZM451.637 18.3393C450.197 19.7797 449.577 21.844 449.518 24.2434L452.517 24.3166C452.566 22.3427 453.066 21.1536 453.758 20.4607L451.637 18.3393ZM449.519 24.2245C449.464 25.6936 449.438 27.93 449.438 30.92H452.438C452.438 27.9367 452.465 25.7464 452.517 24.3355L449.519 24.2245ZM449.438 30.92C449.438 33.9112 449.464 36.1986 449.519 37.7717L452.517 37.6683C452.465 36.1481 452.438 33.9021 452.438 30.92H449.438ZM449.518 37.7566C449.576 40.1382 450.161 42.1914 451.53 43.6331L453.705 41.5669C453.048 40.8752 452.566 39.6751 452.517 37.6834L449.518 37.7566ZM451.557 43.6607C452.961 45.0641 454.813 45.7 456.938 45.7V42.7C455.436 42.7 454.408 42.2692 453.678 41.5393L451.557 43.6607ZM503.993 57.48L503.439 58.874L503.445 58.8766L503.993 57.48ZM495.193 51.32L493.996 52.2239L494 52.2299L494.005 52.2358L495.193 51.32ZM492.073 42.76H490.573V42.7859L490.574 42.8117L492.073 42.76ZM492.553 41.56L493.613 42.6207L492.553 41.56ZM510.793 41.32L510.122 42.6616L510.217 42.7093L510.318 42.743L510.793 41.32ZM512.473 42.36L511.513 43.5123L511.526 43.524L511.541 43.5352L512.473 42.36ZM522.713 43.64L523.208 45.0558L523.228 45.049L523.247 45.0417L522.713 43.64ZM522.233 39.8L521.712 41.2066L521.735 41.2152L521.758 41.223L522.233 39.8ZM514.073 38.2L514.271 36.7132L514.269 36.7129L514.073 38.2ZM496.473 11.08L495.265 10.191L495.262 10.195L496.473 11.08ZM505.113 4.52L504.532 3.13717L505.113 4.52ZM531.033 4.76L530.416 6.12752L531.033 4.76ZM539.753 11.24L538.568 12.1592L538.572 12.1652L538.577 12.1711L539.753 11.24ZM542.953 18.76H544.453V18.7274L544.451 18.6948L542.953 18.76ZM542.393 20.04L541.332 18.9793V18.9793L542.393 20.04ZM523.513 20.28L522.842 21.6216L522.912 21.6568L522.986 21.6845L523.513 20.28ZM522.073 19.24L523.076 18.1251L523.063 18.1129L523.049 18.1011L522.073 19.24ZM515.833 22.04L515.235 23.4156L515.245 23.4202L515.256 23.4246L515.833 22.04ZM522.873 23.48L523.066 21.9925L523.059 21.9916L522.873 23.48ZM535.673 26.6L535.076 27.9764L535.085 27.9799L535.673 26.6ZM542.713 32.2L541.434 32.9845L541.445 33.0017L541.456 33.0185L542.713 32.2ZM541.513 50.92L542.678 51.8651L542.686 51.8544L541.513 50.92ZM531.993 57.48L531.458 56.0785L531.452 56.0809L531.993 57.48ZM518.393 58.3C512.868 58.3 508.265 57.5431 504.54 56.0834L503.445 58.8766C507.614 60.5102 512.611 61.3 518.393 61.3V58.3ZM504.547 56.086C500.831 54.61 498.148 52.6963 496.381 50.4042L494.005 52.2358C496.185 55.0637 499.368 57.2567 503.439 58.874L504.547 56.086ZM496.39 50.4161C494.591 48.0339 493.667 45.4749 493.572 42.7083L490.574 42.8117C490.692 46.2318 491.848 49.3794 493.996 52.2239L496.39 50.4161ZM493.573 42.76C493.573 42.6891 493.584 42.6608 493.586 42.6571C493.587 42.6539 493.588 42.651 493.591 42.647C493.594 42.6429 493.6 42.634 493.613 42.6207L491.492 40.4993C490.872 41.119 490.573 41.909 490.573 42.76H493.573ZM493.613 42.6207C493.736 42.4977 493.792 42.5 493.833 42.5V39.5C492.913 39.5 492.116 39.8756 491.492 40.4993L493.613 42.6207ZM493.833 42.5H509.033V39.5H493.833V42.5ZM509.033 42.5C509.665 42.5 509.989 42.5949 510.122 42.6616L511.464 39.9784C510.744 39.6184 509.894 39.5 509.033 39.5V42.5ZM510.318 42.743C510.543 42.8179 510.935 43.0314 511.513 43.5123L513.433 41.2077C512.73 40.6219 512.003 40.1421 511.267 39.897L510.318 42.743ZM511.541 43.5352C513.406 45.0147 515.73 45.7 518.393 45.7V42.7C516.256 42.7 514.633 42.1587 513.405 41.1848L511.541 43.5352ZM518.393 45.7C520.286 45.7 521.916 45.5082 523.208 45.0558L522.217 42.2242C521.377 42.5185 520.127 42.7 518.393 42.7V45.7ZM523.247 45.0417C524.483 44.5707 525.893 43.6571 525.893 41.96H522.893C522.893 41.9247 522.901 41.881 522.918 41.8431C522.934 41.809 522.942 41.8092 522.912 41.8393C522.838 41.9131 522.633 42.0652 522.179 42.2383L523.247 45.0417ZM525.893 41.96C525.893 40.0036 524.343 38.9223 522.707 38.377L521.758 41.223C522.357 41.4226 522.658 41.6262 522.792 41.7607C522.89 41.8583 522.893 41.9038 522.893 41.96H525.893ZM522.754 38.3934C521.136 37.7943 518.259 37.2449 514.271 36.7132L513.875 39.6868C517.886 40.2218 520.449 40.739 521.712 41.2066L522.754 38.3934ZM514.269 36.7129C507.533 35.8253 502.697 33.9687 499.566 31.2986C496.495 28.6801 494.933 25.1689 494.933 20.6H491.933C491.933 25.9511 493.81 30.3332 497.62 33.5814C501.368 36.778 506.852 38.7614 513.877 39.6871L514.269 36.7129ZM494.933 20.6C494.933 17.3312 495.853 14.4706 497.684 11.965L495.262 10.195C493.039 13.236 491.933 16.7222 491.933 20.6H494.933ZM497.681 11.969C499.579 9.38925 502.229 7.35925 505.694 5.90283L504.532 3.13717C500.637 4.77408 497.526 7.11741 495.265 10.191L497.681 11.969ZM505.694 5.90283C509.157 4.44747 513.193 3.7 517.833 3.7V0.699997C512.873 0.699997 508.429 1.49919 504.532 3.13717L505.694 5.90283ZM517.833 3.7C522.677 3.7 526.859 4.52432 530.416 6.12752L531.649 3.39248C527.633 1.58234 523.016 0.699997 517.833 0.699997V3.7ZM530.416 6.12752C534.036 7.75873 536.725 9.78292 538.568 12.1592L540.938 10.3208C538.728 7.47042 535.603 5.17459 531.649 3.39248L530.416 6.12752ZM538.577 12.1711C540.471 14.5643 541.365 16.7765 541.454 18.8252L544.451 18.6948C544.327 15.8368 543.088 13.0357 540.929 10.3089L538.577 12.1711ZM541.453 18.76C541.453 18.8005 541.455 18.8564 541.332 18.9793L543.453 21.1007C544.077 20.4769 544.453 19.6795 544.453 18.76H541.453ZM541.332 18.9793C541.311 19.0003 541.297 19.0115 541.289 19.0167C541.282 19.0217 541.28 19.0223 541.282 19.0213C541.284 19.0202 541.287 19.0194 541.289 19.0191C541.29 19.0189 541.285 19.02 541.273 19.02V22.02C542.123 22.02 542.871 21.683 543.453 21.1007L541.332 18.9793ZM541.273 19.02H525.273V22.02H541.273V19.02ZM525.273 19.02C524.606 19.02 524.224 18.9448 524.039 18.8755L522.986 21.6845C523.655 21.9352 524.446 22.02 525.273 22.02V19.02ZM524.184 18.9384C523.922 18.8074 523.554 18.5554 523.076 18.1251L521.069 20.3549C521.658 20.8846 522.251 21.3259 522.842 21.6216L524.184 18.9384ZM523.049 18.1011C521.615 16.8721 519.838 16.3 517.833 16.3V19.3C519.241 19.3 520.29 19.6879 521.097 20.3789L523.049 18.1011ZM517.833 16.3C516.456 16.3 515.178 16.4921 514.197 17.0643C513.092 17.709 512.493 18.7649 512.493 20.04H515.493C515.493 19.8861 515.524 19.824 515.535 19.8042C515.546 19.785 515.582 19.7297 515.709 19.6557C516.008 19.4812 516.65 19.3 517.833 19.3V16.3ZM512.493 20.04C512.493 21.7777 513.862 22.8187 515.235 23.4156L516.431 20.6644C515.926 20.4448 515.671 20.2485 515.557 20.1244C515.505 20.0683 515.492 20.0381 515.492 20.0363C515.491 20.0348 515.492 20.0363 515.492 20.0396C515.493 20.0428 515.493 20.0435 515.493 20.04H512.493ZM515.256 23.4246C516.746 24.0454 519.279 24.5425 522.687 24.9684L523.059 21.9916C519.64 21.5642 517.48 21.1013 516.41 20.6554L515.256 23.4246ZM522.679 24.9675C527.94 25.6514 532.055 26.6669 535.076 27.9763L536.269 25.2237C532.891 23.7598 528.472 22.6953 523.066 21.9925L522.679 24.9675ZM535.085 27.9799C538.133 29.2792 540.198 30.9697 541.434 32.9845L543.991 31.4155C542.348 28.737 539.719 26.6941 536.261 25.2201L535.085 27.9799ZM541.456 33.0185C542.751 35.0074 543.453 37.6083 543.453 40.92H546.453C546.453 37.1917 545.661 33.9792 543.97 31.3815L541.456 33.0185ZM543.453 40.92C543.453 44.3777 542.415 47.3792 540.339 49.9856L542.686 51.8544C545.197 48.7008 546.453 45.0356 546.453 40.92H543.453ZM540.348 49.9749C538.25 52.5606 535.312 54.6078 531.458 56.0786L532.528 58.8814C536.78 57.2588 540.189 54.9328 542.678 51.8651L540.348 49.9749ZM531.452 56.0809C527.653 57.55 523.307 58.3 518.393 58.3V61.3C523.612 61.3 528.333 60.5034 532.534 58.8791L531.452 56.0809ZM17.3937 108.2H18.8937V106.7H17.3937V108.2ZM52.5138 91.64L53.5744 90.5793L52.5138 91.64ZM52.5138 107.56L53.5744 108.621V108.621L52.5138 107.56ZM37.7138 108.2V106.7H36.2138V108.2H37.7138ZM37.0738 146.36L38.1344 147.421L37.0738 146.36ZM19.5538 145.5C19.3774 145.5 19.2487 145.454 19.0944 145.299L16.9731 147.421C17.6721 148.12 18.5567 148.5 19.5538 148.5V145.5ZM19.0944 145.299C18.9401 145.145 18.8937 145.016 18.8937 144.84H15.8937C15.8937 145.837 16.2741 146.722 16.9731 147.421L19.0944 145.299ZM18.8937 144.84V108.2H15.8937V144.84H18.8937ZM17.3937 106.7H4.11375V109.7H17.3937V106.7ZM4.11375 106.7C3.93743 106.7 3.80875 106.654 3.65441 106.499L1.53309 108.621C2.23208 109.32 3.11674 109.7 4.11375 109.7V106.7ZM3.65441 106.499C3.50007 106.345 3.45375 106.216 3.45375 106.04H0.453751C0.453751 107.037 0.834095 107.922 1.53309 108.621L3.65441 106.499ZM3.45375 106.04V93.16H0.453751V106.04H3.45375ZM3.45375 93.16C3.45375 92.9837 3.50007 92.855 3.65441 92.7007L1.53309 90.5793C0.834095 91.2783 0.453751 92.163 0.453751 93.16H3.45375ZM3.65441 92.7007C3.80875 92.5463 3.93743 92.5 4.11375 92.5V89.5C3.11674 89.5 2.23208 89.8803 1.53309 90.5793L3.65441 92.7007ZM4.11375 92.5H50.9938V89.5H4.11375V92.5ZM50.9938 92.5C51.1701 92.5 51.2988 92.5463 51.4531 92.7007L53.5744 90.5793C52.8754 89.8803 51.9908 89.5 50.9938 89.5V92.5ZM51.4531 92.7007C51.6074 92.855 51.6537 92.9837 51.6537 93.16H54.6537C54.6537 92.163 54.2734 91.2783 53.5744 90.5793L51.4531 92.7007ZM51.6537 93.16V106.04H54.6537V93.16H51.6537ZM51.6537 106.04C51.6537 106.216 51.6074 106.345 51.4531 106.499L53.5744 108.621C54.2734 107.922 54.6537 107.037 54.6537 106.04H51.6537ZM51.4531 106.499C51.2988 106.654 51.1701 106.7 50.9938 106.7V109.7C51.9908 109.7 52.8754 109.32 53.5744 108.621L51.4531 106.499ZM50.9938 106.7H37.7138V109.7H50.9938V106.7ZM36.2138 108.2V144.84H39.2138V108.2H36.2138ZM36.2138 144.84C36.2138 145.016 36.1674 145.145 36.0131 145.299L38.1344 147.421C38.8334 146.722 39.2138 145.837 39.2138 144.84H36.2138ZM36.0131 145.299C35.8588 145.454 35.7301 145.5 35.5537 145.5V148.5C36.5508 148.5 37.4354 148.12 38.1344 147.421L36.0131 145.299ZM35.5537 145.5H19.5538V148.5H35.5537V145.5ZM63.54 146.36L62.4793 147.421L63.54 146.36ZM63.54 91.64L62.4793 90.5793L63.54 91.64ZM106.74 96.2L105.801 97.3699L105.81 97.3769L106.74 96.2ZM110.9 119.64L112.191 120.404L112.198 120.393L110.9 119.64ZM104.58 126.12L103.771 124.857L102.599 125.607L103.26 126.832L104.58 126.12ZM114.42 144.36L115.762 143.689L115.751 143.668L115.74 143.648L114.42 144.36ZM114.1 146.52L115.161 147.581L114.1 146.52ZM94.18 146.36L93.1766 147.475L93.2346 147.527L93.2977 147.573L94.18 146.36ZM93.06 144.84L94.4527 144.283L94.4409 144.253L94.4277 144.224L93.06 144.84ZM86.18 129.56L87.5478 128.944L87.1497 128.06H86.18V129.56ZM82.9 129.56V128.06H81.4V129.56H82.9ZM82.26 146.36L83.3207 147.421L82.26 146.36ZM91.46 113.24L92.5989 114.216L92.6154 114.197L92.6313 114.177L91.46 113.24ZM91.46 107.24L90.2006 108.055L90.2289 108.098L90.26 108.14L91.46 107.24ZM82.9 105.88V104.38H81.4V105.88H82.9ZM82.9 114.36H81.4V115.86H82.9V114.36ZM65.06 145.5C64.8837 145.5 64.755 145.454 64.6007 145.299L62.4793 147.421C63.1783 148.12 64.063 148.5 65.06 148.5V145.5ZM64.6007 145.299C64.4463 145.145 64.4 145.016 64.4 144.84H61.4C61.4 145.837 61.7803 146.722 62.4793 147.421L64.6007 145.299ZM64.4 144.84V93.16H61.4V144.84H64.4ZM64.4 93.16C64.4 92.9837 64.4463 92.855 64.6007 92.7007L62.4793 90.5793C61.7803 91.2783 61.4 92.163 61.4 93.16H64.4ZM64.6007 92.7007C64.755 92.5463 64.8837 92.5 65.06 92.5V89.5C64.063 89.5 63.1783 89.8803 62.4793 90.5793L64.6007 92.7007ZM65.06 92.5H88.74V89.5H65.06V92.5ZM88.74 92.5C96.2089 92.5 101.834 94.1862 105.801 97.3699L107.679 95.0301C103.006 91.2804 96.6311 89.5 88.74 89.5V92.5ZM105.81 97.3769C109.729 100.474 111.72 104.764 111.72 110.44H114.72C114.72 103.956 112.391 98.7531 107.67 95.023L105.81 97.3769ZM111.72 110.44C111.72 113.676 111.001 116.477 109.602 118.887L112.198 120.393C113.893 117.47 114.72 114.137 114.72 110.44H111.72ZM109.609 118.876C108.187 121.279 106.249 123.271 103.771 124.857L105.389 127.383C108.244 125.556 110.52 123.228 112.191 120.404L109.609 118.876ZM103.26 126.832L113.1 145.072L115.74 143.648L105.9 125.408L103.26 126.832ZM113.078 145.031C113.168 145.21 113.16 145.272 113.16 145.24H116.16C116.16 144.675 115.992 144.15 115.762 143.689L113.078 145.031ZM113.16 145.24C113.16 145.281 113.162 145.336 113.039 145.459L115.161 147.581C115.784 146.957 116.16 146.159 116.16 145.24H113.16ZM113.039 145.459C113.026 145.473 113.017 145.479 113.013 145.482C113.009 145.485 113.006 145.486 113.003 145.487C112.999 145.489 112.971 145.5 112.9 145.5V148.5C113.751 148.5 114.541 148.2 115.161 147.581L113.039 145.459ZM112.9 145.5H96.5V148.5H112.9V145.5ZM96.5 145.5C95.7553 145.5 95.321 145.335 95.0623 145.147L93.2977 147.573C94.2123 148.238 95.3247 148.5 96.5 148.5V145.5ZM95.1834 145.245C94.7794 144.881 94.5622 144.557 94.4527 144.283L91.6673 145.397C91.9845 146.19 92.514 146.879 93.1766 147.475L95.1834 145.245ZM94.4277 144.224L87.5478 128.944L84.8123 130.176L91.6923 145.456L94.4277 144.224ZM86.18 128.06H82.9V131.06H86.18V128.06ZM81.4 129.56V144.84H84.4V129.56H81.4ZM81.4 144.84C81.4 145.016 81.3537 145.145 81.1993 145.299L83.3207 147.421C84.0197 146.722 84.4 145.837 84.4 144.84H81.4ZM81.1993 145.299C81.045 145.454 80.9163 145.5 80.74 145.5V148.5C81.737 148.5 82.6217 148.12 83.3207 147.421L81.1993 145.299ZM80.74 145.5H65.06V148.5H80.74V145.5ZM88.74 115.86C90.2582 115.86 91.6185 115.36 92.5989 114.216L90.3211 112.264C90.0215 112.613 89.5685 112.86 88.74 112.86V115.86ZM92.6313 114.177C93.5145 113.073 93.92 111.742 93.92 110.28H90.92C90.92 111.165 90.6855 111.807 90.2887 112.303L92.6313 114.177ZM93.92 110.28C93.92 108.816 93.5143 107.479 92.66 106.34L90.26 108.14C90.6857 108.708 90.92 109.397 90.92 110.28H93.92ZM92.7194 106.425C91.8148 105.027 90.3942 104.38 88.74 104.38V107.38C89.5391 107.38 89.9318 107.639 90.2006 108.055L92.7194 106.425ZM88.74 104.38H82.9V107.38H88.74V104.38ZM81.4 105.88V114.36H84.4V105.88H81.4ZM82.9 115.86H88.74V112.86H82.9V115.86ZM120.714 146.52L119.575 147.496L119.651 147.584L119.738 147.659L120.714 146.52ZM120.314 144.68L118.898 144.185L118.895 144.195L118.891 144.206L120.314 144.68ZM138.154 93.64L139.57 94.1349L139.58 94.1082L139.588 94.0811L138.154 93.64ZM139.354 91.8L138.345 90.6901L139.354 91.8ZM161.514 91.8L162.523 90.6901L161.514 91.8ZM162.714 93.64L161.281 94.0811L161.289 94.1082L161.298 94.1349L162.714 93.64ZM180.554 144.68L181.977 144.206L181.974 144.195L181.97 144.185L180.554 144.68ZM180.074 146.52L179.014 145.459L180.074 146.52ZM160.954 145L162.366 144.492L162.364 144.487L160.954 145ZM159.034 139.72L160.444 139.207L160.085 138.22H159.034V139.72ZM141.834 139.72V138.22H140.784L140.425 139.207L141.834 139.72ZM139.914 145L138.505 144.487L138.503 144.492L139.914 145ZM154.954 124.12V125.62H156.983L156.389 123.68L154.954 124.12ZM150.394 109.24L151.829 108.8L150.382 104.079L148.958 108.808L150.394 109.24ZM145.914 124.12L144.478 123.688L143.896 125.62H145.914V124.12ZM121.994 145.5C121.882 145.5 121.799 145.474 121.691 145.381L119.738 147.659C120.376 148.206 121.147 148.5 121.994 148.5V145.5ZM121.853 145.544C121.76 145.435 121.734 145.352 121.734 145.24H118.734C118.734 146.088 119.029 146.858 119.575 147.496L121.853 145.544ZM121.734 145.24C121.734 145.195 121.737 145.167 121.739 145.152C121.741 145.138 121.742 145.14 121.737 145.154L118.891 144.206C118.776 144.553 118.734 144.906 118.734 145.24H121.734ZM121.73 145.175L139.57 94.1349L136.738 93.1451L118.898 144.185L121.73 145.175ZM139.588 94.0811C139.715 93.6683 139.957 93.2797 140.363 92.9099L138.345 90.6901C137.579 91.3869 137.02 92.225 136.721 93.1989L139.588 94.0811ZM140.363 92.9099C140.604 92.6914 141.007 92.5 141.754 92.5V89.5C140.475 89.5 139.278 89.8419 138.345 90.6901L140.363 92.9099ZM141.754 92.5H159.114V89.5H141.754V92.5ZM159.114 92.5C159.862 92.5 160.265 92.6914 160.505 92.9099L162.523 90.6901C161.59 89.8419 160.394 89.5 159.114 89.5V92.5ZM160.505 92.9099C160.912 93.2797 161.154 93.6683 161.281 94.0811L164.148 93.1989C163.848 92.225 163.29 91.3869 162.523 90.6901L160.505 92.9099ZM161.298 94.1349L179.138 145.175L181.97 144.185L164.13 93.1451L161.298 94.1349ZM179.131 145.154C179.126 145.14 179.127 145.138 179.129 145.152C179.132 145.167 179.134 145.195 179.134 145.24H182.134C182.134 144.906 182.093 144.553 181.977 144.206L179.131 145.154ZM179.134 145.24C179.134 145.281 179.137 145.336 179.014 145.459L181.135 147.581C181.759 146.957 182.134 146.159 182.134 145.24H179.134ZM179.014 145.459C179 145.473 178.991 145.479 178.987 145.482C178.983 145.485 178.98 145.486 178.977 145.487C178.974 145.489 178.945 145.5 178.874 145.5V148.5C179.725 148.5 180.515 148.2 181.135 147.581L179.014 145.459ZM178.874 145.5H164.074V148.5H178.874V145.5ZM164.074 145.5C163.478 145.5 163.12 145.376 162.904 145.237C162.702 145.108 162.511 144.895 162.366 144.492L159.543 145.508C159.878 146.438 160.447 147.225 161.285 147.763C162.108 148.291 163.071 148.5 164.074 148.5V145.5ZM162.364 144.487L160.444 139.207L157.625 140.233L159.545 145.513L162.364 144.487ZM159.034 138.22H141.834V141.22H159.034V138.22ZM140.425 139.207L138.505 144.487L141.324 145.513L143.244 140.233L140.425 139.207ZM138.503 144.492C138.358 144.895 138.167 145.108 137.965 145.237C137.748 145.376 137.391 145.5 136.794 145.5V148.5C137.798 148.5 138.76 148.291 139.584 147.763C140.422 147.225 140.991 146.438 141.326 145.508L138.503 144.492ZM136.794 145.5H121.994V148.5H136.794V145.5ZM156.389 123.68L151.829 108.8L148.96 109.679L153.52 124.56L156.389 123.68ZM148.958 108.808L144.478 123.688L147.351 124.552L151.831 109.672L148.958 108.808ZM145.914 125.62H154.954V122.62H145.914V125.62ZM189.665 146.36L188.604 147.421L189.665 146.36ZM189.665 91.64L188.604 90.5793L189.665 91.64ZM207.105 92.84L205.799 93.5781L205.811 93.5999L205.825 93.6212L207.105 92.84ZM220.625 115L219.345 115.781L222.125 120.339V115H220.625ZM221.265 91.64L222.326 92.7007V92.7007L221.265 91.64ZM222.545 146.44L223.466 145.256L222.545 146.44ZM221.345 145.16L220.095 145.989L220.097 145.992L221.345 145.16ZM207.825 124.76L209.075 123.931L206.325 119.781V124.76H207.825ZM207.185 146.36L206.124 145.299V145.299L207.185 146.36ZM191.185 145.5C191.009 145.5 190.88 145.454 190.726 145.299L188.604 147.421C189.303 148.12 190.188 148.5 191.185 148.5V145.5ZM190.726 145.299C190.571 145.145 190.525 145.016 190.525 144.84H187.525C187.525 145.837 187.905 146.722 188.604 147.421L190.726 145.299ZM190.525 144.84V93.16H187.525V144.84H190.525ZM190.525 93.16C190.525 92.9837 190.571 92.855 190.726 92.7007L188.604 90.5793C187.905 91.2783 187.525 92.163 187.525 93.16H190.525ZM190.726 92.7007C190.88 92.5463 191.009 92.5 191.185 92.5V89.5C190.188 89.5 189.303 89.8803 188.604 90.5793L190.726 92.7007ZM191.185 92.5H203.825V89.5H191.185V92.5ZM203.825 92.5C204.817 92.5 205.391 92.8559 205.799 93.5781L208.411 92.1019C207.432 90.3708 205.819 89.5 203.825 89.5V92.5ZM205.825 93.6212L219.345 115.781L221.906 114.219L208.385 92.0588L205.825 93.6212ZM222.125 115V93.16H219.125V115H222.125ZM222.125 93.16C222.125 92.9837 222.171 92.855 222.326 92.7007L220.204 90.5793C219.505 91.2783 219.125 92.163 219.125 93.16H222.125ZM222.326 92.7007C222.48 92.5463 222.609 92.5 222.785 92.5V89.5C221.788 89.5 220.903 89.8803 220.204 90.5793L222.326 92.7007ZM222.785 92.5H237.265V89.5H222.785V92.5ZM237.265 92.5C237.441 92.5 237.57 92.5463 237.724 92.7007L239.846 90.5793C239.147 89.8803 238.262 89.5 237.265 89.5V92.5ZM237.724 92.7007C237.879 92.855 237.925 92.9837 237.925 93.16H240.925C240.925 92.163 240.545 91.2783 239.846 90.5793L237.724 92.7007ZM237.925 93.16V144.84H240.925V93.16H237.925ZM237.925 144.84C237.925 145.016 237.879 145.145 237.724 145.299L239.846 147.421C240.545 146.722 240.925 145.837 240.925 144.84H237.925ZM237.724 145.299C237.57 145.454 237.441 145.5 237.265 145.5V148.5C238.262 148.5 239.147 148.12 239.846 147.421L237.724 145.299ZM237.265 145.5H224.625V148.5H237.265V145.5ZM224.625 145.5C223.895 145.5 223.581 145.346 223.466 145.256L221.624 147.624C222.469 148.281 223.541 148.5 224.625 148.5V145.5ZM223.466 145.256C223.106 144.976 222.819 144.667 222.593 144.328L220.097 145.992C220.511 146.613 221.024 147.157 221.624 147.624L223.466 145.256ZM222.595 144.331L209.075 123.931L206.575 125.589L220.095 145.989L222.595 144.331ZM206.325 124.76V144.84H209.325V124.76H206.325ZM206.325 144.84C206.325 145.016 206.279 145.145 206.124 145.299L208.246 147.421C208.945 146.722 209.325 145.837 209.325 144.84H206.325ZM206.124 145.299C205.97 145.454 205.841 145.5 205.665 145.5V148.5C206.662 148.5 207.547 148.12 208.246 147.421L206.124 145.299ZM205.665 145.5H191.185V148.5H205.665V145.5ZM261.204 145.48L260.65 146.874L260.656 146.877L261.204 145.48ZM252.404 139.32L251.207 140.224L251.211 140.23L251.216 140.236L252.404 139.32ZM249.284 130.76H247.784V130.786L247.785 130.812L249.284 130.76ZM249.764 129.56L250.824 130.621L249.764 129.56ZM268.004 129.32L267.333 130.662L267.428 130.709L267.529 130.743L268.004 129.32ZM269.684 130.36L268.723 131.512L268.737 131.524L268.752 131.535L269.684 130.36ZM279.924 131.64L280.419 133.056L280.439 133.049L280.458 133.042L279.924 131.64ZM279.444 127.8L278.923 129.207L278.946 129.215L278.969 129.223L279.444 127.8ZM271.284 126.2L271.482 124.713L271.48 124.713L271.284 126.2ZM253.684 99.08L252.476 98.191L252.473 98.195L253.684 99.08ZM262.324 92.52L261.743 91.1372L262.324 92.52ZM288.244 92.76L287.627 94.1275L288.244 92.76ZM296.964 99.24L295.778 100.159L295.783 100.165L295.788 100.171L296.964 99.24ZM300.164 106.76H301.664V106.727L301.662 106.695L300.164 106.76ZM299.604 108.04L298.543 106.979L299.604 108.04ZM280.724 108.28L280.053 109.622L280.123 109.657L280.197 109.684L280.724 108.28ZM279.284 107.24L280.287 106.125L280.274 106.113L280.26 106.101L279.284 107.24ZM273.044 110.04L272.446 111.416L272.456 111.42L272.467 111.425L273.044 110.04ZM280.084 111.48L280.277 109.992L280.27 109.992L280.084 111.48ZM292.884 114.6L292.287 115.976L292.296 115.98L292.884 114.6ZM299.924 120.2L298.645 120.985L298.656 121.002L298.667 121.019L299.924 120.2ZM298.724 138.92L299.889 139.865L299.897 139.854L298.724 138.92ZM289.204 145.48L288.669 144.079L288.663 144.081L289.204 145.48ZM275.604 146.3C270.079 146.3 265.476 145.543 261.751 144.083L260.656 146.877C264.825 148.51 269.822 149.3 275.604 149.3V146.3ZM261.758 144.086C258.042 142.61 255.359 140.696 253.592 138.404L251.216 140.236C253.396 143.064 256.579 145.257 260.65 146.874L261.758 144.086ZM253.601 138.416C251.802 136.034 250.878 133.475 250.783 130.708L247.785 130.812C247.903 134.232 249.059 137.379 251.207 140.224L253.601 138.416ZM250.784 130.76C250.784 130.689 250.795 130.661 250.796 130.657C250.798 130.654 250.799 130.651 250.802 130.647C250.805 130.643 250.811 130.634 250.824 130.621L248.703 128.499C248.083 129.119 247.784 129.909 247.784 130.76H250.784ZM250.824 130.621C250.947 130.498 251.003 130.5 251.044 130.5V127.5C250.124 127.5 249.327 127.876 248.703 128.499L250.824 130.621ZM251.044 130.5H266.244V127.5H251.044V130.5ZM266.244 130.5C266.876 130.5 267.2 130.595 267.333 130.662L268.675 127.978C267.955 127.618 267.105 127.5 266.244 127.5V130.5ZM267.529 130.743C267.754 130.818 268.146 131.031 268.723 131.512L270.644 129.208C269.941 128.622 269.214 128.142 268.478 127.897L267.529 130.743ZM268.752 131.535C270.617 133.015 272.941 133.7 275.604 133.7V130.7C273.467 130.7 271.844 130.159 270.616 129.185L268.752 131.535ZM275.604 133.7C277.497 133.7 279.127 133.508 280.419 133.056L279.428 130.224C278.588 130.518 277.338 130.7 275.604 130.7V133.7ZM280.458 133.042C281.694 132.571 283.104 131.657 283.104 129.96H280.104C280.104 129.925 280.112 129.881 280.129 129.843C280.145 129.809 280.153 129.809 280.123 129.839C280.049 129.913 279.844 130.065 279.39 130.238L280.458 133.042ZM283.104 129.96C283.104 128.004 281.554 126.922 279.918 126.377L278.969 129.223C279.568 129.423 279.869 129.626 280.003 129.761C280.101 129.858 280.104 129.904 280.104 129.96H283.104ZM279.965 126.393C278.347 125.794 275.47 125.245 271.482 124.713L271.086 127.687C275.097 128.222 277.66 128.739 278.923 129.207L279.965 126.393ZM271.48 124.713C264.744 123.825 259.908 121.969 256.777 119.299C253.706 116.68 252.144 113.169 252.144 108.6H249.144C249.144 113.951 251.021 118.333 254.83 121.581C258.579 124.778 264.063 126.761 271.088 127.687L271.48 124.713ZM252.144 108.6C252.144 105.331 253.064 102.471 254.895 99.965L252.473 98.195C250.25 101.236 249.144 104.722 249.144 108.6H252.144ZM254.892 99.969C256.79 97.3893 259.44 95.3593 262.905 93.9028L261.743 91.1372C257.848 92.7741 254.737 95.1174 252.476 98.191L254.892 99.969ZM262.905 93.9028C266.368 92.4475 270.404 91.7 275.044 91.7V88.7C270.084 88.7 265.64 89.4992 261.743 91.1372L262.905 93.9028ZM275.044 91.7C279.888 91.7 284.07 92.5243 287.627 94.1275L288.86 91.3925C284.844 89.5823 280.226 88.7 275.044 88.7V91.7ZM287.627 94.1275C291.247 95.7587 293.936 97.7829 295.778 100.159L298.149 98.3208C295.939 95.4704 292.814 93.1746 288.86 91.3925L287.627 94.1275ZM295.788 100.171C297.682 102.564 298.576 104.777 298.665 106.825L301.662 106.695C301.538 103.837 300.298 101.036 298.14 98.3089L295.788 100.171ZM298.664 106.76C298.664 106.801 298.666 106.856 298.543 106.979L300.664 109.101C301.288 108.477 301.664 107.679 301.664 106.76H298.664ZM298.543 106.979C298.522 107 298.507 107.012 298.5 107.017C298.493 107.022 298.49 107.022 298.493 107.021C298.495 107.02 298.498 107.019 298.5 107.019C298.501 107.019 298.496 107.02 298.484 107.02V110.02C299.334 110.02 300.082 109.683 300.664 109.101L298.543 106.979ZM298.484 107.02H282.484V110.02H298.484V107.02ZM282.484 107.02C281.817 107.02 281.435 106.945 281.25 106.876L280.197 109.684C280.866 109.935 281.657 110.02 282.484 110.02V107.02ZM281.395 106.938C281.133 106.807 280.765 106.555 280.287 106.125L278.28 108.355C278.869 108.885 279.461 109.326 280.053 109.622L281.395 106.938ZM280.26 106.101C278.826 104.872 277.049 104.3 275.044 104.3V107.3C276.452 107.3 277.501 107.688 278.308 108.379L280.26 106.101ZM275.044 104.3C273.667 104.3 272.389 104.492 271.408 105.064C270.303 105.709 269.704 106.765 269.704 108.04H272.704C272.704 107.886 272.735 107.824 272.746 107.804C272.757 107.785 272.793 107.73 272.92 107.656C273.219 107.481 273.86 107.3 275.044 107.3V104.3ZM269.704 108.04C269.704 109.778 271.073 110.819 272.446 111.416L273.642 108.664C273.137 108.445 272.882 108.248 272.768 108.124C272.716 108.068 272.703 108.038 272.703 108.036C272.702 108.035 272.703 108.036 272.703 108.04C272.704 108.043 272.704 108.044 272.704 108.04H269.704ZM272.467 111.425C273.957 112.045 276.49 112.542 279.898 112.968L280.27 109.992C276.851 109.564 274.691 109.101 273.621 108.655L272.467 111.425ZM279.89 112.967C285.151 113.651 289.266 114.667 292.287 115.976L293.48 113.224C290.102 111.76 285.683 110.695 280.277 109.993L279.89 112.967ZM292.296 115.98C295.344 117.279 297.409 118.97 298.645 120.985L301.202 119.415C299.559 116.737 296.93 114.694 293.472 113.22L292.296 115.98ZM298.667 121.019C299.962 123.007 300.664 125.608 300.664 128.92H303.664C303.664 125.192 302.872 121.979 301.181 119.381L298.667 121.019ZM300.664 128.92C300.664 132.378 299.626 135.379 297.55 137.986L299.897 139.854C302.408 136.701 303.664 133.036 303.664 128.92H300.664ZM297.559 137.975C295.461 140.561 292.523 142.608 288.669 144.079L289.739 146.881C293.991 145.259 297.4 142.933 299.889 139.865L297.559 137.975ZM288.663 144.081C284.864 145.55 280.518 146.3 275.604 146.3V149.3C280.823 149.3 285.544 148.503 289.745 146.879L288.663 144.081ZM312.665 146.36L311.604 147.421L312.665 146.36ZM312.665 91.64L311.604 90.5793L312.665 91.64ZM356.025 95.96L355.106 97.1456L355.113 97.1511L356.025 95.96ZM356.105 124.92L356.985 126.134L356.995 126.127L356.105 124.92ZM332.825 129.56V128.06H331.325V129.56H332.825ZM332.185 146.36L331.124 145.299V145.299L332.185 146.36ZM340.585 113.72L341.606 114.819L341.626 114.8L341.646 114.781L340.585 113.72ZM340.825 107.24L342.084 106.425L340.825 107.24ZM332.425 105.88V104.38H330.925V105.88H332.425ZM332.425 114.76H330.925V116.26H332.425V114.76ZM314.185 145.5C314.009 145.5 313.88 145.454 313.726 145.299L311.604 147.421C312.303 148.12 313.188 148.5 314.185 148.5V145.5ZM313.726 145.299C313.571 145.145 313.525 145.016 313.525 144.84H310.525C310.525 145.837 310.905 146.722 311.604 147.421L313.726 145.299ZM313.525 144.84V93.16H310.525V144.84H313.525ZM313.525 93.16C313.525 92.9837 313.571 92.855 313.726 92.7007L311.604 90.5793C310.905 91.2783 310.525 92.163 310.525 93.16H313.525ZM313.726 92.7007C313.88 92.5463 314.009 92.5 314.185 92.5V89.5C313.188 89.5 312.303 89.8803 311.604 90.5793L313.726 92.7007ZM314.185 92.5H338.425V89.5H314.185V92.5ZM338.425 92.5C345.684 92.5 351.187 94.1082 355.106 97.1456L356.944 94.7744C352.33 91.1985 346.099 89.5 338.425 89.5V92.5ZM355.113 97.1511C358.991 100.119 361.005 104.516 361.005 110.6H364.005C364.005 103.777 361.699 98.4139 356.937 94.7689L355.113 97.1511ZM361.005 110.6C361.005 116.635 359.017 120.909 355.215 123.713L356.995 126.127C361.727 122.638 364.005 117.365 364.005 110.6H361.005ZM355.225 123.706C351.302 126.549 345.759 128.06 338.425 128.06V131.06C346.131 131.06 352.374 129.478 356.985 126.134L355.225 123.706ZM338.425 128.06H332.825V131.06H338.425V128.06ZM331.325 129.56V144.84H334.325V129.56H331.325ZM331.325 144.84C331.325 145.016 331.279 145.145 331.124 145.299L333.246 147.421C333.945 146.722 334.325 145.837 334.325 144.84H331.325ZM331.124 145.299C330.97 145.454 330.841 145.5 330.665 145.5V148.5C331.662 148.5 332.547 148.12 333.246 147.421L331.124 145.299ZM330.665 145.5H314.185V148.5H330.665V145.5ZM338.025 116.26C339.388 116.26 340.6 115.753 341.606 114.819L339.564 112.621C339.076 113.074 338.582 113.26 338.025 113.26V116.26ZM341.646 114.781C342.764 113.663 343.205 112.13 343.205 110.44H340.205C340.205 111.63 339.9 112.284 339.524 112.659L341.646 114.781ZM343.205 110.44C343.205 108.965 342.849 107.606 342.084 106.425L339.566 108.055C339.975 108.687 340.205 109.462 340.205 110.44H343.205ZM342.084 106.425C341.167 105.007 339.704 104.38 338.025 104.38V107.38C338.906 107.38 339.31 107.66 339.566 108.055L342.084 106.425ZM338.025 104.38H332.425V107.38H338.025V104.38ZM330.925 105.88V114.76H333.925V105.88H330.925ZM332.425 116.26H338.025V113.26H332.425V116.26ZM364.136 146.52L362.997 147.496L363.072 147.584L363.16 147.659L364.136 146.52ZM363.736 144.68L362.32 144.185L362.317 144.195L362.313 144.206L363.736 144.68ZM381.576 93.64L382.992 94.1349L383.002 94.1082L383.01 94.0811L381.576 93.64ZM382.776 91.8L381.767 90.6901L382.776 91.8ZM404.936 91.8L405.945 90.6901L404.936 91.8ZM406.136 93.64L404.703 94.0811L404.711 94.1082L404.72 94.1349L406.136 93.64ZM423.976 144.68L425.399 144.206L425.396 144.195L425.392 144.185L423.976 144.68ZM423.496 146.52L422.436 145.459H422.436L423.496 146.52ZM404.376 145L405.788 144.492L405.786 144.487L404.376 145ZM402.456 139.72L403.866 139.207L403.507 138.22H402.456V139.72ZM385.256 139.72V138.22H384.206L383.847 139.207L385.256 139.72ZM383.336 145L381.927 144.487L381.925 144.492L383.336 145ZM398.376 124.12V125.62H400.405L399.81 123.68L398.376 124.12ZM393.816 109.24L395.25 108.8L393.804 104.079L392.38 108.808L393.816 109.24ZM389.336 124.12L387.9 123.688L387.318 125.62H389.336V124.12ZM365.416 145.5C365.304 145.5 365.221 145.474 365.112 145.381L363.16 147.659C363.798 148.206 364.569 148.5 365.416 148.5V145.5ZM365.275 145.544C365.182 145.435 365.156 145.352 365.156 145.24H362.156C362.156 146.088 362.451 146.858 362.997 147.496L365.275 145.544ZM365.156 145.24C365.156 145.195 365.159 145.167 365.161 145.152C365.163 145.138 365.164 145.14 365.159 145.154L362.313 144.206C362.197 144.553 362.156 144.906 362.156 145.24H365.156ZM365.152 145.175L382.992 94.1349L380.16 93.1451L362.32 144.185L365.152 145.175ZM383.01 94.0811C383.137 93.6683 383.378 93.2797 383.785 92.9099L381.767 90.6901C381.001 91.3869 380.442 92.225 380.143 93.1989L383.01 94.0811ZM383.785 92.9099C384.026 92.6914 384.429 92.5 385.176 92.5V89.5C383.897 89.5 382.7 89.8419 381.767 90.6901L383.785 92.9099ZM385.176 92.5H402.536V89.5H385.176V92.5ZM402.536 92.5C403.284 92.5 403.687 92.6914 403.927 92.9099L405.945 90.6901C405.012 89.8419 403.815 89.5 402.536 89.5V92.5ZM403.927 92.9099C404.334 93.2797 404.576 93.6683 404.703 94.0811L407.57 93.1989C407.27 92.225 406.712 91.3869 405.945 90.6901L403.927 92.9099ZM404.72 94.1349L422.56 145.175L425.392 144.185L407.552 93.1451L404.72 94.1349ZM422.553 145.154C422.548 145.14 422.549 145.138 422.551 145.152C422.553 145.167 422.556 145.195 422.556 145.24H425.556C425.556 144.906 425.515 144.553 425.399 144.206L422.553 145.154ZM422.556 145.24C422.556 145.281 422.559 145.336 422.436 145.459L424.557 147.581C425.181 146.957 425.556 146.159 425.556 145.24H422.556ZM422.436 145.459C422.422 145.473 422.413 145.479 422.409 145.482C422.405 145.485 422.402 145.486 422.399 145.487C422.395 145.489 422.367 145.5 422.296 145.5V148.5C423.147 148.5 423.937 148.2 424.557 147.581L422.436 145.459ZM422.296 145.5H407.496V148.5H422.296V145.5ZM407.496 145.5C406.9 145.5 406.542 145.376 406.326 145.237C406.124 145.108 405.933 144.895 405.788 144.492L402.965 145.508C403.3 146.438 403.868 147.225 404.707 147.763C405.53 148.291 406.493 148.5 407.496 148.5V145.5ZM405.786 144.487L403.866 139.207L401.047 140.233L402.967 145.513L405.786 144.487ZM402.456 138.22H385.256V141.22H402.456V138.22ZM383.847 139.207L381.927 144.487L384.746 145.513L386.666 140.233L383.847 139.207ZM381.925 144.492C381.78 144.895 381.588 145.108 381.387 145.237C381.17 145.376 380.813 145.5 380.216 145.5V148.5C381.22 148.5 382.182 148.291 383.006 147.763C383.844 147.225 384.413 146.438 384.748 145.508L381.925 144.492ZM380.216 145.5H365.416V148.5H380.216V145.5ZM399.81 123.68L395.25 108.8L392.382 109.679L396.942 124.56L399.81 123.68ZM392.38 108.808L387.9 123.688L390.773 124.552L395.253 109.672L392.38 108.808ZM389.336 125.62H398.376V122.62H389.336V125.62ZM433.087 146.36L432.026 147.421L433.087 146.36ZM433.087 91.64L432.026 90.5793L433.087 91.64ZM476.287 96.2L475.348 97.3699L475.357 97.3769L476.287 96.2ZM480.447 119.64L481.738 120.404L481.744 120.393L480.447 119.64ZM474.127 126.12L473.318 124.857L472.146 125.607L472.807 126.832L474.127 126.12ZM483.967 144.36L485.309 143.689L485.298 143.668L485.287 143.648L483.967 144.36ZM483.647 146.52L484.708 147.581L483.647 146.52ZM463.727 146.36L462.723 147.475L462.781 147.527L462.845 147.573L463.727 146.36ZM462.607 144.84L464 144.283L463.988 144.253L463.975 144.224L462.607 144.84ZM455.727 129.56L457.095 128.944L456.697 128.06H455.727V129.56ZM452.447 129.56V128.06H450.947V129.56H452.447ZM451.807 146.36L452.868 147.421L451.807 146.36ZM461.007 113.24L462.146 114.216L462.162 114.197L462.178 114.177L461.007 113.24ZM461.007 107.24L459.748 108.055L459.776 108.098L459.807 108.14L461.007 107.24ZM452.447 105.88V104.38H450.947V105.88H452.447ZM452.447 114.36H450.947V115.86H452.447V114.36ZM434.607 145.5C434.431 145.5 434.302 145.454 434.148 145.299L432.026 147.421C432.725 148.12 433.61 148.5 434.607 148.5V145.5ZM434.148 145.299C433.993 145.145 433.947 145.016 433.947 144.84H430.947C430.947 145.837 431.327 146.722 432.026 147.421L434.148 145.299ZM433.947 144.84V93.16H430.947V144.84H433.947ZM433.947 93.16C433.947 92.9837 433.993 92.855 434.148 92.7007L432.026 90.5793C431.327 91.2783 430.947 92.163 430.947 93.16H433.947ZM434.148 92.7007C434.302 92.5463 434.431 92.5 434.607 92.5V89.5C433.61 89.5 432.725 89.8803 432.026 90.5793L434.148 92.7007ZM434.607 92.5H458.287V89.5H434.607V92.5ZM458.287 92.5C465.756 92.5 471.381 94.1862 475.348 97.3699L477.226 95.0301C472.553 91.2804 466.178 89.5 458.287 89.5V92.5ZM475.357 97.3769C479.276 100.474 481.267 104.764 481.267 110.44H484.267C484.267 103.956 481.938 98.7531 477.217 95.023L475.357 97.3769ZM481.267 110.44C481.267 113.676 480.547 116.477 479.149 118.887L481.744 120.393C483.44 117.47 484.267 114.137 484.267 110.44H481.267ZM479.156 118.876C477.734 121.279 475.796 123.271 473.318 124.857L474.935 127.383C477.791 125.556 480.066 123.228 481.738 120.404L479.156 118.876ZM472.807 126.832L482.647 145.072L485.287 143.648L475.447 125.408L472.807 126.832ZM482.625 145.031C482.715 145.21 482.707 145.272 482.707 145.24H485.707C485.707 144.675 485.539 144.15 485.309 143.689L482.625 145.031ZM482.707 145.24C482.707 145.281 482.709 145.336 482.586 145.459L484.708 147.581C485.331 146.957 485.707 146.159 485.707 145.24H482.707ZM482.586 145.459C482.573 145.473 482.564 145.479 482.56 145.482C482.556 145.485 482.553 145.486 482.55 145.487C482.546 145.489 482.518 145.5 482.447 145.5V148.5C483.298 148.5 484.088 148.2 484.708 147.581L482.586 145.459ZM482.447 145.5H466.047V148.5H482.447V145.5ZM466.047 145.5C465.302 145.5 464.868 145.335 464.609 145.147L462.845 147.573C463.759 148.238 464.872 148.5 466.047 148.5V145.5ZM464.73 145.245C464.326 144.881 464.109 144.557 464 144.283L461.214 145.397C461.531 146.19 462.061 146.879 462.723 147.475L464.73 145.245ZM463.975 144.224L457.095 128.944L454.359 130.176L461.239 145.456L463.975 144.224ZM455.727 128.06H452.447V131.06H455.727V128.06ZM450.947 129.56V144.84H453.947V129.56H450.947ZM450.947 144.84C450.947 145.016 450.901 145.145 450.746 145.299L452.868 147.421C453.567 146.722 453.947 145.837 453.947 144.84H450.947ZM450.746 145.299C450.592 145.454 450.463 145.5 450.287 145.5V148.5C451.284 148.5 452.169 148.12 452.868 147.421L450.746 145.299ZM450.287 145.5H434.607V148.5H450.287V145.5ZM458.287 115.86C459.805 115.86 461.165 115.36 462.146 114.216L459.868 112.264C459.568 112.613 459.115 112.86 458.287 112.86V115.86ZM462.178 114.177C463.061 113.073 463.467 111.742 463.467 110.28H460.467C460.467 111.165 460.232 111.807 459.836 112.303L462.178 114.177ZM463.467 110.28C463.467 108.816 463.061 107.479 462.207 106.34L459.807 108.14C460.233 108.708 460.467 109.397 460.467 110.28H463.467ZM462.266 106.425C461.362 105.027 459.941 104.38 458.287 104.38V107.38C459.086 107.38 459.479 107.639 459.748 108.055L462.266 106.425ZM458.287 104.38H452.447V107.38H458.287V104.38ZM450.947 105.88V114.36H453.947V105.88H450.947ZM452.447 115.86H458.287V112.86H452.447V115.86ZM494.821 146.36L493.761 147.421L494.821 146.36ZM494.821 91.64L493.761 90.5793L494.821 91.64ZM513.381 106.6V105.1H511.881V106.6H513.381ZM513.381 111.64H511.881V113.14H513.381V111.64ZM537.141 112.28L536.081 113.341V113.341L537.141 112.28ZM537.141 125.72L536.081 124.659V124.659L537.141 125.72ZM513.381 126.36V124.86H511.881V126.36H513.381ZM513.381 131.4H511.881V132.9H513.381V131.4ZM496.341 145.5C496.165 145.5 496.036 145.454 495.882 145.299L493.761 147.421C494.46 148.12 495.344 148.5 496.341 148.5V145.5ZM495.882 145.299C495.728 145.145 495.681 145.016 495.681 144.84H492.681C492.681 145.837 493.062 146.722 493.761 147.421L495.882 145.299ZM495.681 144.84V93.16H492.681V144.84H495.681ZM495.681 93.16C495.681 92.9837 495.728 92.855 495.882 92.7007L493.761 90.5793C493.062 91.2783 492.681 92.163 492.681 93.16H495.681ZM495.882 92.7007C496.036 92.5463 496.165 92.5 496.341 92.5V89.5C495.344 89.5 494.46 89.8803 493.761 90.5793L495.882 92.7007ZM496.341 92.5H537.381V89.5H496.341V92.5ZM537.381 92.5C537.558 92.5 537.686 92.5463 537.841 92.7007L539.962 90.5793C539.263 89.8803 538.378 89.5 537.381 89.5V92.5ZM537.841 92.7007C537.995 92.855 538.041 92.9837 538.041 93.16H541.041C541.041 92.163 540.661 91.2783 539.962 90.5793L537.841 92.7007ZM538.041 93.16V104.44H541.041V93.16H538.041ZM538.041 104.44C538.041 104.616 537.995 104.745 537.841 104.899L539.962 107.021C540.661 106.322 541.041 105.437 541.041 104.44H538.041ZM537.841 104.899C537.686 105.054 537.558 105.1 537.381 105.1V108.1C538.378 108.1 539.263 107.72 539.962 107.021L537.841 104.899ZM537.381 105.1H513.381V108.1H537.381V105.1ZM511.881 106.6V111.64H514.881V106.6H511.881ZM513.381 113.14H535.621V110.14H513.381V113.14ZM535.621 113.14C535.798 113.14 535.926 113.186 536.081 113.341L538.202 111.219C537.503 110.52 536.618 110.14 535.621 110.14V113.14ZM536.081 113.341C536.235 113.495 536.281 113.624 536.281 113.8H539.281C539.281 112.803 538.901 111.918 538.202 111.219L536.081 113.341ZM536.281 113.8V124.2H539.281V113.8H536.281ZM536.281 124.2C536.281 124.376 536.235 124.505 536.081 124.659L538.202 126.781C538.901 126.082 539.281 125.197 539.281 124.2H536.281ZM536.081 124.659C535.926 124.814 535.798 124.86 535.621 124.86V127.86C536.618 127.86 537.503 127.48 538.202 126.781L536.081 124.659ZM535.621 124.86H513.381V127.86H535.621V124.86ZM511.881 126.36V131.4H514.881V126.36H511.881ZM513.381 132.9H538.021V129.9H513.381V132.9ZM538.021 132.9C538.198 132.9 538.326 132.946 538.481 133.101L540.602 130.979C539.903 130.28 539.018 129.9 538.021 129.9V132.9ZM538.481 133.101C538.635 133.255 538.681 133.384 538.681 133.56H541.681C541.681 132.563 541.301 131.678 540.602 130.979L538.481 133.101ZM538.681 133.56V144.84H541.681V133.56H538.681ZM538.681 144.84C538.681 145.016 538.635 145.145 538.481 145.299L540.602 147.421C541.301 146.722 541.681 145.837 541.681 144.84H538.681ZM538.481 145.299C538.326 145.454 538.198 145.5 538.021 145.5V148.5C539.018 148.5 539.903 148.12 540.602 147.421L538.481 145.299ZM538.021 145.5H496.341V148.5H538.021V145.5ZM552.181 146.36L551.12 147.421L552.181 146.36ZM552.181 91.64L551.12 90.5793L552.181 91.64ZM569.621 92.84L568.315 93.5781L568.327 93.5999L568.34 93.6212L569.621 92.84ZM583.141 115L581.86 115.781L584.641 120.339V115H583.141ZM583.781 91.64L584.841 92.7007V92.7007L583.781 91.64ZM585.061 146.44L585.982 145.256L585.061 146.44ZM583.861 145.16L582.61 145.989L582.613 145.992L583.861 145.16ZM570.341 124.76L571.591 123.931L568.841 119.781V124.76H570.341ZM569.701 146.36L568.64 145.299V145.299L569.701 146.36ZM553.701 145.5C553.524 145.5 553.396 145.454 553.241 145.299L551.12 147.421C551.819 148.12 552.704 148.5 553.701 148.5V145.5ZM553.241 145.299C553.087 145.145 553.041 145.016 553.041 144.84H550.041C550.041 145.837 550.421 146.722 551.12 147.421L553.241 145.299ZM553.041 144.84V93.16H550.041V144.84H553.041ZM553.041 93.16C553.041 92.9837 553.087 92.855 553.241 92.7007L551.12 90.5793C550.421 91.2783 550.041 92.163 550.041 93.16H553.041ZM553.241 92.7007C553.396 92.5463 553.524 92.5 553.701 92.5V89.5C552.704 89.5 551.819 89.8803 551.12 90.5793L553.241 92.7007ZM553.701 92.5H566.341V89.5H553.701V92.5ZM566.341 92.5C567.333 92.5 567.907 92.8559 568.315 93.5781L570.926 92.1019C569.948 90.3708 568.335 89.5 566.341 89.5V92.5ZM568.34 93.6212L581.86 115.781L584.421 114.219L570.901 92.0588L568.34 93.6212ZM584.641 115V93.16H581.641V115H584.641ZM584.641 93.16C584.641 92.9837 584.687 92.855 584.841 92.7007L582.72 90.5793C582.021 91.2783 581.641 92.163 581.641 93.16H584.641ZM584.841 92.7007C584.996 92.5463 585.124 92.5 585.301 92.5V89.5C584.304 89.5 583.419 89.8803 582.72 90.5793L584.841 92.7007ZM585.301 92.5H599.781V89.5H585.301V92.5ZM599.781 92.5C599.957 92.5 600.086 92.5463 600.24 92.7007L602.361 90.5793C601.662 89.8803 600.778 89.5 599.781 89.5V92.5ZM600.24 92.7007C600.394 92.855 600.441 92.9837 600.441 93.16H603.441C603.441 92.163 603.06 91.2783 602.361 90.5793L600.24 92.7007ZM600.441 93.16V144.84H603.441V93.16H600.441ZM600.441 144.84C600.441 145.016 600.394 145.145 600.24 145.299L602.361 147.421C603.06 146.722 603.441 145.837 603.441 144.84H600.441ZM600.24 145.299C600.086 145.454 599.957 145.5 599.781 145.5V148.5C600.778 148.5 601.662 148.12 602.361 147.421L600.24 145.299ZM599.781 145.5H587.141V148.5H599.781V145.5ZM587.141 145.5C586.411 145.5 586.097 145.346 585.982 145.256L584.14 147.624C584.985 148.281 586.057 148.5 587.141 148.5V145.5ZM585.982 145.256C585.622 144.976 585.335 144.667 585.109 144.328L582.613 145.992C583.027 146.613 583.539 147.157 584.14 147.624L585.982 145.256ZM585.111 144.331L571.591 123.931L569.09 125.589L582.61 145.989L585.111 144.331ZM568.841 124.76V144.84H571.841V124.76H568.841ZM568.841 144.84C568.841 145.016 568.794 145.145 568.64 145.299L570.761 147.421C571.46 146.722 571.841 145.837 571.841 144.84H568.841ZM568.64 145.299C568.486 145.454 568.357 145.5 568.181 145.5V148.5C569.178 148.5 570.062 148.12 570.761 147.421L568.64 145.299ZM568.181 145.5H553.701V148.5H568.181V145.5ZM627.159 108.2H628.659V106.7H627.159V108.2ZM662.279 91.64L663.34 90.5793L662.279 91.64ZM662.279 107.56L663.34 108.621V108.621L662.279 107.56ZM647.479 108.2V106.7H645.979V108.2H647.479ZM646.839 146.36L647.9 147.421L646.839 146.36ZM629.319 145.5C629.143 145.5 629.014 145.454 628.86 145.299L626.739 147.421C627.438 148.12 628.322 148.5 629.319 148.5V145.5ZM628.86 145.299C628.706 145.145 628.659 145.016 628.659 144.84H625.659C625.659 145.837 626.04 146.722 626.739 147.421L628.86 145.299ZM628.659 144.84V108.2H625.659V144.84H628.659ZM627.159 106.7H613.879V109.7H627.159V106.7ZM613.879 106.7C613.703 106.7 613.574 106.654 613.42 106.499L611.299 108.621C611.998 109.32 612.882 109.7 613.879 109.7V106.7ZM613.42 106.499C613.266 106.345 613.219 106.216 613.219 106.04H610.219C610.219 107.037 610.6 107.922 611.299 108.621L613.42 106.499ZM613.219 106.04V93.16H610.219V106.04H613.219ZM613.219 93.16C613.219 92.9837 613.266 92.855 613.42 92.7007L611.299 90.5793C610.6 91.2783 610.219 92.163 610.219 93.16H613.219ZM613.42 92.7007C613.574 92.5463 613.703 92.5 613.879 92.5V89.5C612.882 89.5 611.998 89.8803 611.299 90.5793L613.42 92.7007ZM613.879 92.5H660.759V89.5H613.879V92.5ZM660.759 92.5C660.936 92.5 661.064 92.5463 661.219 92.7007L663.34 90.5793C662.641 89.8803 661.756 89.5 660.759 89.5V92.5ZM661.219 92.7007C661.373 92.855 661.419 92.9837 661.419 93.16H664.419C664.419 92.163 664.039 91.2783 663.34 90.5793L661.219 92.7007ZM661.419 93.16V106.04H664.419V93.16H661.419ZM661.419 106.04C661.419 106.216 661.373 106.345 661.219 106.499L663.34 108.621C664.039 107.922 664.419 107.037 664.419 106.04H661.419ZM661.219 106.499C661.064 106.654 660.936 106.7 660.759 106.7V109.7C661.756 109.7 662.641 109.32 663.34 108.621L661.219 106.499ZM660.759 106.7H647.479V109.7H660.759V106.7ZM645.979 108.2V144.84H648.979V108.2H645.979ZM645.979 144.84C645.979 145.016 645.933 145.145 645.779 145.299L647.9 147.421C648.599 146.722 648.979 145.837 648.979 144.84H645.979ZM645.779 145.299C645.624 145.454 645.496 145.5 645.319 145.5V148.5C646.316 148.5 647.201 148.12 647.9 147.421L645.779 145.299ZM645.319 145.5H629.319V148.5H645.319V145.5ZM673.306 146.36L672.245 147.421L673.306 146.36ZM673.306 91.64L672.245 90.5793L673.306 91.64ZM691.866 106.6V105.1H690.366V106.6H691.866ZM691.866 111.64H690.366V113.14H691.866V111.64ZM715.626 112.28L714.565 113.341V113.341L715.626 112.28ZM715.626 125.72L714.565 124.659V124.659L715.626 125.72ZM691.866 126.36V124.86H690.366V126.36H691.866ZM691.866 131.4H690.366V132.9H691.866V131.4ZM674.826 145.5C674.649 145.5 674.521 145.454 674.366 145.299L672.245 147.421C672.944 148.12 673.829 148.5 674.826 148.5V145.5ZM674.366 145.299C674.212 145.145 674.166 145.016 674.166 144.84H671.166C671.166 145.837 671.546 146.722 672.245 147.421L674.366 145.299ZM674.166 144.84V93.16H671.166V144.84H674.166ZM674.166 93.16C674.166 92.9837 674.212 92.855 674.366 92.7007L672.245 90.5793C671.546 91.2783 671.166 92.163 671.166 93.16H674.166ZM674.366 92.7007C674.521 92.5463 674.649 92.5 674.826 92.5V89.5C673.829 89.5 672.944 89.8803 672.245 90.5793L674.366 92.7007ZM674.826 92.5H715.866V89.5H674.826V92.5ZM715.866 92.5C716.042 92.5 716.171 92.5463 716.325 92.7007L718.446 90.5793C717.747 89.8803 716.863 89.5 715.866 89.5V92.5ZM716.325 92.7007C716.479 92.855 716.526 92.9837 716.526 93.16H719.526C719.526 92.163 719.145 91.2783 718.446 90.5793L716.325 92.7007ZM716.526 93.16V104.44H719.526V93.16H716.526ZM716.526 104.44C716.526 104.616 716.479 104.745 716.325 104.899L718.446 107.021C719.145 106.322 719.526 105.437 719.526 104.44H716.526ZM716.325 104.899C716.171 105.054 716.042 105.1 715.866 105.1V108.1C716.863 108.1 717.747 107.72 718.446 107.021L716.325 104.899ZM715.866 105.1H691.866V108.1H715.866V105.1ZM690.366 106.6V111.64H693.366V106.6H690.366ZM691.866 113.14H714.106V110.14H691.866V113.14ZM714.106 113.14C714.282 113.14 714.411 113.186 714.565 113.341L716.686 111.219C715.987 110.52 715.103 110.14 714.106 110.14V113.14ZM714.565 113.341C714.719 113.495 714.766 113.624 714.766 113.8H717.766C717.766 112.803 717.385 111.918 716.686 111.219L714.565 113.341ZM714.766 113.8V124.2H717.766V113.8H714.766ZM714.766 124.2C714.766 124.376 714.719 124.505 714.565 124.659L716.686 126.781C717.385 126.082 717.766 125.197 717.766 124.2H714.766ZM714.565 124.659C714.411 124.814 714.282 124.86 714.106 124.86V127.86C715.103 127.86 715.987 127.48 716.686 126.781L714.565 124.659ZM714.106 124.86H691.866V127.86H714.106V124.86ZM690.366 126.36V131.4H693.366V126.36H690.366ZM691.866 132.9H716.506V129.9H691.866V132.9ZM716.506 132.9C716.682 132.9 716.811 132.946 716.965 133.101L719.086 130.979C718.387 130.28 717.503 129.9 716.506 129.9V132.9ZM716.965 133.101C717.119 133.255 717.166 133.384 717.166 133.56H720.166C720.166 132.563 719.785 131.678 719.086 130.979L716.965 133.101ZM717.166 133.56V144.84H720.166V133.56H717.166ZM717.166 144.84C717.166 145.016 717.119 145.145 716.965 145.299L719.086 147.421C719.785 146.722 720.166 145.837 720.166 144.84H717.166ZM716.965 145.299C716.811 145.454 716.682 145.5 716.506 145.5V148.5C717.503 148.5 718.387 148.12 719.086 147.421L716.965 145.299ZM716.506 145.5H674.826V148.5H716.506V145.5ZM738.985 145.48L738.431 146.874L738.438 146.877L738.985 145.48ZM730.185 139.32L728.988 140.224L728.992 140.23L728.997 140.236L730.185 139.32ZM727.065 130.76H725.565V130.786L725.566 130.812L727.065 130.76ZM727.545 129.56L728.606 130.621L727.545 129.56ZM745.785 129.32L745.114 130.662L745.21 130.709L745.311 130.743L745.785 129.32ZM747.465 130.36L746.505 131.512L746.519 131.524L746.533 131.535L747.465 130.36ZM757.705 131.64L758.201 133.056L758.22 133.049L758.239 133.042L757.705 131.64ZM757.225 127.8L756.704 129.207L756.727 129.215L756.751 129.223L757.225 127.8ZM749.065 126.2L749.263 124.713L749.261 124.713L749.065 126.2ZM731.465 99.08L730.257 98.191L730.254 98.195L731.465 99.08ZM740.105 92.52L739.524 91.1372L740.105 92.52ZM766.025 92.76L765.409 94.1275L766.025 92.76ZM774.745 99.24L773.56 100.159L773.564 100.165L773.569 100.171L774.745 99.24ZM777.945 106.76H779.445V106.727L779.444 106.695L777.945 106.76ZM777.385 108.04L776.324 106.979L777.385 108.04ZM758.505 108.28L757.834 109.622L757.905 109.657L757.978 109.684L758.505 108.28ZM757.065 107.24L758.068 106.125L758.055 106.113L758.041 106.101L757.065 107.24ZM750.825 110.04L750.227 111.416L750.237 111.42L750.248 111.425L750.825 110.04ZM757.865 111.48L758.058 109.992L758.051 109.992L757.865 111.48ZM770.665 114.6L770.069 115.976L770.077 115.98L770.665 114.6ZM777.705 120.2L776.427 120.985L776.437 121.002L776.448 121.019L777.705 120.2ZM776.505 138.92L777.67 139.865L777.678 139.854L776.505 138.92ZM766.985 145.48L766.45 144.079L766.444 144.081L766.985 145.48ZM753.385 146.3C747.86 146.3 743.257 145.543 739.532 144.083L738.438 146.877C742.606 148.51 747.603 149.3 753.385 149.3V146.3ZM739.539 144.086C735.823 142.61 733.14 140.696 731.373 138.404L728.997 140.236C731.177 143.064 734.36 145.257 738.431 146.874L739.539 144.086ZM731.382 138.416C729.583 136.034 728.659 133.475 728.564 130.708L725.566 130.812C725.684 134.232 726.84 137.379 728.988 140.224L731.382 138.416ZM728.565 130.76C728.565 130.689 728.576 130.661 728.578 130.657C728.579 130.654 728.58 130.651 728.583 130.647C728.586 130.643 728.592 130.634 728.606 130.621L726.484 128.499C725.865 129.119 725.565 129.909 725.565 130.76H728.565ZM728.606 130.621C728.729 130.498 728.784 130.5 728.825 130.5V127.5C727.906 127.5 727.108 127.876 726.484 128.499L728.606 130.621ZM728.825 130.5H744.025V127.5H728.825V130.5ZM744.025 130.5C744.657 130.5 744.981 130.595 745.114 130.662L746.456 127.978C745.736 127.618 744.886 127.5 744.025 127.5V130.5ZM745.311 130.743C745.535 130.818 745.928 131.031 746.505 131.512L748.425 129.208C747.722 128.622 746.995 128.142 746.259 127.897L745.311 130.743ZM746.533 131.535C748.398 133.015 750.722 133.7 753.385 133.7V130.7C751.248 130.7 749.625 130.159 748.397 129.185L746.533 131.535ZM753.385 133.7C755.278 133.7 756.908 133.508 758.201 133.056L757.209 130.224C756.369 130.518 755.119 130.7 753.385 130.7V133.7ZM758.239 133.042C759.475 132.571 760.885 131.657 760.885 129.96H757.885C757.885 129.925 757.894 129.881 757.91 129.843C757.926 129.809 757.935 129.809 757.904 129.839C757.831 129.913 757.625 130.065 757.171 130.238L758.239 133.042ZM760.885 129.96C760.885 128.004 759.335 126.922 757.699 126.377L756.751 129.223C757.349 129.423 757.65 129.626 757.784 129.761C757.882 129.858 757.885 129.904 757.885 129.96H760.885ZM757.746 126.393C756.129 125.794 753.251 125.245 749.263 124.713L748.867 127.687C752.879 128.222 755.441 128.739 756.704 129.207L757.746 126.393ZM749.261 124.713C742.526 123.825 737.69 121.969 734.558 119.299C731.487 116.68 729.925 113.169 729.925 108.6H726.925C726.925 113.951 728.803 118.333 732.612 121.581C736.36 124.778 741.844 126.761 748.869 127.687L749.261 124.713ZM729.925 108.6C729.925 105.331 730.845 102.471 732.676 99.965L730.254 98.195C728.032 101.236 726.925 104.722 726.925 108.6H729.925ZM732.673 99.969C734.571 97.3893 737.221 95.3593 740.686 93.9028L739.524 91.1372C735.629 92.7741 732.518 95.1174 730.257 98.191L732.673 99.969ZM740.686 93.9028C744.149 92.4475 748.185 91.7 752.825 91.7V88.7C747.865 88.7 743.421 89.4992 739.524 91.1372L740.686 93.9028ZM752.825 91.7C757.669 91.7 761.852 92.5243 765.409 94.1275L766.641 91.3925C762.625 89.5823 758.008 88.7 752.825 88.7V91.7ZM765.409 94.1275C769.028 95.7587 771.717 97.7829 773.56 100.159L775.93 98.3208C773.72 95.4704 770.595 93.1746 766.641 91.3925L765.409 94.1275ZM773.569 100.171C775.464 102.564 776.357 104.777 776.446 106.825L779.444 106.695C779.319 103.837 778.08 101.036 775.921 98.3089L773.569 100.171ZM776.445 106.76C776.445 106.801 776.447 106.856 776.324 106.979L778.446 109.101C779.069 108.477 779.445 107.679 779.445 106.76H776.445ZM776.324 106.979C776.303 107 776.289 107.012 776.281 107.017C776.274 107.022 776.272 107.022 776.274 107.021C776.277 107.02 776.279 107.019 776.281 107.019C776.282 107.019 776.277 107.02 776.265 107.02V110.02C777.115 110.02 777.863 109.683 778.446 109.101L776.324 106.979ZM776.265 107.02H760.265V110.02H776.265V107.02ZM760.265 107.02C759.598 107.02 759.217 106.945 759.032 106.876L757.978 109.684C758.647 109.935 759.438 110.02 760.265 110.02V107.02ZM759.176 106.938C758.914 106.807 758.547 106.555 758.068 106.125L756.062 108.355C756.65 108.885 757.243 109.326 757.834 109.622L759.176 106.938ZM758.041 106.101C756.607 104.872 754.83 104.3 752.825 104.3V107.3C754.233 107.3 755.283 107.688 756.089 108.379L758.041 106.101ZM752.825 104.3C751.448 104.3 750.17 104.492 749.189 105.064C748.084 105.709 747.485 106.765 747.485 108.04H750.485C750.485 107.886 750.516 107.824 750.527 107.804C750.538 107.785 750.574 107.73 750.701 107.656C751 107.481 751.642 107.3 752.825 107.3V104.3ZM747.485 108.04C747.485 109.778 748.854 110.819 750.227 111.416L751.423 108.664C750.918 108.445 750.663 108.248 750.549 108.124C750.497 108.068 750.485 108.038 750.484 108.036C750.483 108.035 750.484 108.036 750.485 108.04C750.485 108.043 750.485 108.044 750.485 108.04H747.485ZM750.248 111.425C751.738 112.045 754.272 112.542 757.679 112.968L758.051 109.992C754.632 109.564 752.472 109.101 751.402 108.655L750.248 111.425ZM757.672 112.967C762.933 113.651 767.047 114.667 770.069 115.976L771.261 113.224C767.883 111.76 763.464 110.695 758.058 109.993L757.672 112.967ZM770.077 115.98C773.125 117.279 775.19 118.97 776.427 120.985L778.983 119.415C777.34 116.737 774.711 114.694 771.253 113.22L770.077 115.98ZM776.448 121.019C777.743 123.007 778.445 125.608 778.445 128.92H781.445C781.445 125.192 780.654 121.979 778.962 119.381L776.448 121.019ZM778.445 128.92C778.445 132.378 777.407 135.379 775.332 137.986L777.678 139.854C780.19 136.701 781.445 133.036 781.445 128.92H778.445ZM775.34 137.975C773.242 140.561 770.305 142.608 766.45 144.079L767.52 146.881C771.772 145.259 775.181 142.933 777.67 139.865L775.34 137.975ZM766.444 144.081C762.645 145.55 758.3 146.3 753.385 146.3V149.3C758.604 149.3 763.325 148.503 767.526 146.879L766.444 144.081Z" fill="#1D1D1D"/>
</svg>
