<svg width="271" height="29" viewBox="0 0 271 29" fill="none" xmlns="http://www.w3.org/2000/svg">
<g opacity="0.8">
<path d="M21.464 0.000488281H0V5.03113H7.55499V27.9775H13.909V5.03113H21.464V0.000488281Z" fill="#DCDCDC"/>
<path d="M38.3471 13.3656C37.9093 10.5125 35.3004 8.26881 32.268 8.30113H16.5907V24.1471H22.9352V20.2799H28.6019L31.6643 24.1471H38.4197L34.8722 19.7028C34.8737 19.7012 34.8769 19.7012 34.8785 19.6997H34.8595L38.3471 13.3656ZM31.6501 15.2446C31.3831 15.5047 31.0575 15.6339 30.6688 15.6339H22.9321V12.9347H30.6688C31.4431 12.9347 32.061 13.5364 32.061 14.2905C32.0626 14.6567 31.9298 14.9738 31.6501 15.2446Z" fill="#DCDCDC"/>
<path d="M51.1294 3.85376H43.5871L38.3471 13.3672C38.3929 13.6703 38.4229 13.9766 38.4182 14.2921C38.4182 15.4832 38.0911 16.5681 37.4369 17.5345C36.7969 18.4871 35.9389 19.2165 34.877 19.7013H42.0005L43.2837 16.9897H51.4312L52.716 19.6982H56.2383V13.1271L51.1294 3.85376ZM45.1246 13.1194L47.3638 8.43812L49.5919 13.1194H45.1246Z" fill="#DCDCDC"/>
<path d="M76.3132 19.3242H78.467V16.9666C77.1633 16.3203 76.31 15.3616 76.3132 13.9119C76.3132 12.1406 77.1317 10.8972 78.467 10.0385V8.29956H72.1114V16.6942L64.9688 8.29956H56.2397V13.1271L59.8584 19.6982H56.2382V24.1456H62.5827V14.4659L71.3244 24.1456H78.467V23.1776C77.304 22.3404 76.5328 21.1155 76.3132 19.3242Z" fill="#DCDCDC"/>
<path d="M95.8999 16.1017C93.6292 15.1214 90.2254 14.9552 87.4885 14.8198C84.9349 14.7013 82.9612 14.6074 82.9612 13.9118C82.9612 12.6499 85.3821 12.3668 87.3557 12.3668C89.3421 12.3668 91.0234 12.6607 91.7503 13.9118H95.9015V9.81683C93.8599 8.55802 90.7832 8.32257 87.3557 8.30103C83.8777 8.30103 80.545 8.70421 78.4686 10.04V16.9665C80.7283 18.0853 84.3439 18.2623 87.223 18.4038C89.7782 18.5223 91.7503 18.6285 91.7503 19.3241C91.7503 20.5506 89.3294 20.8692 87.3557 20.8692C85.371 20.8692 83.6881 20.5506 82.9612 19.3241H78.4686V23.1775C80.4992 24.6394 83.7307 24.9164 87.3557 24.9241C92.8991 24.9241 98.0759 23.9146 98.3825 19.7211H95.9015V16.1017H95.8999Z" fill="#DCDCDC"/>
<path d="M102.48 19.9536H98.1265L98.1439 19.7059C98.1534 19.5735 98.1581 19.4489 98.1581 19.3242C98.1629 17.9838 97.3917 16.9989 95.8036 16.3126L95.663 16.251V13.6811H98.1249C97.8642 12.0268 97.0931 10.8249 95.7736 10.0108L95.663 9.94313V3.646H122.114V4.67859L121.969 4.73861C119.864 5.59577 118.527 7.01617 117.994 8.95978L117.947 9.1306H102.48V10.6018H114.393V15.697H102.48V19.9536ZM98.6306 19.4919H102.008V15.2354H113.921V11.0634H102.008V8.66893H117.587C118.176 6.713 119.538 5.26953 121.64 4.37389V4.1092H96.137V9.69383C97.5845 10.6279 98.4015 12.0006 98.6322 13.8873L98.6638 14.1458H96.137V15.9556C97.7978 16.7142 98.6369 17.8469 98.6338 19.3273C98.6322 19.3796 98.6322 19.435 98.6306 19.4919Z" fill="#DCDCDC"/>
<path d="M128.594 20.3185C124.2 20.3108 121.046 19.3967 119.216 17.6039C117.898 16.3127 117.234 14.5461 117.244 12.3516V11.1975C117.241 10.3572 117.339 9.56317 117.538 8.83836L117.585 8.66754H121.641V4.37096L121.787 4.31094C123.531 3.59997 125.823 3.23679 128.594 3.23218C136.118 3.23218 139.932 5.91139 139.932 11.1975V12.3532C139.942 14.5476 139.278 16.3143 137.96 17.6054C136.13 19.3982 132.98 20.3108 128.594 20.3185ZM117.95 9.13075C117.792 9.76939 117.715 10.4634 117.718 11.1975V12.3532C117.71 14.4215 118.326 16.0788 119.552 17.2792C121.291 18.9812 124.333 19.8491 128.596 19.8568C132.85 19.8491 135.889 18.9812 137.625 17.2807C138.852 16.0804 139.468 14.423 139.46 12.3547V11.199C139.46 6.14991 135.906 3.69538 128.596 3.69538C125.963 3.7 123.784 4.0324 122.116 4.68027V9.13075H117.95ZM128.598 15.2955C126.095 15.2617 123.547 14.8385 123.587 11.9608V11.5745C123.547 8.71063 126.093 8.28897 128.591 8.25512C131.088 8.28897 133.631 8.71063 133.589 11.5776V11.9623C133.629 14.84 131.088 15.2617 128.598 15.2955ZM128.591 8.71678C125.349 8.76141 124.034 9.5878 124.061 11.5714V11.9638C124.032 13.9598 125.347 14.7892 128.598 14.8339C131.832 14.7892 133.144 13.9598 133.115 11.9669V11.5745C133.142 9.58934 131.832 8.76141 128.591 8.71678Z" fill="#DCDCDC"/>
<path d="M148.779 25.9275H141.96V3.63351H157.874C159.537 3.61966 161.196 4.28446 162.406 5.46787C163.626 6.66052 164.285 8.21942 164.261 9.8568C164.261 11.0879 163.919 12.2221 163.242 13.2224C162.629 14.1349 161.825 14.8474 160.85 15.343L166.848 22.5188V25.0334H161.585L154.094 16.0709H148.779V25.9275ZM142.434 25.4658H148.304V15.6138H154.32L161.811 24.5763H166.376V22.6866L160.104 15.1829L160.38 15.0583C161.398 14.5966 162.229 13.8949 162.849 12.9715C163.474 12.0466 163.791 10.9987 163.791 9.85526C163.813 8.33945 163.203 6.89904 162.074 5.79412C160.954 4.69843 159.428 4.07979 157.881 4.09672H142.437V25.4658H142.434ZM156.277 11.428H148.303V8.26712H156.277C157.176 8.26712 157.906 8.97809 157.906 9.85372C157.906 10.2846 157.745 10.6616 157.425 10.9725C157.114 11.2757 156.727 11.428 156.277 11.428ZM148.779 10.9663H156.278C156.604 10.9663 156.869 10.8617 157.092 10.6447C157.323 10.42 157.435 10.1615 157.435 9.85372C157.435 9.22277 156.928 8.72879 156.28 8.72879H148.78V10.9663H148.779Z" fill="#DCDCDC"/>
<path d="M173.193 28.2082H166.374V24.5748H167.954L166.374 22.6851V3.6228H174.669L180.898 11.4019L187.138 3.6228H195.42V8.86735L191.695 15.6277H195.42V19.9305H188.601V11.9513L182.603 19.9289H179.191L173.193 11.9513V28.2082ZM166.848 27.7465H172.719V10.5386L179.431 19.4672H182.363L189.075 10.5386V19.4672H194.946V16.0878H190.904L194.946 8.75039V4.08447H187.369L180.898 12.1513L174.438 4.08447H166.848V22.5219L168.951 25.0365H166.848V27.7465Z" fill="#DCDCDC"/>
<path d="M207.572 0.0126953H200.029L195.183 8.80901V15.8571H198.443L199.726 13.1456H207.874L209.157 15.8571H212.292V8.5828L207.572 0.0126953ZM201.567 9.27991L203.806 4.5986L206.034 9.27991H201.567Z" fill="#DCDCDC"/>
<path d="M232.854 0.32199C232.162 0.108084 231.428 -0.00733303 230.673 0.000361433H212.292V8.58277L216.299 15.8587H212.292V27.9774H219.73V14.0443H226.373L232.07 21.3402H239.99L233.726 13.3672C234.976 12.8009 235.983 11.9437 236.735 10.8234C237.501 9.69077 237.885 8.41811 237.885 7.02233C237.895 6.33445 237.792 5.66811 237.601 5.03408H232.854V0.32199ZM229.949 8.14265C229.636 8.44735 229.254 8.59816 228.8 8.59816H219.73V5.43266H228.8C229.709 5.43266 230.433 6.13747 230.433 7.02233C230.431 7.45168 230.276 7.8241 229.949 8.14265Z" fill="#DCDCDC"/>
<path d="M256.645 0.0126953H232.854V0.322013C235.117 1.02375 236.929 2.81194 237.601 5.03564H242.76V21.2817H249.105V5.03564H256.647V0.0126953H256.645Z" fill="#DCDCDC"/>
<path d="M271 10.9124V6.85742H251.957V22.7034H271V18.6361H258.3V16.6078H271V12.9407H258.3V10.9124H271Z" fill="#DCDCDC"/>
</g>
</svg>
