<svg width="107" height="66" viewBox="0 0 107 66" fill="none" xmlns="http://www.w3.org/2000/svg">
<path d="M22.4957 4.63905V0.100098H0V5.54086H7.91826V26.4235H14.5774V5.54086H18.1144V4.63905H22.4957Z" fill="#1D1D1D"/>
<path d="M37.3347 17.0298L37.3368 17.0277L37.3071 16.9892C37.3305 16.9785 37.3539 16.9657 37.3773 16.9529L40.9695 10.2256C40.5548 7.08855 37.7899 4.60751 34.5741 4.64171H22.4957V5.54351H18.1144V21.8038H24.7735V17.6153H30.7202L33.0789 20.6862C34.5124 20.3891 36.0905 20.2609 37.7494 20.2566C38.4811 20.2566 39.1978 20.2823 39.8933 20.3357L37.3368 17.0298H37.3347ZM33.9232 12.1618C33.6446 12.4417 33.3001 12.5827 32.8939 12.5827H24.7735V9.65721H32.8939C33.7063 9.65721 34.355 10.309 34.355 11.1253C34.3571 11.5228 34.2168 11.8668 33.9232 12.1618Z" fill="#1D1D1D"/>
<path d="M40.1847 14.7708C39.5254 15.7838 38.647 16.5616 37.5602 17.0852L37.5198 17.16L37.5219 17.1621H45.0169L46.3632 14.2259H54.9153L56.2616 17.1621H60.8194V11.6572L54.5984 0H46.6801L41.1503 10.3558C41.1886 10.6529 41.2162 10.952 41.212 11.2598C41.2141 12.5484 40.8696 13.7237 40.1847 14.7708ZM50.6467 4.96849L52.9841 10.0374H48.2944L50.6467 4.96849Z" fill="#1D1D1D"/>
<path d="M60.8236 17.1624V19.5515H67.4828V11.3177L76.658 21.8018H84.1572V19.7054C83.3342 18.842 82.7897 17.6902 82.6068 16.158H84.1572V13.1769C83.198 12.4995 82.6025 11.5742 82.6068 10.2962C82.6068 8.7277 83.181 7.54167 84.1572 6.65269V4.63965H77.4853V13.7325L69.9861 4.63965H60.8236V11.6575L63.7629 17.1624H60.8236Z" fill="#1D1D1D"/>
<path d="M94.0577 15.162C96.7397 15.2902 98.8112 15.4035 98.8112 16.1578C98.8112 17.4849 96.2696 17.8311 94.1981 17.8311C92.1138 17.8311 90.3464 17.487 89.5849 16.1578H84.1572V19.7052C86.1905 21.8401 89.9359 22.2141 94.1981 22.2226C100.196 22.2226 105.789 21.0601 105.789 16.1578C105.802 11.854 99.1047 11.5227 94.3384 11.2791C91.6565 11.1509 89.5849 11.0483 89.5849 10.2961C89.5849 8.93056 92.1265 8.62283 94.1981 8.62283C96.2824 8.62283 98.0498 8.94124 98.8112 10.2961H105.789C105.153 4.93226 100.185 4.25697 94.1981 4.21851C90.1188 4.21851 86.2309 4.76344 84.1572 6.65253V13.1789C86.4159 14.7752 90.7122 14.991 94.0577 15.162Z" fill="#1D1D1D"/>
<path d="M3.81127 60.3998H0.501892V26.2102H8.12877V29.1785H14.3626V26.2102H26.7982L26.7344 26.4752C26.5622 27.1783 26.4771 27.9497 26.4792 28.766V30.0183C26.4771 30.6466 26.5281 31.2535 26.6323 31.8262L26.6791 32.0784H7.58642V33.7452H20.0923V39.1902H7.58642V53.3264L3.81127 60.3998ZM0.927262 59.9724H3.55605L7.16105 53.2195V38.7628H19.6669V34.1705H7.16105V31.6488H26.173C26.0921 31.1253 26.0538 30.5782 26.056 30.0162V28.766C26.0538 28.016 26.1219 27.3022 26.2623 26.6376H14.7901V29.6059H7.70553V26.6376H0.927262V59.9724Z" fill="#1D1D1D" stroke="#1D1D1D" stroke-width="0.3"/>
<path d="M37.9345 38.6066C30.9648 38.5938 27.0216 36.3372 26.2156 31.9008L26.1688 31.6486H28.7316V26.6353H26.2581L26.3219 26.3703C27.062 23.3422 29.3846 21.4018 33.2214 20.6047L33.3511 20.5769L34.2253 21.7159H40.7781L39.6168 20.2136L40.0954 20.25C46.5355 20.7415 49.8023 23.605 49.8023 28.7616V30.0138C49.8108 32.3795 49.1175 34.2857 47.7414 35.6768C45.8293 37.6129 42.5306 38.5981 37.9345 38.6066ZM26.6835 32.076C27.5576 36.1683 31.2413 38.1664 37.9345 38.1793C42.4115 38.1707 45.6082 37.2283 47.4394 35.3777C48.7325 34.0698 49.3854 32.2662 49.3748 30.0181V28.7658C49.3748 23.932 46.4844 21.2992 40.5441 20.7222L41.6458 22.1476H34.0147L33.1746 21.0535C29.6547 21.8142 27.5661 23.5024 26.8026 26.21H29.1549V32.0782H26.6835V32.076ZM37.9387 33.168C35.3291 33.1317 32.6748 32.6787 32.7152 29.5928V29.1761C32.6748 26.1032 35.3291 25.6522 37.9324 25.6159C40.5356 25.6522 43.1836 26.1032 43.1431 29.1783V29.5971C43.1836 32.6787 40.5356 33.1317 37.9387 33.168ZM37.9324 26.0433C35.4248 26.0775 33.1044 26.4814 33.1406 29.1719V29.5971C33.1044 32.3025 35.4248 32.7064 37.9387 32.7428C40.4399 32.7064 42.7539 32.3025 42.7178 29.6014V29.1761C42.7539 26.4814 40.4399 26.0775 37.9324 26.0433Z" fill="#1D1D1D" stroke="#1D1D1D" stroke-width="0.3"/>
<path d="M58.6371 43.5177H51.5526V19.3377H61.0362V21.5879H67.27V19.3377H68.2229C69.9605 19.3206 71.6917 20.0386 72.9551 21.3144C74.2291 22.5987 74.916 24.2784 74.8905 26.0414C74.8905 27.3685 74.5332 28.5908 73.8271 29.6679C73.1784 30.6637 72.3234 31.4394 71.2855 31.9758L76.0071 38.0213V42.4299H71.8172L71.7534 42.3487L64.269 32.7409H58.6371V43.5177ZM51.978 43.0903H58.2118V32.3113H64.4753L64.5392 32.3925L72.0235 42.0004H75.5796V38.1667L70.6219 31.8177L70.8644 31.7044C71.9385 31.2001 72.8169 30.4372 73.4698 29.4307C74.1291 28.4242 74.4652 27.2809 74.4652 26.0371C74.4886 24.3853 73.8441 22.8167 72.6531 21.6136C71.4706 20.4212 69.852 19.7501 68.225 19.763H67.6933V22.0132H60.6087V19.7651H51.9759V43.0903H51.978ZM66.5448 27.7083H58.2118V24.3575H66.5448C67.4678 24.3575 68.2186 25.1118 68.2186 26.0393C68.2186 26.4966 68.0527 26.8941 67.7231 27.2253C67.4061 27.5437 67.0084 27.7083 66.5448 27.7083ZM58.6371 27.2809H66.5448C66.8957 27.2809 67.1828 27.1633 67.4232 26.9219C67.672 26.6718 67.7932 26.3833 67.7932 26.0393C67.7932 25.3362 67.2445 24.7849 66.5448 24.7849H58.6371V27.2809Z" fill="#1D1D1D" stroke="#1D1D1D" stroke-width="0.3"/>
<path d="M82.6663 48.811H75.5818V42.0025H78.5764L75.5818 38.1688V26.8257H84.2359L84.2997 26.9069L90.7909 35.2732L97.3586 26.8257H106V44.4152H98.9154V35.6984L92.5647 44.4152H89.0192L82.6663 35.6984V48.811ZM76.0072 48.3836H82.2409V34.3927L89.234 43.9878H92.3477L99.3408 34.3927V43.9878H105.575V27.2531H97.567L90.7909 35.9677L84.0275 27.2531H76.0072V38.0213L79.4505 42.4299H76.0072V48.3836Z" fill="#1D1D1D" stroke="#1D1D1D" stroke-width="0.3"/>
<path d="M23.0827 58.487L17.7953 48.5842H9.87919L7.37589 53.2728V60.1859H3.68368L0.7146 65.7463H8.21387L9.56016 62.8101H18.1143L19.4606 65.7463H26.9599L25.5158 63.043H23.0827V58.487ZM11.4935 58.6195L13.8436 53.5506L16.1832 58.6195H11.4935Z" fill="#1D1D1D"/>
<path d="M46.1441 48.5972H49.3046C48.405 45.4815 45.4742 43.1543 42.1201 43.1906H23.0827V58.4871L25.5158 63.0432H30.7861V58.1986H37.6665L43.5621 65.7593H51.7654L45.2806 57.4742C46.5737 56.8694 47.618 55.9527 48.3965 54.756C48.5496 54.523 48.6836 54.2815 48.8069 54.0358H46.142V48.5972H46.1441ZM41.3715 51.8903C41.0482 52.2151 40.6505 52.3775 40.1804 52.3775H30.7861V48.9947H40.1804C41.1205 48.9947 41.8713 49.749 41.8713 50.6936C41.8713 51.1509 41.7096 51.5505 41.3715 51.8903Z" fill="#1D1D1D"/>
<path d="M75.7946 50.6871V48.5972H49.3047C49.4982 49.266 49.5982 49.9691 49.5876 50.6957C49.5876 51.8988 49.3238 53.0143 48.807 54.0379H64.6754V65.7614H71.3346V54.0379H85.7929V48.5972H82.4495V50.6871H75.7946Z" fill="#1D1D1D"/>
<path d="M105.787 65.7593V61.3528H92.4562V59.156H105.787V55.1855H92.4562V52.9887H105.787V48.5972H88.9831V54.0358H85.7949V65.7593H105.787Z" fill="#1D1D1D"/>
</svg>
